<?xml version="1.0" encoding="us-ascii" standalone="no"?><svg xmlns="http://www.w3.org/2000/svg" xmlns:xlink="http://www.w3.org/1999/xlink" contentStyleType="text/css" height="489px" preserveAspectRatio="none" style="width:422px;height:489px;background:#FFFFFF;" version="1.1" viewBox="0 0 422 489" width="422px" zoomAndPan="magnify"><defs/><g><rect fill="#FFFFFF" height="294.3281" style="stroke:#181818;stroke-width:1.0;" width="10" x="59" y="93.6211"/><rect fill="#FFFFFF" height="271.0371" style="stroke:#181818;stroke-width:1.0;" width="10" x="245" y="116.9121"/><line style="stroke:#181818;stroke-width:0.5;stroke-dasharray:5.0,5.0;" x1="64" x2="64" y1="83.6211" y2="405.9492"/><line style="stroke:#181818;stroke-width:0.5;stroke-dasharray:5.0,5.0;" x1="249.5" x2="249.5" y1="83.6211" y2="405.9492"/><text fill="#000000" font-family="sans-serif" font-size="14" lengthAdjust="spacing" textLength="112" x="5" y="80.1074">UI Gestor de frota</text><ellipse cx="64" cy="13.5" fill="#E2E2F0" rx="8" ry="8" style="stroke:#181818;stroke-width:0.5;"/><path d="M64,21.5 L64,48.5 M51,29.5 L77,29.5 M64,48.5 L51,63.5 M64,48.5 L77,63.5 " fill="none" style="stroke:#181818;stroke-width:0.5;"/><text fill="#000000" font-family="sans-serif" font-size="14" lengthAdjust="spacing" textLength="112" x="5" y="420.0566">UI Gestor de frota</text><ellipse cx="64" cy="432.0703" fill="#E2E2F0" rx="8" ry="8" style="stroke:#181818;stroke-width:0.5;"/><path d="M64,440.0703 L64,467.0703 M51,448.0703 L77,448.0703 M64,467.0703 L51,482.0703 M64,467.0703 L77,482.0703 " fill="none" style="stroke:#181818;stroke-width:0.5;"/><rect fill="#E2E2F0" height="51.2422" rx="2.5" ry="2.5" style="stroke:#181818;stroke-width:0.5;" width="159" x="170.5" y="31.3789"/><text fill="#000000" font-family="sans-serif" font-size="14" font-style="italic" lengthAdjust="spacing" textLength="86" x="207" y="53.4863">&#171;component&#187;</text><text fill="#000000" font-family="sans-serif" font-size="14" lengthAdjust="spacing" textLength="145" x="177.5" y="72.1074">System RObDroneGo3</text><rect fill="#E2E2F0" height="51.2422" rx="2.5" ry="2.5" style="stroke:#181818;stroke-width:0.5;" width="159" x="170.5" y="404.9492"/><text fill="#000000" font-family="sans-serif" font-size="14" font-style="italic" lengthAdjust="spacing" textLength="86" x="207" y="427.0566">&#171;component&#187;</text><text fill="#000000" font-family="sans-serif" font-size="14" lengthAdjust="spacing" textLength="145" x="177.5" y="445.6777">System RObDroneGo3</text><rect fill="#FFFFFF" height="294.3281" style="stroke:#181818;stroke-width:1.0;" width="10" x="59" y="93.6211"/><rect fill="#FFFFFF" height="271.0371" style="stroke:#181818;stroke-width:1.0;" width="10" x="245" y="116.9121"/><polygon fill="#181818" points="233,112.9121,243,116.9121,233,120.9121,237,116.9121" style="stroke:#181818;stroke-width:1.0;"/><line style="stroke:#181818;stroke-width:1.0;" x1="69" x2="239" y1="116.9121" y2="116.9121"/><text fill="#000000" font-family="sans-serif" font-size="13" lengthAdjust="spacing" textLength="157" x="76" y="111.6494">create elevator in a building</text><polygon fill="#181818" points="80,144.2031,70,148.2031,80,152.2031,76,148.2031" style="stroke:#181818;stroke-width:1.0;"/><line style="stroke:#181818;stroke-width:1.0;" x1="74" x2="244" y1="148.2031" y2="148.2031"/><text fill="#000000" font-family="sans-serif" font-size="13" lengthAdjust="spacing" textLength="72" x="86" y="142.9404">request data</text><polygon fill="#181818" points="233,175.4941,243,179.4941,233,183.4941,237,179.4941" style="stroke:#181818;stroke-width:1.0;"/><line style="stroke:#181818;stroke-width:1.0;" x1="69" x2="239" y1="179.4941" y2="179.4941"/><text fill="#000000" font-family="sans-serif" font-size="13" lengthAdjust="spacing" textLength="57" x="76" y="174.2314">adds data</text><line style="stroke:#181818;stroke-width:1.0;" x1="255" x2="297" y1="210.7852" y2="210.7852"/><line style="stroke:#181818;stroke-width:1.0;" x1="297" x2="297" y1="210.7852" y2="223.7852"/><line style="stroke:#181818;stroke-width:1.0;" x1="256" x2="297" y1="223.7852" y2="223.7852"/><polygon fill="#181818" points="266,219.7852,256,223.7852,266,227.7852,262,223.7852" style="stroke:#181818;stroke-width:1.0;"/><text fill="#000000" font-family="sans-serif" font-size="13" lengthAdjust="spacing" textLength="95" x="262" y="205.5225">validate(elevator)</text><line style="stroke:#181818;stroke-width:1.0;" x1="255" x2="297" y1="255.0762" y2="255.0762"/><line style="stroke:#181818;stroke-width:1.0;" x1="297" x2="297" y1="255.0762" y2="268.0762"/><line style="stroke:#181818;stroke-width:1.0;" x1="256" x2="297" y1="268.0762" y2="268.0762"/><polygon fill="#181818" points="266,264.0762,256,268.0762,266,272.0762,262,268.0762" style="stroke:#181818;stroke-width:1.0;"/><text fill="#000000" font-family="sans-serif" font-size="13" lengthAdjust="spacing" textLength="153" x="262" y="249.8135">validate(elevator.buildingId)</text><line style="stroke:#181818;stroke-width:1.0;" x1="255" x2="297" y1="299.3672" y2="299.3672"/><line style="stroke:#181818;stroke-width:1.0;" x1="297" x2="297" y1="299.3672" y2="312.3672"/><line style="stroke:#181818;stroke-width:1.0;" x1="256" x2="297" y1="312.3672" y2="312.3672"/><polygon fill="#181818" points="266,308.3672,256,312.3672,266,316.3672,262,312.3672" style="stroke:#181818;stroke-width:1.0;"/><text fill="#000000" font-family="sans-serif" font-size="13" lengthAdjust="spacing" textLength="88" x="262" y="294.1045">create(elevator)</text><line style="stroke:#181818;stroke-width:1.0;" x1="255" x2="297" y1="343.6582" y2="343.6582"/><line style="stroke:#181818;stroke-width:1.0;" x1="297" x2="297" y1="343.6582" y2="356.6582"/><line style="stroke:#181818;stroke-width:1.0;" x1="256" x2="297" y1="356.6582" y2="356.6582"/><polygon fill="#181818" points="266,352.6582,256,356.6582,266,360.6582,262,356.6582" style="stroke:#181818;stroke-width:1.0;"/><text fill="#000000" font-family="sans-serif" font-size="13" lengthAdjust="spacing" textLength="78" x="262" y="338.3955">save(elevator)</text><polygon fill="#181818" points="75,383.9492,65,387.9492,75,391.9492,71,387.9492" style="stroke:#181818;stroke-width:1.0;"/><line style="stroke:#181818;stroke-width:1.0;" x1="69" x2="249" y1="387.9492" y2="387.9492"/><text fill="#000000" font-family="sans-serif" font-size="13" lengthAdjust="spacing" textLength="115" x="81" y="382.6865">Shows created data</text><!--SRC=[bP312i8m44Jl_Ogb9ptenPkKWYX8JuB53rYJLGCngPjjnRytjOeLYkWbXCpRsPaib7Y6T5V0ca9xrGG7ze8fO81T84ugP37ALEW4ql8MXCwmtUnNx1sj_Um1BhqJzjOIGvOfVwwYvYJF4rHY6XJghDe39daFduDYQdMo5BaOm3X0sDV6QkEEx_dtIEUIJJvSc2vrB00Q1PF1FQXrUCgzj1yGpA51Qo94erUUyL_qz1Myq5y7kzA_BGdOzCc1-X4gJ_uQdhQwgwbfwFDwhwtH7G00]--></g></svg>