<?xml version="1.0" encoding="us-ascii" standalone="no"?><svg xmlns="http://www.w3.org/2000/svg" xmlns:xlink="http://www.w3.org/1999/xlink" contentStyleType="text/css" height="444px" preserveAspectRatio="none" style="width:346px;height:444px;background:#FFFFFF;" version="1.1" viewBox="0 0 346 444" width="346px" zoomAndPan="magnify"><defs/><g><rect fill="#FFFFFF" height="250.0371" style="stroke:#181818;stroke-width:1.0;" width="10" x="59" y="93.6211"/><rect fill="#FFFFFF" height="226.7461" style="stroke:#181818;stroke-width:1.0;" width="10" x="214" y="116.9121"/><line style="stroke:#181818;stroke-width:0.5;stroke-dasharray:5.0,5.0;" x1="64" x2="64" y1="83.6211" y2="361.6582"/><line style="stroke:#181818;stroke-width:0.5;stroke-dasharray:5.0,5.0;" x1="218.5" x2="218.5" y1="83.6211" y2="361.6582"/><text fill="#000000" font-family="sans-serif" font-size="14" lengthAdjust="spacing" textLength="112" x="5" y="80.1074">UI Gestor de frota</text><ellipse cx="64" cy="13.5" fill="#E2E2F0" rx="8" ry="8" style="stroke:#181818;stroke-width:0.5;"/><path d="M64,21.5 L64,48.5 M51,29.5 L77,29.5 M64,48.5 L51,63.5 M64,48.5 L77,63.5 " fill="none" style="stroke:#181818;stroke-width:0.5;"/><text fill="#000000" font-family="sans-serif" font-size="14" lengthAdjust="spacing" textLength="112" x="5" y="375.7656">UI Gestor de frota</text><ellipse cx="64" cy="387.7793" fill="#E2E2F0" rx="8" ry="8" style="stroke:#181818;stroke-width:0.5;"/><path d="M64,395.7793 L64,422.7793 M51,403.7793 L77,403.7793 M64,422.7793 L51,437.7793 M64,422.7793 L77,437.7793 " fill="none" style="stroke:#181818;stroke-width:0.5;"/><rect fill="#E2E2F0" height="51.2422" rx="2.5" ry="2.5" style="stroke:#181818;stroke-width:0.5;" width="159" x="139.5" y="31.3789"/><text fill="#000000" font-family="sans-serif" font-size="14" font-style="italic" lengthAdjust="spacing" textLength="86" x="176" y="53.4863">&#171;component&#187;</text><text fill="#000000" font-family="sans-serif" font-size="14" lengthAdjust="spacing" textLength="145" x="146.5" y="72.1074">System RObDroneGo3</text><rect fill="#E2E2F0" height="51.2422" rx="2.5" ry="2.5" style="stroke:#181818;stroke-width:0.5;" width="159" x="139.5" y="360.6582"/><text fill="#000000" font-family="sans-serif" font-size="14" font-style="italic" lengthAdjust="spacing" textLength="86" x="176" y="382.7656">&#171;component&#187;</text><text fill="#000000" font-family="sans-serif" font-size="14" lengthAdjust="spacing" textLength="145" x="146.5" y="401.3867">System RObDroneGo3</text><rect fill="#FFFFFF" height="250.0371" style="stroke:#181818;stroke-width:1.0;" width="10" x="59" y="93.6211"/><rect fill="#FFFFFF" height="226.7461" style="stroke:#181818;stroke-width:1.0;" width="10" x="214" y="116.9121"/><polygon fill="#181818" points="202,112.9121,212,116.9121,202,120.9121,206,116.9121" style="stroke:#181818;stroke-width:1.0;"/><line style="stroke:#181818;stroke-width:1.0;" x1="69" x2="208" y1="116.9121" y2="116.9121"/><text fill="#000000" font-family="sans-serif" font-size="13" lengthAdjust="spacing" textLength="98" x="76" y="111.6494">create robot type</text><polygon fill="#181818" points="80,144.2031,70,148.2031,80,152.2031,76,148.2031" style="stroke:#181818;stroke-width:1.0;"/><line style="stroke:#181818;stroke-width:1.0;" x1="74" x2="213" y1="148.2031" y2="148.2031"/><text fill="#000000" font-family="sans-serif" font-size="13" lengthAdjust="spacing" textLength="72" x="86" y="142.9404">request data</text><polygon fill="#181818" points="202,175.4941,212,179.4941,202,183.4941,206,179.4941" style="stroke:#181818;stroke-width:1.0;"/><line style="stroke:#181818;stroke-width:1.0;" x1="69" x2="208" y1="179.4941" y2="179.4941"/><text fill="#000000" font-family="sans-serif" font-size="13" lengthAdjust="spacing" textLength="57" x="76" y="174.2314">adds data</text><line style="stroke:#181818;stroke-width:1.0;" x1="224" x2="266" y1="210.7852" y2="210.7852"/><line style="stroke:#181818;stroke-width:1.0;" x1="266" x2="266" y1="210.7852" y2="223.7852"/><line style="stroke:#181818;stroke-width:1.0;" x1="225" x2="266" y1="223.7852" y2="223.7852"/><polygon fill="#181818" points="235,219.7852,225,223.7852,235,227.7852,231,223.7852" style="stroke:#181818;stroke-width:1.0;"/><text fill="#000000" font-family="sans-serif" font-size="13" lengthAdjust="spacing" textLength="108" x="231" y="205.5225">validate(robotType)</text><line style="stroke:#181818;stroke-width:1.0;" x1="224" x2="266" y1="255.0762" y2="255.0762"/><line style="stroke:#181818;stroke-width:1.0;" x1="266" x2="266" y1="255.0762" y2="268.0762"/><line style="stroke:#181818;stroke-width:1.0;" x1="225" x2="266" y1="268.0762" y2="268.0762"/><polygon fill="#181818" points="235,264.0762,225,268.0762,235,272.0762,231,268.0762" style="stroke:#181818;stroke-width:1.0;"/><text fill="#000000" font-family="sans-serif" font-size="13" lengthAdjust="spacing" textLength="101" x="231" y="249.8135">create(robotType)</text><line style="stroke:#181818;stroke-width:1.0;" x1="224" x2="266" y1="299.3672" y2="299.3672"/><line style="stroke:#181818;stroke-width:1.0;" x1="266" x2="266" y1="299.3672" y2="312.3672"/><line style="stroke:#181818;stroke-width:1.0;" x1="225" x2="266" y1="312.3672" y2="312.3672"/><polygon fill="#181818" points="235,308.3672,225,312.3672,235,316.3672,231,312.3672" style="stroke:#181818;stroke-width:1.0;"/><text fill="#000000" font-family="sans-serif" font-size="13" lengthAdjust="spacing" textLength="91" x="231" y="294.1045">save(robotType)</text><polygon fill="#181818" points="75,339.6582,65,343.6582,75,347.6582,71,343.6582" style="stroke:#181818;stroke-width:1.0;"/><line style="stroke:#181818;stroke-width:1.0;" x1="69" x2="218" y1="343.6582" y2="343.6582"/><text fill="#000000" font-family="sans-serif" font-size="13" lengthAdjust="spacing" textLength="121" x="81" y="338.3955">Successful message</text><!--SRC=[ZP112u9048Nl_eh1KnqyTHCHea0w1Pa_ODgTGb37PaV1Vz-QGGeINNQMVTzxl9szKHO8YnDavCQh9RWBAuQ03Wf74hGeMfgonKOXp0UdLCFbV3iADvJnxWqUk57XgYA1935SjrvhD4q3D5hsg3H5ZGT4wGoFmGYDkl2D5NHewUlvOfCpYHPEeMVdIuD5nM0r6wrr7tdMS05133rMfOTey-vmzHMsl_2fy9-mmtw1hdp4Ktbd33btxoge_SG71PRMrZ1x7ODU]--></g></svg>