<?xml version="1.0" encoding="UTF-8" standalone="no"?><svg xmlns="http://www.w3.org/2000/svg" xmlns:xlink="http://www.w3.org/1999/xlink" contentStyleType="text/css" height="898px" preserveAspectRatio="none" style="width:1892px;height:898px;background:#FFFFFF;" version="1.1" viewBox="0 0 1892 898" width="1892px" zoomAndPan="magnify"><defs/><g><rect fill="#FFFFFF" height="798.9766" style="stroke:#181818;stroke-width:1.0;" width="10" x="55" y="46.2969"/><rect fill="#FFFFFF" height="777.8438" style="stroke:#181818;stroke-width:1.0;" width="10" x="216" y="67.4297"/><rect fill="#FFFFFF" height="689.3125" style="stroke:#181818;stroke-width:1.0;" width="10" x="372" y="111.6953"/><rect fill="#FFFFFF" height="503.3516" style="stroke:#181818;stroke-width:1.0;" width="10" x="528" y="268.5234"/><rect fill="#FFFFFF" height="246.9609" style="stroke:#181818;stroke-width:1.0;" width="10" x="688" y="425.3516"/><rect fill="#FFFFFF" height="29.1328" style="stroke:#181818;stroke-width:1.0;" width="10" x="899" y="182.9609"/><rect fill="#FFFFFF" height="29.1328" style="stroke:#181818;stroke-width:1.0;" width="10" x="899" y="339.7891"/><rect fill="#FFFFFF" height="29.1328" style="stroke:#181818;stroke-width:1.0;" width="10" x="899" y="454.4844"/><rect fill="#FFFFFF" height="59.1328" style="stroke:#181818;stroke-width:1.0;" width="10" x="899" y="584.0469"/><rect fill="#FFFFFF" height="29.1328" style="stroke:#181818;stroke-width:1.0;" width="10" x="899" y="701.4453"/><rect fill="#FFFFFF" height="30" style="stroke:#181818;stroke-width:1.0;" width="10" x="1504.5" y="613.1797"/><rect fill="#FFFFFF" height="30" style="stroke:#181818;stroke-width:1.0;" width="10" x="1833" y="524.9141"/><line style="stroke:#181818;stroke-width:0.5;stroke-dasharray:5.0,5.0;" x1="60" x2="60" y1="36.2969" y2="863.2734"/><line style="stroke:#181818;stroke-width:0.5;stroke-dasharray:5.0,5.0;" x1="220.5" x2="220.5" y1="36.2969" y2="863.2734"/><line style="stroke:#181818;stroke-width:0.5;stroke-dasharray:5.0,5.0;" x1="377" x2="377" y1="36.2969" y2="863.2734"/><line style="stroke:#181818;stroke-width:0.5;stroke-dasharray:5.0,5.0;" x1="532.5" x2="532.5" y1="36.2969" y2="863.2734"/><line style="stroke:#181818;stroke-width:0.5;stroke-dasharray:5.0,5.0;" x1="692.5" x2="692.5" y1="36.2969" y2="863.2734"/><line style="stroke:#181818;stroke-width:0.5;stroke-dasharray:5.0,5.0;" x1="903.5" x2="903.5" y1="36.2969" y2="863.2734"/><line style="stroke:#181818;stroke-width:0.5;stroke-dasharray:5.0,5.0;" x1="1200" x2="1200" y1="740.0938" y2="863.2734"/><line style="stroke:#181818;stroke-width:0.5;stroke-dasharray:5.0,5.0;" x1="1381" x2="1381" y1="493.1328" y2="863.2734"/><line style="stroke:#181818;stroke-width:0.5;stroke-dasharray:5.0,5.0;" x1="1509" x2="1509" y1="378.4375" y2="863.2734"/><line style="stroke:#181818;stroke-width:0.5;stroke-dasharray:5.0,5.0;" x1="1677" x2="1677" y1="221.6094" y2="863.2734"/><line style="stroke:#181818;stroke-width:0.5;stroke-dasharray:5.0,5.0;" x1="1838" x2="1838" y1="36.2969" y2="863.2734"/><rect fill="#E2E2F0" height="30.2969" rx="2.5" ry="2.5" style="stroke:#181818;stroke-width:0.5;" width="110" x="5" y="5"/><text fill="#000000" font-family="sans-serif" font-size="14" lengthAdjust="spacing" textLength="96" x="12" y="24.9951">User Interface</text><rect fill="#E2E2F0" height="30.2969" rx="2.5" ry="2.5" style="stroke:#181818;stroke-width:0.5;" width="110" x="5" y="862.2734"/><text fill="#000000" font-family="sans-serif" font-size="14" lengthAdjust="spacing" textLength="96" x="12" y="882.2686">User Interface</text><rect fill="#E2E2F0" height="30.2969" rx="2.5" ry="2.5" style="stroke:#181818;stroke-width:0.5;" width="61" x="190.5" y="5"/><text fill="#000000" font-family="sans-serif" font-size="14" lengthAdjust="spacing" textLength="47" x="197.5" y="24.9951">Router</text><rect fill="#E2E2F0" height="30.2969" rx="2.5" ry="2.5" style="stroke:#181818;stroke-width:0.5;" width="61" x="190.5" y="862.2734"/><text fill="#000000" font-family="sans-serif" font-size="14" lengthAdjust="spacing" textLength="47" x="197.5" y="882.2686">Router</text><rect fill="#E2E2F0" height="30.2969" rx="2.5" ry="2.5" style="stroke:#181818;stroke-width:0.5;" width="136" x="309" y="5"/><text fill="#000000" font-family="sans-serif" font-size="14" lengthAdjust="spacing" textLength="122" x="316" y="24.9951">BuildingController</text><rect fill="#E2E2F0" height="30.2969" rx="2.5" ry="2.5" style="stroke:#181818;stroke-width:0.5;" width="136" x="309" y="862.2734"/><text fill="#000000" font-family="sans-serif" font-size="14" lengthAdjust="spacing" textLength="122" x="316" y="882.2686">BuildingController</text><rect fill="#E2E2F0" height="30.2969" rx="2.5" ry="2.5" style="stroke:#181818;stroke-width:0.5;" width="119" x="473.5" y="5"/><text fill="#000000" font-family="sans-serif" font-size="14" lengthAdjust="spacing" textLength="105" x="480.5" y="24.9951">BuildingService</text><rect fill="#E2E2F0" height="30.2969" rx="2.5" ry="2.5" style="stroke:#181818;stroke-width:0.5;" width="119" x="473.5" y="862.2734"/><text fill="#000000" font-family="sans-serif" font-size="14" lengthAdjust="spacing" textLength="105" x="480.5" y="882.2686">BuildingService</text><rect fill="#E2E2F0" height="30.2969" rx="2.5" ry="2.5" style="stroke:#181818;stroke-width:0.5;" width="143" x="621.5" y="5"/><text fill="#000000" font-family="sans-serif" font-size="14" lengthAdjust="spacing" textLength="129" x="628.5" y="24.9951">BuildingRepository</text><rect fill="#E2E2F0" height="30.2969" rx="2.5" ry="2.5" style="stroke:#181818;stroke-width:0.5;" width="143" x="621.5" y="862.2734"/><text fill="#000000" font-family="sans-serif" font-size="14" lengthAdjust="spacing" textLength="129" x="628.5" y="882.2686">BuildingRepository</text><rect fill="#E2E2F0" height="30.2969" rx="2.5" ry="2.5" style="stroke:#181818;stroke-width:0.5;" width="121" x="843.5" y="5"/><text fill="#000000" font-family="sans-serif" font-size="14" lengthAdjust="spacing" textLength="107" x="850.5" y="24.9951">BuildingMapper</text><rect fill="#E2E2F0" height="30.2969" rx="2.5" ry="2.5" style="stroke:#181818;stroke-width:0.5;" width="121" x="843.5" y="862.2734"/><text fill="#000000" font-family="sans-serif" font-size="14" lengthAdjust="spacing" textLength="107" x="850.5" y="882.2686">BuildingMapper</text><rect fill="#E2E2F0" height="30.2969" rx="2.5" ry="2.5" style="stroke:#181818;stroke-width:0.5;" width="217" x="1092" y="862.2734"/><text fill="#000000" font-family="sans-serif" font-size="14" lengthAdjust="spacing" textLength="203" x="1099" y="882.2686">BuildingCreateResponseDTO</text><rect fill="#E2E2F0" height="30.2969" rx="2.5" ry="2.5" style="stroke:#181818;stroke-width:0.5;" width="125" x="1319" y="862.2734"/><text fill="#000000" font-family="sans-serif" font-size="14" lengthAdjust="spacing" textLength="111" x="1326" y="882.2686">BuildingSchema</text><rect fill="#E2E2F0" height="30.2969" rx="2.5" ry="2.5" style="stroke:#181818;stroke-width:0.5;" width="111" x="1454" y="862.2734"/><text fill="#000000" font-family="sans-serif" font-size="14" lengthAdjust="spacing" textLength="97" x="1461" y="882.2686">BuildingModel</text><rect fill="#E2E2F0" height="30.2969" rx="2.5" ry="2.5" style="stroke:#181818;stroke-width:0.5;" width="205" x="1575" y="862.2734"/><text fill="#000000" font-family="sans-serif" font-size="14" lengthAdjust="spacing" textLength="191" x="1582" y="882.2686">BuildingCreateRequestDTO</text><rect fill="#E2E2F0" height="30.2969" rx="2.5" ry="2.5" style="stroke:#181818;stroke-width:0.5;" width="96" x="1790" y="5"/><text fill="#000000" font-family="sans-serif" font-size="14" lengthAdjust="spacing" textLength="82" x="1797" y="24.9951">Persistence</text><rect fill="#E2E2F0" height="30.2969" rx="2.5" ry="2.5" style="stroke:#181818;stroke-width:0.5;" width="96" x="1790" y="862.2734"/><text fill="#000000" font-family="sans-serif" font-size="14" lengthAdjust="spacing" textLength="82" x="1797" y="882.2686">Persistence</text><rect fill="#FFFFFF" height="798.9766" style="stroke:#181818;stroke-width:1.0;" width="10" x="55" y="46.2969"/><rect fill="#FFFFFF" height="777.8438" style="stroke:#181818;stroke-width:1.0;" width="10" x="216" y="67.4297"/><rect fill="#FFFFFF" height="689.3125" style="stroke:#181818;stroke-width:1.0;" width="10" x="372" y="111.6953"/><rect fill="#FFFFFF" height="503.3516" style="stroke:#181818;stroke-width:1.0;" width="10" x="528" y="268.5234"/><rect fill="#FFFFFF" height="246.9609" style="stroke:#181818;stroke-width:1.0;" width="10" x="688" y="425.3516"/><rect fill="#FFFFFF" height="29.1328" style="stroke:#181818;stroke-width:1.0;" width="10" x="899" y="182.9609"/><rect fill="#FFFFFF" height="29.1328" style="stroke:#181818;stroke-width:1.0;" width="10" x="899" y="339.7891"/><rect fill="#FFFFFF" height="29.1328" style="stroke:#181818;stroke-width:1.0;" width="10" x="899" y="454.4844"/><rect fill="#FFFFFF" height="59.1328" style="stroke:#181818;stroke-width:1.0;" width="10" x="899" y="584.0469"/><rect fill="#FFFFFF" height="29.1328" style="stroke:#181818;stroke-width:1.0;" width="10" x="899" y="701.4453"/><rect fill="#FFFFFF" height="30" style="stroke:#181818;stroke-width:1.0;" width="10" x="1504.5" y="613.1797"/><rect fill="#FFFFFF" height="30" style="stroke:#181818;stroke-width:1.0;" width="10" x="1833" y="524.9141"/><polygon fill="#181818" points="204,63.4297,214,67.4297,204,71.4297,208,67.4297" style="stroke:#181818;stroke-width:1.0;"/><line style="stroke:#181818;stroke-width:1.0;" x1="65" x2="210" y1="67.4297" y2="67.4297"/><text fill="#000000" font-family="sans-serif" font-size="13" lengthAdjust="spacing" textLength="132" x="72" y="62.3638">POST /Building (json)</text><polygon fill="#181818" points="360,107.6953,370,111.6953,360,115.6953,364,111.6953" style="stroke:#181818;stroke-width:1.0;"/><line style="stroke:#181818;stroke-width:1.0;" x1="226" x2="366" y1="111.6953" y2="111.6953"/><text fill="#000000" font-family="sans-serif" font-size="13" lengthAdjust="spacing" textLength="101" x="233" y="91.4966">responseDTO =</text><text fill="#000000" font-family="sans-serif" font-size="13" lengthAdjust="spacing" textLength="127" x="233" y="106.6294">createBuilding(json)</text><line style="stroke:#181818;stroke-width:1.0;" x1="382" x2="424" y1="140.8281" y2="140.8281"/><line style="stroke:#181818;stroke-width:1.0;" x1="424" x2="424" y1="140.8281" y2="153.8281"/><line style="stroke:#181818;stroke-width:1.0;" x1="383" x2="424" y1="153.8281" y2="153.8281"/><polygon fill="#181818" points="393,149.8281,383,153.8281,393,157.8281,389,153.8281" style="stroke:#181818;stroke-width:1.0;"/><text fill="#000000" font-family="sans-serif" font-size="13" lengthAdjust="spacing" textLength="86" x="389" y="135.7622">validate(json)</text><polygon fill="#181818" points="887,178.9609,897,182.9609,887,186.9609,891,182.9609" style="stroke:#181818;stroke-width:1.0;"/><line style="stroke:#181818;stroke-width:1.0;" x1="382" x2="893" y1="182.9609" y2="182.9609"/><text fill="#000000" font-family="sans-serif" font-size="13" lengthAdjust="spacing" textLength="216" x="389" y="177.895">requestDTO = createCreateDTO()</text><polygon fill="#181818" points="1563,208.0938,1573,212.0938,1563,216.0938,1567,212.0938" style="stroke:#181818;stroke-width:1.0;"/><line style="stroke:#181818;stroke-width:1.0;" x1="904" x2="1569" y1="212.0938" y2="212.0938"/><text fill="#000000" font-family="sans-serif" font-size="13" lengthAdjust="spacing" textLength="153" x="911" y="207.0278">requestDTO: &lt;&lt;new&gt;&gt;</text><rect fill="#E2E2F0" height="30.2969" rx="2.5" ry="2.5" style="stroke:#181818;stroke-width:0.5;" width="205" x="1575" y="190.9609"/><text fill="#000000" font-family="sans-serif" font-size="14" lengthAdjust="spacing" textLength="191" x="1582" y="210.9561">BuildingCreateRequestDTO</text><polygon fill="#181818" points="516,264.5234,526,268.5234,516,272.5234,520,268.5234" style="stroke:#181818;stroke-width:1.0;"/><line style="stroke:#181818;stroke-width:1.0;" x1="382" x2="522" y1="268.5234" y2="268.5234"/><text fill="#000000" font-family="sans-serif" font-size="13" lengthAdjust="spacing" textLength="101" x="389" y="248.3247">responseDTO =</text><text fill="#000000" font-family="sans-serif" font-size="13" lengthAdjust="spacing" textLength="127" x="389" y="263.4575">create(requestDTO)</text><line style="stroke:#181818;stroke-width:1.0;" x1="538" x2="580" y1="297.6563" y2="297.6563"/><line style="stroke:#181818;stroke-width:1.0;" x1="580" x2="580" y1="297.6563" y2="310.6563"/><line style="stroke:#181818;stroke-width:1.0;" x1="539" x2="580" y1="310.6563" y2="310.6563"/><polygon fill="#181818" points="549,306.6563,539,310.6563,549,314.6563,545,310.6563" style="stroke:#181818;stroke-width:1.0;"/><text fill="#000000" font-family="sans-serif" font-size="13" lengthAdjust="spacing" textLength="136" x="545" y="292.5903">validate(requestDTO)</text><polygon fill="#181818" points="887,335.7891,897,339.7891,887,343.7891,891,339.7891" style="stroke:#181818;stroke-width:1.0;"/><line style="stroke:#181818;stroke-width:1.0;" x1="538" x2="893" y1="339.7891" y2="339.7891"/><text fill="#000000" font-family="sans-serif" font-size="13" lengthAdjust="spacing" textLength="205" x="545" y="334.7231">building = toModel(requestDTO)</text><polygon fill="#181818" points="1442,364.9219,1452,368.9219,1442,372.9219,1446,368.9219" style="stroke:#181818;stroke-width:1.0;"/><line style="stroke:#181818;stroke-width:1.0;" x1="904" x2="1448" y1="368.9219" y2="368.9219"/><text fill="#000000" font-family="sans-serif" font-size="13" lengthAdjust="spacing" textLength="126" x="911" y="363.856">building: &lt;&lt;new&gt;&gt;</text><rect fill="#E2E2F0" height="30.2969" rx="2.5" ry="2.5" style="stroke:#181818;stroke-width:0.5;" width="111" x="1454" y="347.7891"/><text fill="#000000" font-family="sans-serif" font-size="14" lengthAdjust="spacing" textLength="97" x="1461" y="367.7842">BuildingModel</text><polygon fill="#181818" points="676,421.3516,686,425.3516,676,429.3516,680,425.3516" style="stroke:#181818;stroke-width:1.0;"/><line style="stroke:#181818;stroke-width:1.0;" x1="538" x2="682" y1="425.3516" y2="425.3516"/><text fill="#000000" font-family="sans-serif" font-size="13" lengthAdjust="spacing" textLength="51" x="545" y="405.1528">entity =</text><text fill="#000000" font-family="sans-serif" font-size="13" lengthAdjust="spacing" textLength="89" x="545" y="420.2856">save(building)</text><polygon fill="#181818" points="887,450.4844,897,454.4844,887,458.4844,891,454.4844" style="stroke:#181818;stroke-width:1.0;"/><line style="stroke:#181818;stroke-width:1.0;" x1="698" x2="893" y1="454.4844" y2="454.4844"/><text fill="#000000" font-family="sans-serif" font-size="13" lengthAdjust="spacing" textLength="182" x="705" y="449.4185">schema = toSchema(entity)</text><polygon fill="#181818" points="1307,479.6172,1317,483.6172,1307,487.6172,1311,483.6172" style="stroke:#181818;stroke-width:1.0;"/><line style="stroke:#181818;stroke-width:1.0;" x1="904" x2="1313" y1="483.6172" y2="483.6172"/><text fill="#000000" font-family="sans-serif" font-size="13" lengthAdjust="spacing" textLength="128" x="911" y="478.5513">schema: &lt;&lt;new&gt;&gt;</text><rect fill="#E2E2F0" height="30.2969" rx="2.5" ry="2.5" style="stroke:#181818;stroke-width:0.5;" width="125" x="1319" y="462.4844"/><text fill="#000000" font-family="sans-serif" font-size="14" lengthAdjust="spacing" textLength="111" x="1326" y="482.4795">BuildingSchema</text><polygon fill="#181818" points="1821,520.9141,1831,524.9141,1821,528.9141,1825,524.9141" style="stroke:#181818;stroke-width:1.0;"/><line style="stroke:#181818;stroke-width:1.0;" x1="698" x2="1827" y1="524.9141" y2="524.9141"/><text fill="#000000" font-family="sans-serif" font-size="13" lengthAdjust="spacing" textLength="104" x="705" y="519.8481">persist(schema)</text><polygon fill="#181818" points="887,580.0469,897,584.0469,887,588.0469,891,584.0469" style="stroke:#181818;stroke-width:1.0;"/><line style="stroke:#181818;stroke-width:1.0;" x1="698" x2="893" y1="584.0469" y2="584.0469"/><text fill="#000000" font-family="sans-serif" font-size="13" lengthAdjust="spacing" textLength="167" x="705" y="578.981">entity = toModel(schema)</text><polygon fill="#181818" points="1492.5,609.1797,1502.5,613.1797,1492.5,617.1797,1496.5,613.1797" style="stroke:#181818;stroke-width:1.0;"/><line style="stroke:#181818;stroke-width:1.0;" x1="909" x2="1498.5" y1="613.1797" y2="613.1797"/><text fill="#000000" font-family="sans-serif" font-size="13" lengthAdjust="spacing" textLength="113" x="916" y="608.1138">entity: &lt;&lt;new&gt;&gt;</text><polygon fill="#181818" points="549,668.3125,539,672.3125,549,676.3125,545,672.3125" style="stroke:#181818;stroke-width:1.0;"/><line style="stroke:#181818;stroke-width:1.0;stroke-dasharray:2.0,2.0;" x1="543" x2="692" y1="672.3125" y2="672.3125"/><text fill="#000000" font-family="sans-serif" font-size="13" lengthAdjust="spacing" textLength="36" x="555" y="667.2466">entity</text><polygon fill="#181818" points="887,697.4453,897,701.4453,887,705.4453,891,701.4453" style="stroke:#181818;stroke-width:1.0;"/><line style="stroke:#181818;stroke-width:1.0;" x1="538" x2="893" y1="701.4453" y2="701.4453"/><text fill="#000000" font-family="sans-serif" font-size="13" lengthAdjust="spacing" textLength="281" x="545" y="696.3794">responseDTO = createResponseDTO(entity)</text><polygon fill="#181818" points="1080,726.5781,1090,730.5781,1080,734.5781,1084,730.5781" style="stroke:#181818;stroke-width:1.0;"/><line style="stroke:#181818;stroke-width:1.0;" x1="904" x2="1086" y1="730.5781" y2="730.5781"/><text fill="#000000" font-family="sans-serif" font-size="13" lengthAdjust="spacing" textLength="159" x="911" y="725.5122">responseDTO &lt;&lt;new&gt;&gt;</text><rect fill="#E2E2F0" height="30.2969" rx="2.5" ry="2.5" style="stroke:#181818;stroke-width:0.5;" width="217" x="1092" y="709.4453"/><text fill="#000000" font-family="sans-serif" font-size="14" lengthAdjust="spacing" textLength="203" x="1099" y="729.4404">BuildingCreateResponseDTO</text><polygon fill="#181818" points="393,767.875,383,771.875,393,775.875,389,771.875" style="stroke:#181818;stroke-width:1.0;"/><line style="stroke:#181818;stroke-width:1.0;stroke-dasharray:2.0,2.0;" x1="387" x2="532" y1="771.875" y2="771.875"/><text fill="#000000" font-family="sans-serif" font-size="13" lengthAdjust="spacing" textLength="86" x="399" y="766.8091">responseDTO</text><polygon fill="#181818" points="237,797.0078,227,801.0078,237,805.0078,233,801.0078" style="stroke:#181818;stroke-width:1.0;"/><line style="stroke:#181818;stroke-width:1.0;stroke-dasharray:2.0,2.0;" x1="231" x2="376" y1="801.0078" y2="801.0078"/><text fill="#000000" font-family="sans-serif" font-size="13" lengthAdjust="spacing" textLength="86" x="243" y="795.9419">responseDTO</text><polygon fill="#181818" points="71,841.2734,61,845.2734,71,849.2734,67,845.2734" style="stroke:#181818;stroke-width:1.0;"/><line style="stroke:#181818;stroke-width:1.0;stroke-dasharray:2.0,2.0;" x1="65" x2="220" y1="845.2734" y2="845.2734"/><text fill="#000000" font-family="sans-serif" font-size="13" lengthAdjust="spacing" textLength="82" x="77" y="825.0747">HTTP 200 OK</text><text fill="#000000" font-family="sans-serif" font-size="13" lengthAdjust="spacing" textLength="122" x="77" y="840.2075">json(responseDTO)</text><!--MD5=[cdaec51d7bdf33a54a359a90e2137a9b]
@startuml
participant "User Interface" as UI
participant "Router" as Router
participant "BuildingController" as Controller
participant "BuildingService" as Service

participant "BuildingRepository" as Repository
participant "BuildingMapper" as Mapper
participant "BuildingCreateResponseDTO" as CreateResponseDTO
participant "BuildingSchema" as Schema
participant "BuildingModel" as Model
participant "BuildingCreateRequestDTO" as CreateRequestDTO
participant "Persistence" as Persistence

activate UI
UI -> Router: POST /Building (json)
activate Router
Router -> Controller: responseDTO =\ncreateBuilding(json)
activate Controller
Controller -> Controller: validate(json)
Controller -> Mapper: requestDTO = createCreateDTO()
activate Mapper
create CreateRequestDTO
Mapper -> CreateRequestDTO: requestDTO: <<new>>

deactivate Mapper

Controller -> Service: responseDTO =\ncreate(requestDTO)
activate Service
Service -> Service: validate(requestDTO)
Service -> Mapper: building = toModel(requestDTO)
activate Mapper
create Model
Mapper -> Model: building: <<new>>
deactivate Mapper
Service -> Repository: entity =\nsave(building)
activate Repository
Repository -> Mapper: schema = toSchema(entity)
activate Mapper
create Schema
Mapper -> Schema: schema: <<new>>
deactivate
Repository -> Persistence: persist(schema)
activate Persistence
deactivate Persistence
Repository -> Mapper: entity = toModel(schema)
activate Mapper
Mapper -> Model: entity: <<new>>
activate Model
deactivate Model
deactivate Mapper

Repository - -> Service: entity
deactivate Repository

Service -> Mapper: responseDTO = createResponseDTO(entity)
activate Mapper
create CreateResponseDTO
Mapper -> CreateResponseDTO: responseDTO <<new>>
deactivate Mapper

Service - -> Controller: responseDTO
deactivate Service

Controller - -> Router: responseDTO
deactivate Controller
Router - -> UI: HTTP 200 OK\njson(responseDTO)
deactivate Router
deactivate UI
@enduml

PlantUML version 1.2022.7(Mon Aug 22 18:01:30 WEST 2022)
(GPL source distribution)
Java Runtime: OpenJDK Runtime Environment
JVM: OpenJDK 64-Bit Server VM
Default Encoding: UTF-8
Language: pt
Country: PT
--></g></svg>