<?xml version="1.0" encoding="UTF-8" standalone="no"?><svg xmlns="http://www.w3.org/2000/svg" xmlns:xlink="http://www.w3.org/1999/xlink" contentStyleType="text/css" height="567px" preserveAspectRatio="none" style="width:1559px;height:567px;background:#FFFFFF;" version="1.1" viewBox="0 0 1559 567" width="1559px" zoomAndPan="magnify"><defs/><g><rect fill="#FFFFFF" height="467.75" style="stroke:#181818;stroke-width:1.0;" width="10" x="55" y="46.2969"/><rect fill="#FFFFFF" height="446.6172" style="stroke:#181818;stroke-width:1.0;" width="10" x="185" y="67.4297"/><rect fill="#FFFFFF" height="358.0859" style="stroke:#181818;stroke-width:1.0;" width="10" x="293.5" y="111.6953"/><rect fill="#FFFFFF" height="284.6875" style="stroke:#181818;stroke-width:1.0;" width="10" x="431" y="155.9609"/><rect fill="#FFFFFF" height="128.6953" style="stroke:#181818;stroke-width:1.0;" width="10" x="572" y="200.2266"/><rect fill="#FFFFFF" height="29.1328" style="stroke:#181818;stroke-width:1.0;" width="10" x="799" y="299.7891"/><rect fill="#FFFFFF" height="29.1328" style="stroke:#181818;stroke-width:1.0;" width="10" x="799" y="370.2188"/><rect fill="#FFFFFF" height="29.1328" style="stroke:#181818;stroke-width:1.0;" width="10" x="1318" y="229.3594"/><line style="stroke:#181818;stroke-width:0.5;stroke-dasharray:5.0,5.0;" x1="60" x2="60" y1="36.2969" y2="532.0469"/><line style="stroke:#181818;stroke-width:0.5;stroke-dasharray:5.0,5.0;" x1="189.5" x2="189.5" y1="36.2969" y2="532.0469"/><line style="stroke:#181818;stroke-width:0.5;stroke-dasharray:5.0,5.0;" x1="298.5" x2="298.5" y1="36.2969" y2="532.0469"/><line style="stroke:#181818;stroke-width:0.5;stroke-dasharray:5.0,5.0;" x1="435.5" x2="435.5" y1="36.2969" y2="532.0469"/><line style="stroke:#181818;stroke-width:0.5;stroke-dasharray:5.0,5.0;" x1="576.5" x2="576.5" y1="36.2969" y2="532.0469"/><line style="stroke:#181818;stroke-width:0.5;stroke-dasharray:5.0,5.0;" x1="803.5" x2="803.5" y1="36.2969" y2="532.0469"/><line style="stroke:#181818;stroke-width:0.5;stroke-dasharray:5.0,5.0;" x1="1012" x2="1012" y1="408.8672" y2="532.0469"/><line style="stroke:#181818;stroke-width:0.5;stroke-dasharray:5.0,5.0;" x1="1186" x2="1186" y1="338.4375" y2="532.0469"/><line style="stroke:#181818;stroke-width:0.5;stroke-dasharray:5.0,5.0;" x1="1323" x2="1323" y1="36.2969" y2="532.0469"/><line style="stroke:#181818;stroke-width:0.5;stroke-dasharray:5.0,5.0;" x1="1518" x2="1518" y1="268.0078" y2="532.0469"/><rect fill="#E2E2F0" height="30.2969" rx="2.5" ry="2.5" style="stroke:#181818;stroke-width:0.5;" width="110" x="5" y="5"/><text fill="#000000" font-family="sans-serif" font-size="14" lengthAdjust="spacing" textLength="96" x="12" y="24.9951">User Interface</text><rect fill="#E2E2F0" height="30.2969" rx="2.5" ry="2.5" style="stroke:#181818;stroke-width:0.5;" width="110" x="5" y="531.0469"/><text fill="#000000" font-family="sans-serif" font-size="14" lengthAdjust="spacing" textLength="96" x="12" y="551.042">User Interface</text><rect fill="#E2E2F0" height="30.2969" rx="2.5" ry="2.5" style="stroke:#181818;stroke-width:0.5;" width="61" x="159.5" y="5"/><text fill="#000000" font-family="sans-serif" font-size="14" lengthAdjust="spacing" textLength="47" x="166.5" y="24.9951">Router</text><rect fill="#E2E2F0" height="30.2969" rx="2.5" ry="2.5" style="stroke:#181818;stroke-width:0.5;" width="61" x="159.5" y="531.0469"/><text fill="#000000" font-family="sans-serif" font-size="14" lengthAdjust="spacing" textLength="47" x="166.5" y="551.042">Router</text><rect fill="#E2E2F0" height="30.2969" rx="2.5" ry="2.5" style="stroke:#181818;stroke-width:0.5;" width="136" x="230.5" y="5"/><text fill="#000000" font-family="sans-serif" font-size="14" lengthAdjust="spacing" textLength="122" x="237.5" y="24.9951">BuildingController</text><rect fill="#E2E2F0" height="30.2969" rx="2.5" ry="2.5" style="stroke:#181818;stroke-width:0.5;" width="136" x="230.5" y="531.0469"/><text fill="#000000" font-family="sans-serif" font-size="14" lengthAdjust="spacing" textLength="122" x="237.5" y="551.042">BuildingController</text><rect fill="#E2E2F0" height="30.2969" rx="2.5" ry="2.5" style="stroke:#181818;stroke-width:0.5;" width="119" x="376.5" y="5"/><text fill="#000000" font-family="sans-serif" font-size="14" lengthAdjust="spacing" textLength="105" x="383.5" y="24.9951">BuildingService</text><rect fill="#E2E2F0" height="30.2969" rx="2.5" ry="2.5" style="stroke:#181818;stroke-width:0.5;" width="119" x="376.5" y="531.0469"/><text fill="#000000" font-family="sans-serif" font-size="14" lengthAdjust="spacing" textLength="105" x="383.5" y="551.042">BuildingService</text><rect fill="#E2E2F0" height="30.2969" rx="2.5" ry="2.5" style="stroke:#181818;stroke-width:0.5;" width="143" x="505.5" y="5"/><text fill="#000000" font-family="sans-serif" font-size="14" lengthAdjust="spacing" textLength="129" x="512.5" y="24.9951">BuildingRepository</text><rect fill="#E2E2F0" height="30.2969" rx="2.5" ry="2.5" style="stroke:#181818;stroke-width:0.5;" width="143" x="505.5" y="531.0469"/><text fill="#000000" font-family="sans-serif" font-size="14" lengthAdjust="spacing" textLength="129" x="512.5" y="551.042">BuildingRepository</text><rect fill="#E2E2F0" height="30.2969" rx="2.5" ry="2.5" style="stroke:#181818;stroke-width:0.5;" width="121" x="743.5" y="5"/><text fill="#000000" font-family="sans-serif" font-size="14" lengthAdjust="spacing" textLength="107" x="750.5" y="24.9951">BuildingMapper</text><rect fill="#E2E2F0" height="30.2969" rx="2.5" ry="2.5" style="stroke:#181818;stroke-width:0.5;" width="121" x="743.5" y="531.0469"/><text fill="#000000" font-family="sans-serif" font-size="14" lengthAdjust="spacing" textLength="107" x="750.5" y="551.042">BuildingMapper</text><rect fill="#E2E2F0" height="30.2969" rx="2.5" ry="2.5" style="stroke:#181818;stroke-width:0.5;" width="170" x="927" y="531.0469"/><text fill="#000000" font-family="sans-serif" font-size="14" lengthAdjust="spacing" textLength="156" x="934" y="551.042">List&lt;BuildingListDTO&gt;</text><rect fill="#E2E2F0" height="30.2969" rx="2.5" ry="2.5" style="stroke:#181818;stroke-width:0.5;" width="158" x="1107" y="531.0469"/><text fill="#000000" font-family="sans-serif" font-size="14" lengthAdjust="spacing" textLength="144" x="1114" y="551.042">List&lt;BuildingModel&gt;</text><rect fill="#E2E2F0" height="30.2969" rx="2.5" ry="2.5" style="stroke:#181818;stroke-width:0.5;" width="96" x="1275" y="5"/><text fill="#000000" font-family="sans-serif" font-size="14" lengthAdjust="spacing" textLength="82" x="1282" y="24.9951">Persistence</text><rect fill="#E2E2F0" height="30.2969" rx="2.5" ry="2.5" style="stroke:#181818;stroke-width:0.5;" width="96" x="1275" y="531.0469"/><text fill="#000000" font-family="sans-serif" font-size="14" lengthAdjust="spacing" textLength="82" x="1282" y="551.042">Persistence</text><rect fill="#E2E2F0" height="30.2969" rx="2.5" ry="2.5" style="stroke:#181818;stroke-width:0.5;" width="70" x="1483" y="531.0469"/><text fill="#000000" font-family="sans-serif" font-size="14" lengthAdjust="spacing" textLength="56" x="1490" y="551.042">Schema</text><rect fill="#FFFFFF" height="467.75" style="stroke:#181818;stroke-width:1.0;" width="10" x="55" y="46.2969"/><rect fill="#FFFFFF" height="446.6172" style="stroke:#181818;stroke-width:1.0;" width="10" x="185" y="67.4297"/><rect fill="#FFFFFF" height="358.0859" style="stroke:#181818;stroke-width:1.0;" width="10" x="293.5" y="111.6953"/><rect fill="#FFFFFF" height="284.6875" style="stroke:#181818;stroke-width:1.0;" width="10" x="431" y="155.9609"/><rect fill="#FFFFFF" height="128.6953" style="stroke:#181818;stroke-width:1.0;" width="10" x="572" y="200.2266"/><rect fill="#FFFFFF" height="29.1328" style="stroke:#181818;stroke-width:1.0;" width="10" x="799" y="299.7891"/><rect fill="#FFFFFF" height="29.1328" style="stroke:#181818;stroke-width:1.0;" width="10" x="799" y="370.2188"/><rect fill="#FFFFFF" height="29.1328" style="stroke:#181818;stroke-width:1.0;" width="10" x="1318" y="229.3594"/><polygon fill="#181818" points="173,63.4297,183,67.4297,173,71.4297,177,67.4297" style="stroke:#181818;stroke-width:1.0;"/><line style="stroke:#181818;stroke-width:1.0;" x1="65" x2="179" y1="67.4297" y2="67.4297"/><text fill="#000000" font-family="sans-serif" font-size="13" lengthAdjust="spacing" textLength="82" x="72" y="62.3638">GET /building</text><polygon fill="#181818" points="281.5,107.6953,291.5,111.6953,281.5,115.6953,285.5,111.6953" style="stroke:#181818;stroke-width:1.0;"/><line style="stroke:#181818;stroke-width:1.0;" x1="195" x2="287.5" y1="111.6953" y2="111.6953"/><text fill="#000000" font-family="sans-serif" font-size="13" lengthAdjust="spacing" textLength="36" x="202" y="91.4966">dto =</text><text fill="#000000" font-family="sans-serif" font-size="13" lengthAdjust="spacing" textLength="48" x="202" y="106.6294">findAll()</text><polygon fill="#181818" points="419,151.9609,429,155.9609,419,159.9609,423,155.9609" style="stroke:#181818;stroke-width:1.0;"/><line style="stroke:#181818;stroke-width:1.0;" x1="303.5" x2="425" y1="155.9609" y2="155.9609"/><text fill="#000000" font-family="sans-serif" font-size="13" lengthAdjust="spacing" textLength="36" x="310.5" y="135.7622">dto =</text><text fill="#000000" font-family="sans-serif" font-size="13" lengthAdjust="spacing" textLength="48" x="310.5" y="150.895">findAll()</text><polygon fill="#181818" points="560,196.2266,570,200.2266,560,204.2266,564,200.2266" style="stroke:#181818;stroke-width:1.0;"/><line style="stroke:#181818;stroke-width:1.0;" x1="441" x2="566" y1="200.2266" y2="200.2266"/><text fill="#000000" font-family="sans-serif" font-size="13" lengthAdjust="spacing" textLength="75" x="448" y="180.0278">deliveries =</text><text fill="#000000" font-family="sans-serif" font-size="13" lengthAdjust="spacing" textLength="48" x="448" y="195.1606">findAll()</text><polygon fill="#181818" points="1306,225.3594,1316,229.3594,1306,233.3594,1310,229.3594" style="stroke:#181818;stroke-width:1.0;"/><line style="stroke:#181818;stroke-width:1.0;" x1="582" x2="1312" y1="229.3594" y2="229.3594"/><text fill="#000000" font-family="sans-serif" font-size="13" lengthAdjust="spacing" textLength="123" x="589" y="224.2935">schemas = query()</text><polygon fill="#181818" points="1471,254.4922,1481,258.4922,1471,262.4922,1475,258.4922" style="stroke:#181818;stroke-width:1.0;"/><line style="stroke:#181818;stroke-width:1.0;" x1="1323" x2="1477" y1="258.4922" y2="258.4922"/><text fill="#000000" font-family="sans-serif" font-size="13" lengthAdjust="spacing" textLength="131" x="1330" y="253.4263">schemas &lt;&lt;new&gt;&gt;</text><rect fill="#E2E2F0" height="30.2969" rx="2.5" ry="2.5" style="stroke:#181818;stroke-width:0.5;" width="70" x="1483" y="237.3594"/><text fill="#000000" font-family="sans-serif" font-size="14" lengthAdjust="spacing" textLength="56" x="1490" y="257.3545">Schema</text><polygon fill="#181818" points="787,295.7891,797,299.7891,787,303.7891,791,299.7891" style="stroke:#181818;stroke-width:1.0;"/><line style="stroke:#181818;stroke-width:1.0;" x1="582" x2="793" y1="299.7891" y2="299.7891"/><text fill="#000000" font-family="sans-serif" font-size="13" lengthAdjust="spacing" textLength="198" x="589" y="294.7231">deliveries = toModel(schemas)</text><polygon fill="#181818" points="1095,324.9219,1105,328.9219,1095,332.9219,1099,328.9219" style="stroke:#181818;stroke-width:1.0;"/><line style="stroke:#181818;stroke-width:1.0;" x1="804" x2="1101" y1="328.9219" y2="328.9219"/><text fill="#000000" font-family="sans-serif" font-size="13" lengthAdjust="spacing" textLength="137" x="811" y="323.856">deliveries: &lt;&lt;new&gt;&gt;</text><rect fill="#E2E2F0" height="30.2969" rx="2.5" ry="2.5" style="stroke:#181818;stroke-width:0.5;" width="158" x="1107" y="307.7891"/><text fill="#000000" font-family="sans-serif" font-size="14" lengthAdjust="spacing" textLength="144" x="1114" y="327.7842">List&lt;BuildingModel&gt;</text><polygon fill="#181818" points="787,366.2188,797,370.2188,787,374.2188,791,370.2188" style="stroke:#181818;stroke-width:1.0;"/><line style="stroke:#181818;stroke-width:1.0;" x1="441" x2="793" y1="370.2188" y2="370.2188"/><text fill="#000000" font-family="sans-serif" font-size="13" lengthAdjust="spacing" textLength="209" x="448" y="365.1528">dto = BuildingListDTO(deliveries)</text><polygon fill="#181818" points="915,395.3516,925,399.3516,915,403.3516,919,399.3516" style="stroke:#181818;stroke-width:1.0;"/><line style="stroke:#181818;stroke-width:1.0;" x1="804" x2="921" y1="399.3516" y2="399.3516"/><text fill="#000000" font-family="sans-serif" font-size="13" lengthAdjust="spacing" textLength="94" x="811" y="394.2856">dto &lt;&lt;new&gt;&gt;</text><rect fill="#E2E2F0" height="30.2969" rx="2.5" ry="2.5" style="stroke:#181818;stroke-width:0.5;" width="170" x="927" y="378.2188"/><text fill="#000000" font-family="sans-serif" font-size="14" lengthAdjust="spacing" textLength="156" x="934" y="398.2139">List&lt;BuildingListDTO&gt;</text><polygon fill="#181818" points="314.5,436.6484,304.5,440.6484,314.5,444.6484,310.5,440.6484" style="stroke:#181818;stroke-width:1.0;"/><line style="stroke:#181818;stroke-width:1.0;stroke-dasharray:2.0,2.0;" x1="308.5" x2="435" y1="440.6484" y2="440.6484"/><text fill="#000000" font-family="sans-serif" font-size="13" lengthAdjust="spacing" textLength="21" x="320.5" y="435.5825">dto</text><polygon fill="#181818" points="206,465.7813,196,469.7813,206,473.7813,202,469.7813" style="stroke:#181818;stroke-width:1.0;"/><line style="stroke:#181818;stroke-width:1.0;stroke-dasharray:2.0,2.0;" x1="200" x2="297.5" y1="469.7813" y2="469.7813"/><text fill="#000000" font-family="sans-serif" font-size="13" lengthAdjust="spacing" textLength="21" x="212" y="464.7153">dto</text><polygon fill="#181818" points="71,510.0469,61,514.0469,71,518.0469,67,514.0469" style="stroke:#181818;stroke-width:1.0;"/><line style="stroke:#181818;stroke-width:1.0;stroke-dasharray:2.0,2.0;" x1="65" x2="189" y1="514.0469" y2="514.0469"/><text fill="#000000" font-family="sans-serif" font-size="13" lengthAdjust="spacing" textLength="82" x="77" y="493.8481">HTTP 200 OK</text><text fill="#000000" font-family="sans-serif" font-size="13" lengthAdjust="spacing" textLength="96" x="77" y="508.981">json(deliveries)</text><!--MD5=[3f42f57eb3b06107382b0fbca4a0696e]
@startuml
participant "User Interface" as UI
participant "Router" as Router
participant "BuildingController" as Controller
participant "BuildingService" as Service

participant "BuildingRepository" as Repository
participant "BuildingMapper" as Mapper
participant "List<BuildingListDTO>" as BuildingListDTO
participant "List<BuildingModel>" as Model

participant "Persistence" as Persistence
participant "Schema" as Schema

activate UI
UI -> Router: GET /building
activate Router
Router -> Controller: dto =\nfindAll()
activate Controller
Controller -> Service: dto =\nfindAll()
activate Service
Service -> Repository: deliveries =\nfindAll()
activate Repository
Repository -> Persistence: schemas = query()
activate Persistence
create Schema
Persistence -> Schema: schemas <<new>>
deactivate Persistence
Repository -> Mapper: deliveries = toModel(schemas)
activate Mapper
create Model
Mapper -> Model: deliveries: <<new>>
deactivate Mapper
deactivate Repository
Service -> Mapper: dto = BuildingListDTO(deliveries)
activate Mapper
create BuildingListDTO
Mapper -> BuildingListDTO: dto <<new>>
deactivate Mapper
Service - -> Controller: dto
deactivate Service
Controller - -> Router: dto
deactivate Controller
Router - -> UI: HTTP 200 OK\njson(deliveries)
deactivate Router
deactivate UI
@enduml

PlantUML version 1.2022.7(Mon Aug 22 18:01:30 WEST 2022)
(GPL source distribution)
Java Runtime: OpenJDK Runtime Environment
JVM: OpenJDK 64-Bit Server VM
Default Encoding: UTF-8
Language: pt
Country: PT
--></g></svg>