<?xml version="1.0" encoding="us-ascii" standalone="no"?><svg xmlns="http://www.w3.org/2000/svg" xmlns:xlink="http://www.w3.org/1999/xlink" contentStyleType="text/css" height="351px" preserveAspectRatio="none" style="width:608px;height:351px;background:#FFFFFF;" version="1.1" viewBox="0 0 608 351" width="608px" zoomAndPan="magnify"><defs/><g><rect fill="#20B2AA" height="339.25" style="stroke:#181818;stroke-width:0.5;" width="157" x="207" y="6"/><text fill="#000000" font-family="sans-serif" font-size="13" font-weight="bold" lengthAdjust="spacing" textLength="132" x="219.5" y="18.0669">RobDroneGo_SPA</text><rect fill="#ADD8E6" height="339.25" style="stroke:#181818;stroke-width:0.5;" width="235" x="367.5" y="6"/><text fill="#000000" font-family="sans-serif" font-size="13" font-weight="bold" lengthAdjust="spacing" textLength="229" x="370.5" y="18.0669">RobDroneGo_TaskManagment</text><rect fill="#FFFFFF" height="193.9297" style="stroke:#181818;stroke-width:1.0;" width="10" x="22.5" y="82.7266"/><rect fill="#FFFFFF" height="172.7969" style="stroke:#181818;stroke-width:1.0;" width="10" x="280.5" y="103.8594"/><line style="stroke:#181818;stroke-width:0.5;stroke-dasharray:5.0,5.0;" x1="27" x2="27" y1="72.7266" y2="294.6563"/><line style="stroke:#181818;stroke-width:0.5;stroke-dasharray:5.0,5.0;" x1="285" x2="285" y1="72.7266" y2="294.6563"/><line style="stroke:#181818;stroke-width:0.5;stroke-dasharray:5.0,5.0;" x1="485" x2="485" y1="72.7266" y2="294.6563"/><rect fill="#E2E2F0" height="30.2969" rx="2.5" ry="2.5" style="stroke:#181818;stroke-width:0.5;" width="45" x="5" y="41.4297"/><text fill="#000000" font-family="sans-serif" font-size="14" lengthAdjust="spacing" textLength="31" x="12" y="61.4248">User</text><rect fill="#E2E2F0" height="30.2969" rx="2.5" ry="2.5" style="stroke:#181818;stroke-width:0.5;" width="45" x="5" y="293.6563"/><text fill="#000000" font-family="sans-serif" font-size="14" lengthAdjust="spacing" textLength="31" x="12" y="313.6514">User</text><rect fill="#E2E2F0" height="46.5938" rx="2.5" ry="2.5" style="stroke:#181818;stroke-width:0.5;" width="149" x="211" y="25.1328"/><text fill="#000000" font-family="sans-serif" font-size="14" lengthAdjust="spacing" textLength="106" x="230.5" y="45.1279">User Interface:</text><text fill="#000000" font-family="sans-serif" font-size="14" lengthAdjust="spacing" textLength="135" x="218" y="61.4248">RobDroneGo (SPA)</text><rect fill="#E2E2F0" height="46.5938" rx="2.5" ry="2.5" style="stroke:#181818;stroke-width:0.5;" width="149" x="211" y="293.6563"/><text fill="#000000" font-family="sans-serif" font-size="14" lengthAdjust="spacing" textLength="106" x="230.5" y="313.6514">User Interface:</text><text fill="#000000" font-family="sans-serif" font-size="14" lengthAdjust="spacing" textLength="135" x="218" y="329.9482">RobDroneGo (SPA)</text><rect fill="#E2E2F0" height="30.2969" rx="2.5" ry="2.5" style="stroke:#181818;stroke-width:0.5;" width="132" x="419" y="41.4297"/><text fill="#000000" font-family="sans-serif" font-size="14" lengthAdjust="spacing" textLength="118" x="426" y="61.4248">TaskManagment</text><rect fill="#E2E2F0" height="30.2969" rx="2.5" ry="2.5" style="stroke:#181818;stroke-width:0.5;" width="132" x="419" y="293.6563"/><text fill="#000000" font-family="sans-serif" font-size="14" lengthAdjust="spacing" textLength="118" x="426" y="313.6514">TaskManagment</text><rect fill="#FFFFFF" height="193.9297" style="stroke:#181818;stroke-width:1.0;" width="10" x="22.5" y="82.7266"/><rect fill="#FFFFFF" height="172.7969" style="stroke:#181818;stroke-width:1.0;" width="10" x="280.5" y="103.8594"/><polygon fill="#181818" points="268.5,99.8594,278.5,103.8594,268.5,107.8594,272.5,103.8594" style="stroke:#181818;stroke-width:1.0;"/><line style="stroke:#181818;stroke-width:1.0;" x1="32.5" x2="274.5" y1="103.8594" y2="103.8594"/><text fill="#000000" font-family="sans-serif" font-size="13" lengthAdjust="spacing" textLength="115" x="39.5" y="98.7935">Request new task</text><path d="M204,116.8594 L204,141.8594 L366,141.8594 L366,126.8594 L356,116.8594 L204,116.8594 " fill="#FEFFDD" style="stroke:#181818;stroke-width:0.5;"/><path d="M356,116.8594 L356,126.8594 L366,126.8594 L356,116.8594 " fill="#FEFFDD" style="stroke:#181818;stroke-width:0.5;"/><text fill="#000000" font-family="sans-serif" font-size="13" lengthAdjust="spacing" textLength="141" x="210" y="133.9263">Need to be developed</text><polygon fill="#181818" points="473,164.125,483,168.125,473,172.125,477,168.125" style="stroke:#181818;stroke-width:1.0;"/><line style="stroke:#181818;stroke-width:1.0;" x1="290.5" x2="479" y1="168.125" y2="168.125"/><text fill="#000000" font-family="sans-serif" font-size="13" lengthAdjust="spacing" textLength="112" x="297.5" y="163.0591">POST /Task (json)</text><path d="M384,181.125 L384,206.125 L585,206.125 L585,191.125 L575,181.125 L384,181.125 " fill="#FEFFDD" style="stroke:#181818;stroke-width:0.5;"/><path d="M575,181.125 L575,191.125 L585,191.125 L575,181.125 " fill="#FEFFDD" style="stroke:#181818;stroke-width:0.5;"/><text fill="#000000" font-family="sans-serif" font-size="13" lengthAdjust="spacing" textLength="180" x="390" y="198.1919">See SD_US460_RequireTask</text><polygon fill="#181818" points="301.5,243.5234,291.5,247.5234,301.5,251.5234,297.5,247.5234" style="stroke:#181818;stroke-width:1.0;"/><line style="stroke:#181818;stroke-width:1.0;" x1="295.5" x2="484" y1="247.5234" y2="247.5234"/><text fill="#000000" font-family="sans-serif" font-size="13" lengthAdjust="spacing" textLength="83" x="307.5" y="227.3247">HTTP 200 OK</text><text fill="#000000" font-family="sans-serif" font-size="13" lengthAdjust="spacing" textLength="123" x="307.5" y="242.4575">json(responseDTO)</text><polygon fill="#181818" points="38.5,272.6563,28.5,276.6563,38.5,280.6563,34.5,276.6563" style="stroke:#181818;stroke-width:1.0;"/><line style="stroke:#181818;stroke-width:1.0;" x1="32.5" x2="284.5" y1="276.6563" y2="276.6563"/><text fill="#000000" font-family="sans-serif" font-size="13" lengthAdjust="spacing" textLength="224" x="44.5" y="271.5903">Show confirmation of task creation</text><!--SRC=[PP3DRi8m48JlVefLUe53LLHLFN2er0g9Hlq1aN13GYOPm2tifhQ1Fdxj822X9zkhcMzcNMdhJM4gpPwIgODDI3kA5xMGNqeciXXOOGnbdesV4xfvDwkrpw275c1LNTifPG-xr0NwDEEBcph1tZt2KwKKkAGGy2yar-xxGxDURS7-5FUosQ4TTIKBrDRaZ5TA5zxijSTnfxhYxLFeqAS9VdPmdXW7yi7TaAQA9Poo3-ee_GHAya8BK8azDbAXL6gQHbGhk4_ZKPRJNHnIvyi9TnkeAsa6K3QOJxE7nzuyjZ4MKQ9QkbFTrpmVqtslHwEt6KTony9LmWw3VDHL9SxrsrznR1aN3ubhEL0Xl3HsgxqH9bdMkrDXKG-QdF0DpLSW_040]--></g></svg>