<?xml version="1.0" encoding="us-ascii" standalone="no"?><svg xmlns="http://www.w3.org/2000/svg" xmlns:xlink="http://www.w3.org/1999/xlink" contentStyleType="text/css" height="1049px" preserveAspectRatio="none" style="width:2002px;height:1049px;background:#FFFFFF;" version="1.1" viewBox="0 0 2002 1049" width="2002px" zoomAndPan="magnify"><defs/><g><rect fill="#20B2AA" height="1037.6953" style="stroke:#181818;stroke-width:0.5;" width="157" x="214" y="6"/><text fill="#000000" font-family="sans-serif" font-size="13" font-weight="bold" lengthAdjust="spacing" textLength="132" x="226.5" y="18.0669">RobDroneGo_SPA</text><rect fill="#ADD8E6" height="1037.6953" style="stroke:#181818;stroke-width:0.5;" width="1582.5" x="414" y="6"/><text fill="#000000" font-family="sans-serif" font-size="13" font-weight="bold" lengthAdjust="spacing" textLength="229" x="1090.75" y="18.0669">RobDroneGo_TaskManagment</text><rect fill="#FFFFFF" height="901.375" style="stroke:#181818;stroke-width:1.0;" width="10" x="22.5" y="82.7266"/><rect fill="#FFFFFF" height="871.2422" style="stroke:#181818;stroke-width:1.0;" width="10" x="287.5" y="103.8594"/><rect fill="#FFFFFF" height="777.8438" style="stroke:#181818;stroke-width:1.0;" width="10" x="444.5" y="168.125"/><rect fill="#FFFFFF" height="689.3125" style="stroke:#181818;stroke-width:1.0;" width="10" x="580.5" y="212.3906"/><rect fill="#FFFFFF" height="503.3516" style="stroke:#181818;stroke-width:1.0;" width="10" x="737.5" y="369.2188"/><rect fill="#FFFFFF" height="246.9609" style="stroke:#181818;stroke-width:1.0;" width="10" x="899.5" y="526.0469"/><rect fill="#FFFFFF" height="29.1328" style="stroke:#181818;stroke-width:1.0;" width="10" x="1109.5" y="283.6563"/><rect fill="#FFFFFF" height="29.1328" style="stroke:#181818;stroke-width:1.0;" width="10" x="1109.5" y="440.4844"/><rect fill="#FFFFFF" height="29.1328" style="stroke:#181818;stroke-width:1.0;" width="10" x="1109.5" y="555.1797"/><rect fill="#FFFFFF" height="59.1328" style="stroke:#181818;stroke-width:1.0;" width="10" x="1109.5" y="684.7422"/><rect fill="#FFFFFF" height="29.1328" style="stroke:#181818;stroke-width:1.0;" width="10" x="1109.5" y="802.1406"/><rect fill="#FFFFFF" height="30" style="stroke:#181818;stroke-width:1.0;" width="10" x="1638.5" y="713.875"/><rect fill="#FFFFFF" height="30" style="stroke:#181818;stroke-width:1.0;" width="10" x="1938.5" y="625.6094"/><line style="stroke:#181818;stroke-width:0.5;stroke-dasharray:5.0,5.0;" x1="27" x2="27" y1="72.7266" y2="993.1016"/><line style="stroke:#181818;stroke-width:0.5;stroke-dasharray:5.0,5.0;" x1="292" x2="292" y1="72.7266" y2="993.1016"/><line style="stroke:#181818;stroke-width:0.5;stroke-dasharray:5.0,5.0;" x1="449" x2="449" y1="72.7266" y2="993.1016"/><line style="stroke:#181818;stroke-width:0.5;stroke-dasharray:5.0,5.0;" x1="585.5" x2="585.5" y1="72.7266" y2="993.1016"/><line style="stroke:#181818;stroke-width:0.5;stroke-dasharray:5.0,5.0;" x1="742.5" x2="742.5" y1="72.7266" y2="993.1016"/><line style="stroke:#181818;stroke-width:0.5;stroke-dasharray:5.0,5.0;" x1="904.5" x2="904.5" y1="72.7266" y2="993.1016"/><line style="stroke:#181818;stroke-width:0.5;stroke-dasharray:5.0,5.0;" x1="1114.5" x2="1114.5" y1="72.7266" y2="993.1016"/><line style="stroke:#181818;stroke-width:0.5;stroke-dasharray:5.0,5.0;" x1="1375.5" x2="1375.5" y1="840.7891" y2="993.1016"/><line style="stroke:#181818;stroke-width:0.5;stroke-dasharray:5.0,5.0;" x1="1536.5" x2="1536.5" y1="593.8281" y2="993.1016"/><line style="stroke:#181818;stroke-width:0.5;stroke-dasharray:5.0,5.0;" x1="1643.5" x2="1643.5" y1="479.1328" y2="993.1016"/><line style="stroke:#181818;stroke-width:0.5;stroke-dasharray:5.0,5.0;" x1="1791.5" x2="1791.5" y1="322.3047" y2="993.1016"/><line style="stroke:#181818;stroke-width:0.5;stroke-dasharray:5.0,5.0;" x1="1943.5" x2="1943.5" y1="72.7266" y2="993.1016"/><rect fill="#E2E2F0" height="30.2969" rx="2.5" ry="2.5" style="stroke:#181818;stroke-width:0.5;" width="45" x="5" y="41.4297"/><text fill="#000000" font-family="sans-serif" font-size="14" lengthAdjust="spacing" textLength="31" x="12" y="61.4248">User</text><rect fill="#E2E2F0" height="30.2969" rx="2.5" ry="2.5" style="stroke:#181818;stroke-width:0.5;" width="45" x="5" y="992.1016"/><text fill="#000000" font-family="sans-serif" font-size="14" lengthAdjust="spacing" textLength="31" x="12" y="1012.0967">User</text><rect fill="#E2E2F0" height="46.5938" rx="2.5" ry="2.5" style="stroke:#181818;stroke-width:0.5;" width="149" x="218" y="25.1328"/><text fill="#000000" font-family="sans-serif" font-size="14" lengthAdjust="spacing" textLength="106" x="237.5" y="45.1279">User Interface:</text><text fill="#000000" font-family="sans-serif" font-size="14" lengthAdjust="spacing" textLength="135" x="225" y="61.4248">RobDroneGo (SPA)</text><rect fill="#E2E2F0" height="46.5938" rx="2.5" ry="2.5" style="stroke:#181818;stroke-width:0.5;" width="149" x="218" y="992.1016"/><text fill="#000000" font-family="sans-serif" font-size="14" lengthAdjust="spacing" textLength="106" x="237.5" y="1012.0967">User Interface:</text><text fill="#000000" font-family="sans-serif" font-size="14" lengthAdjust="spacing" textLength="135" x="225" y="1028.3936">RobDroneGo (SPA)</text><rect fill="#E2E2F0" height="30.2969" rx="2.5" ry="2.5" style="stroke:#181818;stroke-width:0.5;" width="63" x="418" y="41.4297"/><text fill="#000000" font-family="sans-serif" font-size="14" lengthAdjust="spacing" textLength="49" x="425" y="61.4248">Router</text><rect fill="#E2E2F0" height="30.2969" rx="2.5" ry="2.5" style="stroke:#181818;stroke-width:0.5;" width="63" x="418" y="992.1016"/><text fill="#000000" font-family="sans-serif" font-size="14" lengthAdjust="spacing" textLength="49" x="425" y="1012.0967">Router</text><rect fill="#E2E2F0" height="30.2969" rx="2.5" ry="2.5" style="stroke:#181818;stroke-width:0.5;" width="120" x="525.5" y="41.4297"/><text fill="#000000" font-family="sans-serif" font-size="14" lengthAdjust="spacing" textLength="106" x="532.5" y="61.4248">TaskController</text><rect fill="#E2E2F0" height="30.2969" rx="2.5" ry="2.5" style="stroke:#181818;stroke-width:0.5;" width="120" x="525.5" y="992.1016"/><text fill="#000000" font-family="sans-serif" font-size="14" lengthAdjust="spacing" textLength="106" x="532.5" y="1012.0967">TaskController</text><rect fill="#E2E2F0" height="30.2969" rx="2.5" ry="2.5" style="stroke:#181818;stroke-width:0.5;" width="100" x="692.5" y="41.4297"/><text fill="#000000" font-family="sans-serif" font-size="14" lengthAdjust="spacing" textLength="86" x="699.5" y="61.4248">TaskService</text><rect fill="#E2E2F0" height="30.2969" rx="2.5" ry="2.5" style="stroke:#181818;stroke-width:0.5;" width="100" x="692.5" y="992.1016"/><text fill="#000000" font-family="sans-serif" font-size="14" lengthAdjust="spacing" textLength="86" x="699.5" y="1012.0967">TaskService</text><rect fill="#E2E2F0" height="30.2969" rx="2.5" ry="2.5" style="stroke:#181818;stroke-width:0.5;" width="126" x="841.5" y="41.4297"/><text fill="#000000" font-family="sans-serif" font-size="14" lengthAdjust="spacing" textLength="112" x="848.5" y="61.4248">TaskRepository</text><rect fill="#E2E2F0" height="30.2969" rx="2.5" ry="2.5" style="stroke:#181818;stroke-width:0.5;" width="126" x="841.5" y="992.1016"/><text fill="#000000" font-family="sans-serif" font-size="14" lengthAdjust="spacing" textLength="112" x="848.5" y="1012.0967">TaskRepository</text><rect fill="#E2E2F0" height="30.2969" rx="2.5" ry="2.5" style="stroke:#181818;stroke-width:0.5;" width="102" x="1063.5" y="41.4297"/><text fill="#000000" font-family="sans-serif" font-size="14" lengthAdjust="spacing" textLength="88" x="1070.5" y="61.4248">TaskMapper</text><rect fill="#E2E2F0" height="30.2969" rx="2.5" ry="2.5" style="stroke:#181818;stroke-width:0.5;" width="102" x="1063.5" y="992.1016"/><text fill="#000000" font-family="sans-serif" font-size="14" lengthAdjust="spacing" textLength="88" x="1070.5" y="1012.0967">TaskMapper</text><rect fill="#E2E2F0" height="30.2969" rx="2.5" ry="2.5" style="stroke:#181818;stroke-width:0.5;" width="197" x="1277.5" y="992.1016"/><text fill="#000000" font-family="sans-serif" font-size="14" lengthAdjust="spacing" textLength="183" x="1284.5" y="1012.0967">TaskCreateResponseDTO</text><rect fill="#E2E2F0" height="30.2969" rx="2.5" ry="2.5" style="stroke:#181818;stroke-width:0.5;" width="104" x="1484.5" y="992.1016"/><text fill="#000000" font-family="sans-serif" font-size="14" lengthAdjust="spacing" textLength="90" x="1491.5" y="1012.0967">TaskSchema</text><rect fill="#E2E2F0" height="30.2969" rx="2.5" ry="2.5" style="stroke:#181818;stroke-width:0.5;" width="90" x="1598.5" y="992.1016"/><text fill="#000000" font-family="sans-serif" font-size="14" lengthAdjust="spacing" textLength="76" x="1605.5" y="1012.0967">TaskModel</text><rect fill="#E2E2F0" height="30.2969" rx="2.5" ry="2.5" style="stroke:#181818;stroke-width:0.5;" width="186" x="1698.5" y="992.1016"/><text fill="#000000" font-family="sans-serif" font-size="14" lengthAdjust="spacing" textLength="172" x="1705.5" y="1012.0967">TaskCreateRequestDTO</text><rect fill="#E2E2F0" height="30.2969" rx="2.5" ry="2.5" style="stroke:#181818;stroke-width:0.5;" width="98" x="1894.5" y="41.4297"/><text fill="#000000" font-family="sans-serif" font-size="14" lengthAdjust="spacing" textLength="84" x="1901.5" y="61.4248">Persistence</text><rect fill="#E2E2F0" height="30.2969" rx="2.5" ry="2.5" style="stroke:#181818;stroke-width:0.5;" width="98" x="1894.5" y="992.1016"/><text fill="#000000" font-family="sans-serif" font-size="14" lengthAdjust="spacing" textLength="84" x="1901.5" y="1012.0967">Persistence</text><rect fill="#FFFFFF" height="901.375" style="stroke:#181818;stroke-width:1.0;" width="10" x="22.5" y="82.7266"/><rect fill="#FFFFFF" height="871.2422" style="stroke:#181818;stroke-width:1.0;" width="10" x="287.5" y="103.8594"/><rect fill="#FFFFFF" height="777.8438" style="stroke:#181818;stroke-width:1.0;" width="10" x="444.5" y="168.125"/><rect fill="#FFFFFF" height="689.3125" style="stroke:#181818;stroke-width:1.0;" width="10" x="580.5" y="212.3906"/><rect fill="#FFFFFF" height="503.3516" style="stroke:#181818;stroke-width:1.0;" width="10" x="737.5" y="369.2188"/><rect fill="#FFFFFF" height="246.9609" style="stroke:#181818;stroke-width:1.0;" width="10" x="899.5" y="526.0469"/><rect fill="#FFFFFF" height="29.1328" style="stroke:#181818;stroke-width:1.0;" width="10" x="1109.5" y="283.6563"/><rect fill="#FFFFFF" height="29.1328" style="stroke:#181818;stroke-width:1.0;" width="10" x="1109.5" y="440.4844"/><rect fill="#FFFFFF" height="29.1328" style="stroke:#181818;stroke-width:1.0;" width="10" x="1109.5" y="555.1797"/><rect fill="#FFFFFF" height="59.1328" style="stroke:#181818;stroke-width:1.0;" width="10" x="1109.5" y="684.7422"/><rect fill="#FFFFFF" height="29.1328" style="stroke:#181818;stroke-width:1.0;" width="10" x="1109.5" y="802.1406"/><rect fill="#FFFFFF" height="30" style="stroke:#181818;stroke-width:1.0;" width="10" x="1638.5" y="713.875"/><rect fill="#FFFFFF" height="30" style="stroke:#181818;stroke-width:1.0;" width="10" x="1938.5" y="625.6094"/><polygon fill="#181818" points="275.5,99.8594,285.5,103.8594,275.5,107.8594,279.5,103.8594" style="stroke:#181818;stroke-width:1.0;"/><line style="stroke:#181818;stroke-width:1.0;" x1="32.5" x2="281.5" y1="103.8594" y2="103.8594"/><text fill="#000000" font-family="sans-serif" font-size="13" lengthAdjust="spacing" textLength="115" x="39.5" y="98.7935">Request new task</text><path d="M176,116.8594 L176,141.8594 L409,141.8594 L409,126.8594 L399,116.8594 L176,116.8594 " fill="#FEFFDD" style="stroke:#181818;stroke-width:0.5;"/><path d="M399,116.8594 L399,126.8594 L409,126.8594 L399,116.8594 " fill="#FEFFDD" style="stroke:#181818;stroke-width:0.5;"/><text fill="#000000" font-family="sans-serif" font-size="13" lengthAdjust="spacing" textLength="212" x="182" y="133.9263">See SD_US460_RequireTask_SPA</text><polygon fill="#181818" points="432.5,164.125,442.5,168.125,432.5,172.125,436.5,168.125" style="stroke:#181818;stroke-width:1.0;"/><line style="stroke:#181818;stroke-width:1.0;" x1="297.5" x2="438.5" y1="168.125" y2="168.125"/><text fill="#000000" font-family="sans-serif" font-size="13" lengthAdjust="spacing" textLength="112" x="304.5" y="163.0591">POST /Task (json)</text><polygon fill="#181818" points="568.5,208.3906,578.5,212.3906,568.5,216.3906,572.5,212.3906" style="stroke:#181818;stroke-width:1.0;"/><line style="stroke:#181818;stroke-width:1.0;" x1="454.5" x2="574.5" y1="212.3906" y2="212.3906"/><text fill="#000000" font-family="sans-serif" font-size="13" lengthAdjust="spacing" textLength="91" x="461.5" y="192.1919">requestDTO =</text><text fill="#000000" font-family="sans-serif" font-size="13" lengthAdjust="spacing" textLength="107" x="461.5" y="207.3247">createTask(json)</text><line style="stroke:#181818;stroke-width:1.0;" x1="590.5" x2="632.5" y1="241.5234" y2="241.5234"/><line style="stroke:#181818;stroke-width:1.0;" x1="632.5" x2="632.5" y1="241.5234" y2="254.5234"/><line style="stroke:#181818;stroke-width:1.0;" x1="591.5" x2="632.5" y1="254.5234" y2="254.5234"/><polygon fill="#181818" points="601.5,250.5234,591.5,254.5234,601.5,258.5234,597.5,254.5234" style="stroke:#181818;stroke-width:1.0;"/><text fill="#000000" font-family="sans-serif" font-size="13" lengthAdjust="spacing" textLength="87" x="597.5" y="236.4575">validate(json)</text><polygon fill="#181818" points="1097.5,279.6563,1107.5,283.6563,1097.5,287.6563,1101.5,283.6563" style="stroke:#181818;stroke-width:1.0;"/><line style="stroke:#181818;stroke-width:1.0;" x1="590.5" x2="1103.5" y1="283.6563" y2="283.6563"/><text fill="#000000" font-family="sans-serif" font-size="13" lengthAdjust="spacing" textLength="217" x="597.5" y="278.5903">requestDTO = createCreateDTO()</text><polygon fill="#181818" points="1686.5,308.7891,1696.5,312.7891,1686.5,316.7891,1690.5,312.7891" style="stroke:#181818;stroke-width:1.0;"/><line style="stroke:#181818;stroke-width:1.0;" x1="1114.5" x2="1692.5" y1="312.7891" y2="312.7891"/><text fill="#000000" font-family="sans-serif" font-size="13" lengthAdjust="spacing" textLength="129" x="1121.5" y="307.7231">requestDTO: &#171;new&#187;</text><rect fill="#E2E2F0" height="30.2969" rx="2.5" ry="2.5" style="stroke:#181818;stroke-width:0.5;" width="186" x="1698.5" y="291.6563"/><text fill="#000000" font-family="sans-serif" font-size="14" lengthAdjust="spacing" textLength="172" x="1705.5" y="311.6514">TaskCreateRequestDTO</text><polygon fill="#181818" points="725.5,365.2188,735.5,369.2188,725.5,373.2188,729.5,369.2188" style="stroke:#181818;stroke-width:1.0;"/><line style="stroke:#181818;stroke-width:1.0;" x1="590.5" x2="731.5" y1="369.2188" y2="369.2188"/><text fill="#000000" font-family="sans-serif" font-size="13" lengthAdjust="spacing" textLength="101" x="597.5" y="349.02">responseDTO =</text><text fill="#000000" font-family="sans-serif" font-size="13" lengthAdjust="spacing" textLength="128" x="597.5" y="364.1528">create(requestDTO)</text><line style="stroke:#181818;stroke-width:1.0;" x1="747.5" x2="789.5" y1="398.3516" y2="398.3516"/><line style="stroke:#181818;stroke-width:1.0;" x1="789.5" x2="789.5" y1="398.3516" y2="411.3516"/><line style="stroke:#181818;stroke-width:1.0;" x1="748.5" x2="789.5" y1="411.3516" y2="411.3516"/><polygon fill="#181818" points="758.5,407.3516,748.5,411.3516,758.5,415.3516,754.5,411.3516" style="stroke:#181818;stroke-width:1.0;"/><text fill="#000000" font-family="sans-serif" font-size="13" lengthAdjust="spacing" textLength="138" x="754.5" y="393.2856">validate(requestDTO)</text><polygon fill="#181818" points="1097.5,436.4844,1107.5,440.4844,1097.5,444.4844,1101.5,440.4844" style="stroke:#181818;stroke-width:1.0;"/><line style="stroke:#181818;stroke-width:1.0;" x1="747.5" x2="1103.5" y1="440.4844" y2="440.4844"/><text fill="#000000" font-family="sans-serif" font-size="13" lengthAdjust="spacing" textLength="182" x="754.5" y="435.4185">task = toModel(requestDTO)</text><polygon fill="#181818" points="1586.5,465.6172,1596.5,469.6172,1586.5,473.6172,1590.5,469.6172" style="stroke:#181818;stroke-width:1.0;"/><line style="stroke:#181818;stroke-width:1.0;" x1="1114.5" x2="1592.5" y1="469.6172" y2="469.6172"/><text fill="#000000" font-family="sans-serif" font-size="13" lengthAdjust="spacing" textLength="79" x="1121.5" y="464.5513">task: &#171;new&#187;</text><rect fill="#E2E2F0" height="30.2969" rx="2.5" ry="2.5" style="stroke:#181818;stroke-width:0.5;" width="90" x="1598.5" y="448.4844"/><text fill="#000000" font-family="sans-serif" font-size="14" lengthAdjust="spacing" textLength="76" x="1605.5" y="468.4795">TaskModel</text><polygon fill="#181818" points="887.5,522.0469,897.5,526.0469,887.5,530.0469,891.5,526.0469" style="stroke:#181818;stroke-width:1.0;"/><line style="stroke:#181818;stroke-width:1.0;" x1="747.5" x2="893.5" y1="526.0469" y2="526.0469"/><text fill="#000000" font-family="sans-serif" font-size="13" lengthAdjust="spacing" textLength="51" x="754.5" y="505.8481">entity =</text><text fill="#000000" font-family="sans-serif" font-size="13" lengthAdjust="spacing" textLength="68" x="754.5" y="520.981">save(task)</text><polygon fill="#181818" points="1097.5,551.1797,1107.5,555.1797,1097.5,559.1797,1101.5,555.1797" style="stroke:#181818;stroke-width:1.0;"/><line style="stroke:#181818;stroke-width:1.0;" x1="909.5" x2="1103.5" y1="555.1797" y2="555.1797"/><text fill="#000000" font-family="sans-serif" font-size="13" lengthAdjust="spacing" textLength="181" x="916.5" y="550.1138">schema = toSchema(entity)</text><polygon fill="#181818" points="1472.5,580.3125,1482.5,584.3125,1472.5,588.3125,1476.5,584.3125" style="stroke:#181818;stroke-width:1.0;"/><line style="stroke:#181818;stroke-width:1.0;" x1="1114.5" x2="1478.5" y1="584.3125" y2="584.3125"/><text fill="#000000" font-family="sans-serif" font-size="13" lengthAdjust="spacing" textLength="103" x="1121.5" y="579.2466">schema: &#171;new&#187;</text><rect fill="#E2E2F0" height="30.2969" rx="2.5" ry="2.5" style="stroke:#181818;stroke-width:0.5;" width="104" x="1484.5" y="563.1797"/><text fill="#000000" font-family="sans-serif" font-size="14" lengthAdjust="spacing" textLength="90" x="1491.5" y="583.1748">TaskSchema</text><polygon fill="#181818" points="1926.5,621.6094,1936.5,625.6094,1926.5,629.6094,1930.5,625.6094" style="stroke:#181818;stroke-width:1.0;"/><line style="stroke:#181818;stroke-width:1.0;" x1="909.5" x2="1932.5" y1="625.6094" y2="625.6094"/><text fill="#000000" font-family="sans-serif" font-size="13" lengthAdjust="spacing" textLength="104" x="916.5" y="620.5435">persist(schema)</text><polygon fill="#181818" points="1097.5,680.7422,1107.5,684.7422,1097.5,688.7422,1101.5,684.7422" style="stroke:#181818;stroke-width:1.0;"/><line style="stroke:#181818;stroke-width:1.0;" x1="909.5" x2="1103.5" y1="684.7422" y2="684.7422"/><text fill="#000000" font-family="sans-serif" font-size="13" lengthAdjust="spacing" textLength="166" x="916.5" y="679.6763">entity = toModel(schema)</text><polygon fill="#181818" points="1626.5,709.875,1636.5,713.875,1626.5,717.875,1630.5,713.875" style="stroke:#181818;stroke-width:1.0;"/><line style="stroke:#181818;stroke-width:1.0;" x1="1119.5" x2="1632.5" y1="713.875" y2="713.875"/><text fill="#000000" font-family="sans-serif" font-size="13" lengthAdjust="spacing" textLength="89" x="1126.5" y="708.8091">entity: &#171;new&#187;</text><polygon fill="#181818" points="758.5,769.0078,748.5,773.0078,758.5,777.0078,754.5,773.0078" style="stroke:#181818;stroke-width:1.0;"/><line style="stroke:#181818;stroke-width:1.0;stroke-dasharray:2.0,2.0;" x1="752.5" x2="903.5" y1="773.0078" y2="773.0078"/><text fill="#000000" font-family="sans-serif" font-size="13" lengthAdjust="spacing" textLength="37" x="764.5" y="767.9419">entity</text><polygon fill="#181818" points="1097.5,798.1406,1107.5,802.1406,1097.5,806.1406,1101.5,802.1406" style="stroke:#181818;stroke-width:1.0;"/><line style="stroke:#181818;stroke-width:1.0;" x1="747.5" x2="1103.5" y1="802.1406" y2="802.1406"/><text fill="#000000" font-family="sans-serif" font-size="13" lengthAdjust="spacing" textLength="284" x="754.5" y="797.0747">responseDTO = createResponseDTO(entity)</text><polygon fill="#181818" points="1265.5,827.2734,1275.5,831.2734,1265.5,835.2734,1269.5,831.2734" style="stroke:#181818;stroke-width:1.0;"/><line style="stroke:#181818;stroke-width:1.0;" x1="1114.5" x2="1271.5" y1="831.2734" y2="831.2734"/><text fill="#000000" font-family="sans-serif" font-size="13" lengthAdjust="spacing" textLength="134" x="1121.5" y="826.2075">responseDTO &#171;new&#187;</text><rect fill="#E2E2F0" height="30.2969" rx="2.5" ry="2.5" style="stroke:#181818;stroke-width:0.5;" width="197" x="1277.5" y="810.1406"/><text fill="#000000" font-family="sans-serif" font-size="14" lengthAdjust="spacing" textLength="183" x="1284.5" y="830.1357">TaskCreateResponseDTO</text><polygon fill="#181818" points="601.5,868.5703,591.5,872.5703,601.5,876.5703,597.5,872.5703" style="stroke:#181818;stroke-width:1.0;"/><line style="stroke:#181818;stroke-width:1.0;stroke-dasharray:2.0,2.0;" x1="595.5" x2="741.5" y1="872.5703" y2="872.5703"/><text fill="#000000" font-family="sans-serif" font-size="13" lengthAdjust="spacing" textLength="87" x="607.5" y="867.5044">responseDTO</text><polygon fill="#181818" points="465.5,897.7031,455.5,901.7031,465.5,905.7031,461.5,901.7031" style="stroke:#181818;stroke-width:1.0;"/><line style="stroke:#181818;stroke-width:1.0;stroke-dasharray:2.0,2.0;" x1="459.5" x2="584.5" y1="901.7031" y2="901.7031"/><text fill="#000000" font-family="sans-serif" font-size="13" lengthAdjust="spacing" textLength="87" x="471.5" y="896.6372">responseDTO</text><polygon fill="#181818" points="308.5,941.9688,298.5,945.9688,308.5,949.9688,304.5,945.9688" style="stroke:#181818;stroke-width:1.0;"/><line style="stroke:#181818;stroke-width:1.0;stroke-dasharray:2.0,2.0;" x1="302.5" x2="448.5" y1="945.9688" y2="945.9688"/><text fill="#000000" font-family="sans-serif" font-size="13" lengthAdjust="spacing" textLength="83" x="314.5" y="925.77">HTTP 200 OK</text><text fill="#000000" font-family="sans-serif" font-size="13" lengthAdjust="spacing" textLength="123" x="314.5" y="940.9028">json(responseDTO)</text><polygon fill="#181818" points="43.5,971.1016,33.5,975.1016,43.5,979.1016,39.5,975.1016" style="stroke:#181818;stroke-width:1.0;"/><line style="stroke:#181818;stroke-width:1.0;stroke-dasharray:2.0,2.0;" x1="37.5" x2="291.5" y1="975.1016" y2="975.1016"/><text fill="#000000" font-family="sans-serif" font-size="13" lengthAdjust="spacing" textLength="231" x="49.5" y="970.0356">Shows to user the new task request</text><!--SRC=[ZLHDZzCm4BtxLupA9JqWAeGuH4ibeD9ImMghfhrLghpfi0rqxM2xNVRVOsUSPF9Hu1J7ddblFjvCAOqhygAKoi5aQz5CG5e81_6WVyDahHyMHYkyrVjizN42hxuLZqUNeRmrY4gKVNTOAeVckymnXPrglI7nxbC2NmfK1_3m0ugDj3_lf9AFJwXSJVRfTCOkqLgVNOoKZjtdWF9PAsVqwHJDsj-XQORcKkHOsSNpq6YDfRQ5q-Q5Q9lVeUcTBCj8IyUHw0nAXskqfLOM5vjx2h9_En9hViGdIQ5Mnn5wVS0JiOVJTV9VPxIkprrVTjrMQ6nX7QfO9lRVz5B8t1KN3qBggSJmUkwxdKA41ONFu7m4p7GfbFPVVV7MmJH3X6ontsRlti_smQym688EwXFRPK2abgUmkiysy2OyGlB3QZKLB8Qe2q7VuDPA80NJv0aVTYglSWz04QT1OR8HxRcFTf6duk3DetVNa2JGfGHYf9hxcuHHHicGnR0jWjwh47fld2E5cnjVxVbS7B0FtGimIZvuDy9hgvAqc2p8Uan4F7Hmcd9mLsPOLoGemTV2wKgduqJTQf2WMGcg2qBwQyQClPtS5FoIATnBIDRA2oO1Xd6p6HVjcMTWgn6iSg1fJ0ZnQW9nPba6T5D3ZINH9sUpbq99FmcvCru-eQmW_FfAKdLHciOCiEkg3lf0hcqIhKVLEDwOmKN4v35nKH4qz-3j6L5NHyrnuDXg_LUdXhjuE7ZDMvVjVtGus4Sj3tDhnenFBDk0LzpOrghNNrp4NpQR5RoTpU3-wqw5RPKmY6cdkhG_myODlZRGPKVzRBqiu1nskpjYiz3hpSCHjii_]--></g></svg>