<?xml version="1.0" encoding="us-ascii" standalone="no"?><svg xmlns="http://www.w3.org/2000/svg" xmlns:xlink="http://www.w3.org/1999/xlink" contentStyleType="text/css" height="396.6px" preserveAspectRatio="none" style="width:847px;height:396px;background:#FFFFFF;" version="1.1" viewBox="0 0 847 396" width="847.2px" zoomAndPan="magnify"><defs/><g><rect fill="#FFFFFF" height="334.343" style="stroke:#181818;stroke-width:0.6;" width="6" x="39.6" y="29.1727"/><rect fill="#FFFFFF" height="165.9715" style="stroke:#181818;stroke-width:0.6;" width="6" x="167.4" y="43.1473"/><rect fill="#FFFFFF" height="128.4223" style="stroke:#181818;stroke-width:0.6;" width="6" x="324" y="61.9219"/><rect fill="#FFFFFF" height="90.873" style="stroke:#181818;stroke-width:0.6;" width="6" x="483" y="80.6965"/><rect fill="#FFFFFF" height="93.873" style="stroke:#181818;stroke-width:0.6;" width="6" x="483" y="232.0934"/><rect fill="#FFFFFF" height="37.5492" style="stroke:#181818;stroke-width:0.6;" width="6" x="589.8" y="99.4711"/><rect fill="#FFFFFF" height="37.5492" style="stroke:#181818;stroke-width:0.6;" width="6" x="671.4" y="232.0934"/><rect fill="#FFFFFF" height="18.7746" style="stroke:#181818;stroke-width:0.6;" width="6" x="747" y="288.4172"/><rect fill="none" height="67.8984" style="stroke:#000000;stroke-width:0.8999999999999999;" width="519.3" x="6" y="146.0203"/><line style="stroke:#181818;stroke-width:0.3;stroke-dasharray:5.0,5.0;" x1="42.6" x2="42.6" y1="23.1727" y2="374.3156"/><line style="stroke:#181818;stroke-width:0.3;stroke-dasharray:5.0,5.0;" x1="170.1" x2="170.1" y1="23.1727" y2="374.3156"/><line style="stroke:#181818;stroke-width:0.3;stroke-dasharray:5.0,5.0;" x1="327" x2="327" y1="23.1727" y2="374.3156"/><line style="stroke:#181818;stroke-width:0.3;stroke-dasharray:5.0,5.0;" x1="485.7" x2="485.7" y1="23.1727" y2="374.3156"/><line style="stroke:#181818;stroke-width:0.3;stroke-dasharray:5.0,5.0;" x1="592.5" x2="592.5" y1="23.1727" y2="374.3156"/><line style="stroke:#181818;stroke-width:0.3;stroke-dasharray:5.0,5.0;" x1="674.1" x2="674.1" y1="23.1727" y2="374.3156"/><line style="stroke:#181818;stroke-width:0.3;stroke-dasharray:5.0,5.0;" x1="749.7" x2="749.7" y1="23.1727" y2="374.3156"/><line style="stroke:#181818;stroke-width:0.3;stroke-dasharray:5.0,5.0;" x1="817.5" x2="817.5" y1="23.1727" y2="374.3156"/><rect fill="#E2E2F0" height="19.5727" rx="1.5" ry="1.5" style="stroke:#181818;stroke-width:0.3;" width="61.2" x="12" y="3"/><text fill="#000000" font-family="sans-serif" font-size="8.4" lengthAdjust="spacing" textLength="52.8" x="16.2" y="16.2645">User Interface</text><rect fill="#E2E2F0" height="19.5727" rx="1.5" ry="1.5" style="stroke:#181818;stroke-width:0.3;" width="61.2" x="12" y="373.7156"/><text fill="#000000" font-family="sans-serif" font-size="8.4" lengthAdjust="spacing" textLength="52.8" x="16.2" y="386.9801">User Interface</text><rect fill="#E2E2F0" height="19.5727" rx="1.5" ry="1.5" style="stroke:#181818;stroke-width:0.3;" width="34.2" x="153.3" y="3"/><text fill="#000000" font-family="sans-serif" font-size="8.4" lengthAdjust="spacing" textLength="25.8" x="157.5" y="16.2645">Router</text><rect fill="#E2E2F0" height="19.5727" rx="1.5" ry="1.5" style="stroke:#181818;stroke-width:0.3;" width="34.2" x="153.3" y="373.7156"/><text fill="#000000" font-family="sans-serif" font-size="8.4" lengthAdjust="spacing" textLength="25.8" x="157.5" y="386.9801">Router</text><rect fill="#E2E2F0" height="19.5727" rx="1.5" ry="1.5" style="stroke:#181818;stroke-width:0.3;" width="75.6" x="289.2" y="3"/><text fill="#000000" font-family="sans-serif" font-size="8.4" lengthAdjust="spacing" textLength="67.2" x="293.4" y="16.2645">BuildingController</text><rect fill="#E2E2F0" height="19.5727" rx="1.5" ry="1.5" style="stroke:#181818;stroke-width:0.3;" width="75.6" x="289.2" y="373.7156"/><text fill="#000000" font-family="sans-serif" font-size="8.4" lengthAdjust="spacing" textLength="67.2" x="293.4" y="386.9801">BuildingController</text><rect fill="#E2E2F0" height="19.5727" rx="1.5" ry="1.5" style="stroke:#181818;stroke-width:0.3;" width="66.6" x="452.7" y="3"/><text fill="#000000" font-family="sans-serif" font-size="8.4" lengthAdjust="spacing" textLength="58.2" x="456.9" y="16.2645">BuildingService</text><rect fill="#E2E2F0" height="19.5727" rx="1.5" ry="1.5" style="stroke:#181818;stroke-width:0.3;" width="66.6" x="452.7" y="373.7156"/><text fill="#000000" font-family="sans-serif" font-size="8.4" lengthAdjust="spacing" textLength="58.2" x="456.9" y="386.9801">BuildingService</text><rect fill="#E2E2F0" height="19.5727" rx="1.5" ry="1.5" style="stroke:#181818;stroke-width:0.3;" width="82.2" x="551.7" y="3"/><text fill="#000000" font-family="sans-serif" font-size="8.4" lengthAdjust="spacing" textLength="73.8" x="555.9" y="16.2645">PassageRepository</text><rect fill="#E2E2F0" height="19.5727" rx="1.5" ry="1.5" style="stroke:#181818;stroke-width:0.3;" width="82.2" x="551.7" y="373.7156"/><text fill="#000000" font-family="sans-serif" font-size="8.4" lengthAdjust="spacing" textLength="73.8" x="555.9" y="386.9801">PassageRepository</text><rect fill="#E2E2F0" height="19.5727" rx="1.5" ry="1.5" style="stroke:#181818;stroke-width:0.3;" width="69" x="639.9" y="3"/><text fill="#000000" font-family="sans-serif" font-size="8.4" lengthAdjust="spacing" textLength="60.6" x="644.1" y="16.2645">FloorRepository</text><rect fill="#E2E2F0" height="19.5727" rx="1.5" ry="1.5" style="stroke:#181818;stroke-width:0.3;" width="69" x="639.9" y="373.7156"/><text fill="#000000" font-family="sans-serif" font-size="8.4" lengthAdjust="spacing" textLength="60.6" x="644.1" y="386.9801">FloorRepository</text><rect fill="#E2E2F0" height="19.5727" rx="1.5" ry="1.5" style="stroke:#181818;stroke-width:0.3;" width="70.2" x="714.9" y="3"/><text fill="#000000" font-family="sans-serif" font-size="8.4" lengthAdjust="spacing" textLength="61.8" x="719.1" y="16.2645">PassageMapper</text><rect fill="#E2E2F0" height="19.5727" rx="1.5" ry="1.5" style="stroke:#181818;stroke-width:0.3;" width="70.2" x="714.9" y="373.7156"/><text fill="#000000" font-family="sans-serif" font-size="8.4" lengthAdjust="spacing" textLength="61.8" x="719.1" y="386.9801">PassageMapper</text><rect fill="#E2E2F0" height="19.5727" rx="1.5" ry="1.5" style="stroke:#181818;stroke-width:0.3;" width="52.8" x="791.1" y="3"/><text fill="#000000" font-family="sans-serif" font-size="8.4" lengthAdjust="spacing" textLength="44.4" x="795.3" y="16.2645">Persistence</text><rect fill="#E2E2F0" height="19.5727" rx="1.5" ry="1.5" style="stroke:#181818;stroke-width:0.3;" width="52.8" x="791.1" y="373.7156"/><text fill="#000000" font-family="sans-serif" font-size="8.4" lengthAdjust="spacing" textLength="44.4" x="795.3" y="386.9801">Persistence</text><rect fill="#FFFFFF" height="334.343" style="stroke:#181818;stroke-width:0.6;" width="6" x="39.6" y="29.1727"/><rect fill="#FFFFFF" height="165.9715" style="stroke:#181818;stroke-width:0.6;" width="6" x="167.4" y="43.1473"/><rect fill="#FFFFFF" height="128.4223" style="stroke:#181818;stroke-width:0.6;" width="6" x="324" y="61.9219"/><rect fill="#FFFFFF" height="90.873" style="stroke:#181818;stroke-width:0.6;" width="6" x="483" y="80.6965"/><rect fill="#FFFFFF" height="93.873" style="stroke:#181818;stroke-width:0.6;" width="6" x="483" y="232.0934"/><rect fill="#FFFFFF" height="37.5492" style="stroke:#181818;stroke-width:0.6;" width="6" x="589.8" y="99.4711"/><rect fill="#FFFFFF" height="37.5492" style="stroke:#181818;stroke-width:0.6;" width="6" x="671.4" y="232.0934"/><rect fill="#FFFFFF" height="18.7746" style="stroke:#181818;stroke-width:0.6;" width="6" x="747" y="288.4172"/><polygon fill="#181818" points="160.2,40.7473,166.2,43.1473,160.2,45.5473,162.6,43.1473" style="stroke:#181818;stroke-width:0.6;"/><line style="stroke:#181818;stroke-width:0.6;" x1="45.6" x2="163.8" y1="43.1473" y2="43.1473"/><text fill="#000000" font-family="sans-serif" font-size="7.8" lengthAdjust="spacing" textLength="110.4" x="49.8" y="39.9896">GET /api/buildings/:id/passages</text><polygon fill="#181818" points="316.8,59.5219,322.8,61.9219,316.8,64.3219,319.2,61.9219" style="stroke:#181818;stroke-width:0.6;"/><line style="stroke:#181818;stroke-width:0.6;" x1="173.4" x2="320.4" y1="61.9219" y2="61.9219"/><text fill="#000000" font-family="sans-serif" font-size="7.8" lengthAdjust="spacing" textLength="139.2" x="177.6" y="58.7643">ctrl.getPassagesByBuildingId(buildingId)</text><polygon fill="#181818" points="475.8,78.2965,481.8,80.6965,475.8,83.0965,478.2,80.6965" style="stroke:#181818;stroke-width:0.6;"/><line style="stroke:#181818;stroke-width:0.6;" x1="330" x2="479.4" y1="80.6965" y2="80.6965"/><text fill="#000000" font-family="sans-serif" font-size="7.8" lengthAdjust="spacing" textLength="141.6" x="334.2" y="77.5389">response = getPassageFloors(buildingId)</text><polygon fill="#181818" points="582.6,97.0711,588.6,99.4711,582.6,101.8711,585,99.4711" style="stroke:#181818;stroke-width:0.6;"/><line style="stroke:#181818;stroke-width:0.6;" x1="489" x2="586.2" y1="99.4711" y2="99.4711"/><text fill="#000000" font-family="sans-serif" font-size="7.8" lengthAdjust="spacing" textLength="86.4" x="493.2" y="96.3135">findByBuilding(buildingId)</text><polygon fill="#181818" points="810.3,115.8457,816.3,118.2457,810.3,120.6457,812.7,118.2457" style="stroke:#181818;stroke-width:0.6;"/><line style="stroke:#181818;stroke-width:0.6;" x1="595.8" x2="813.9" y1="118.2457" y2="118.2457"/><text fill="#000000" font-family="sans-serif" font-size="7.8" lengthAdjust="spacing" textLength="16.8" x="600" y="115.0881">find()</text><polygon fill="#181818" points="495.6,134.6203,489.6,137.0203,495.6,139.4203,493.2,137.0203" style="stroke:#181818;stroke-width:0.6;"/><line style="stroke:#181818;stroke-width:0.6;" x1="492" x2="592.2" y1="137.0203" y2="137.0203"/><text fill="#000000" font-family="sans-serif" font-size="7.8" lengthAdjust="spacing" textLength="86.4" x="499.2" y="133.8627">buildinFloors: Passage []</text><path d="M6,146.0203 L42.6,146.0203 L42.6,151.5949 L36.6,157.5949 L6,157.5949 L6,146.0203 " fill="#EEEEEE" style="stroke:#000000;stroke-width:0.8999999999999999;"/><rect fill="none" height="67.8984" style="stroke:#000000;stroke-width:0.8999999999999999;" width="519.3" x="6" y="146.0203"/><text fill="#000000" font-family="sans-serif" font-size="7.8" font-weight="bold" lengthAdjust="spacing" textLength="9.6" x="15" y="155.0373">alt</text><text fill="#000000" font-family="sans-serif" font-size="6.6" font-weight="bold" lengthAdjust="spacing" textLength="36.6" x="51.6" y="154.3424">[not found]</text><polygon fill="#181818" points="336.6,169.1695,330.6,171.5695,336.6,173.9695,334.2,171.5695" style="stroke:#181818;stroke-width:0.6;"/><line style="stroke:#181818;stroke-width:0.6;" x1="333" x2="485.4" y1="171.5695" y2="171.5695"/><text fill="#000000" font-family="sans-serif" font-size="7.8" lengthAdjust="spacing" textLength="52.2" x="340.2" y="168.4119">res.status(404)</text><polygon fill="#181818" points="180,187.9441,174,190.3441,180,192.7441,177.6,190.3441" style="stroke:#181818;stroke-width:0.6;"/><line style="stroke:#181818;stroke-width:0.6;" x1="176.4" x2="326.4" y1="190.3441" y2="190.3441"/><text fill="#000000" font-family="sans-serif" font-size="7.8" lengthAdjust="spacing" textLength="52.2" x="183.6" y="187.1865">res.status(404)</text><polygon fill="#181818" points="52.2,206.7188,46.2,209.1188,52.2,211.5187,49.8,209.1188" style="stroke:#181818;stroke-width:0.6;"/><line style="stroke:#181818;stroke-width:0.6;" x1="48.6" x2="169.8" y1="209.1188" y2="209.1188"/><text fill="#000000" font-family="sans-serif" font-size="7.8" lengthAdjust="spacing" textLength="76.8" x="55.8" y="205.9611">status 404 (Not found)</text><polygon fill="#181818" points="664.2,229.6934,670.2,232.0934,664.2,234.4934,666.6,232.0934" style="stroke:#181818;stroke-width:0.6;"/><line style="stroke:#181818;stroke-width:0.6;" x1="489" x2="667.8" y1="232.0934" y2="232.0934"/><text fill="#000000" font-family="sans-serif" font-size="7.8" lengthAdjust="spacing" textLength="76.8" x="493.2" y="228.9357">floorsData = findById()</text><polygon fill="#181818" points="810.3,248.468,816.3,250.868,810.3,253.268,812.7,250.868" style="stroke:#181818;stroke-width:0.6;"/><line style="stroke:#181818;stroke-width:0.6;" x1="677.4" x2="813.9" y1="250.868" y2="250.868"/><text fill="#000000" font-family="sans-serif" font-size="7.8" lengthAdjust="spacing" textLength="31.2" x="681.6" y="247.7104">findOne()</text><polygon fill="#181818" points="495.6,267.2426,489.6,269.6426,495.6,272.0426,493.2,269.6426" style="stroke:#181818;stroke-width:0.6;"/><line style="stroke:#181818;stroke-width:0.6;stroke-dasharray:2.0,2.0;" x1="492" x2="673.8" y1="269.6426" y2="269.6426"/><text fill="#000000" font-family="sans-serif" font-size="7.8" lengthAdjust="spacing" textLength="18.6" x="499.2" y="266.485">floors</text><polygon fill="#181818" points="739.8,286.0172,745.8,288.4172,739.8,290.8172,742.2,288.4172" style="stroke:#181818;stroke-width:0.6;"/><line style="stroke:#181818;stroke-width:0.6;" x1="489" x2="743.4" y1="288.4172" y2="288.4172"/><text fill="#000000" font-family="sans-serif" font-size="7.8" lengthAdjust="spacing" textLength="160.8" x="493.2" y="285.2596">toFloorPassageRequestDTO(passages, floors)</text><polygon fill="#181818" points="495.6,304.7918,489.6,307.1918,495.6,309.5918,493.2,307.1918" style="stroke:#181818;stroke-width:0.6;"/><line style="stroke:#181818;stroke-width:0.6;" x1="492" x2="749.4" y1="307.1918" y2="307.1918"/><text fill="#000000" font-family="sans-serif" font-size="7.8" lengthAdjust="spacing" textLength="57" x="499.2" y="304.0342">floorPassageDto</text><polygon fill="#181818" points="333.6,323.5664,327.6,325.9664,333.6,328.3664,331.2,325.9664" style="stroke:#181818;stroke-width:0.6;"/><line style="stroke:#181818;stroke-width:0.6;stroke-dasharray:2.0,2.0;" x1="330" x2="485.4" y1="325.9664" y2="325.9664"/><text fill="#000000" font-family="sans-serif" font-size="7.8" lengthAdjust="spacing" textLength="57" x="337.2" y="322.8088">floorPassageDto</text><polygon fill="#181818" points="177,342.341,171,344.741,177,347.141,174.6,344.741" style="stroke:#181818;stroke-width:0.6;"/><line style="stroke:#181818;stroke-width:0.6;stroke-dasharray:2.0,2.0;" x1="173.4" x2="326.4" y1="344.741" y2="344.741"/><text fill="#000000" font-family="sans-serif" font-size="7.8" lengthAdjust="spacing" textLength="57" x="180.6" y="341.5834">floorPassageDto</text><polygon fill="#181818" points="49.2,361.1156,43.2,363.5156,49.2,365.9156,46.8,363.5156" style="stroke:#181818;stroke-width:0.6;"/><line style="stroke:#181818;stroke-width:0.6;stroke-dasharray:2.0,2.0;" x1="45.6" x2="169.8" y1="363.5156" y2="363.5156"/><text fill="#000000" font-family="sans-serif" font-size="7.8" lengthAdjust="spacing" textLength="73.8" x="52.8" y="360.358">HTTP 200 OK (floors)</text><!--SRC=[XLFBJiCm4BpdArOzfHBG2d6o18TI7X62LgKz8GwcSIjBaMti3LB_dYJUr4uJoiclsTdnZ6suHRcLXYk4qSO92vb2ONTyAqR07MoonCIGbIwhu-R8Jxl7ir8MkLJxUwtGwg8WQ5WEmz-5_P7KaUP95xdapl6zM0cZdKHj3mssjzijUYoqjYSbVs69wfKRGwBzz0Gbh9CEXIAnqJf9-1Rb3qTHcxR9uFAEB6BmzB262JToyaKNTXCcyudnFLse94_zK3C4vnXiqHPNUu4arSqEhNzPdduTf-D05_cUX7dDIoupiC8PhPo0MmZKZN5kcBFDXyQQh1S3WvrKUT0tpDHFhxVJi0UFmHEdus7ayLBKpb-3jOtWupF9nPdsl41G6c6dIvN75unJg0oxSiYnTEdDz6OSCxRMTArk7y6PmYYd47trX9Z7GuM7zArLrYcb5oEwWYDVAiiQ6-OSUHMo3oQhFUpf3gJ1a_-oM2XHKSMeE0ZVkgCtK4Tw_LzZWBh9x1ZDToaSpjUBjFqg5qGPgQT_wWVeTIUkEUfO1XKT9Po4VAPoAEGevJEL0oatCJDuNg-NS3sTmk85qlQ2_P2ZdKts2m00]--></g></svg>