<?xml version="1.0" encoding="us-ascii" standalone="no"?><svg xmlns="http://www.w3.org/2000/svg" xmlns:xlink="http://www.w3.org/1999/xlink" contentStyleType="text/css" height="1521px" preserveAspectRatio="none" style="width:1695px;height:1521px;background:#FFFFFF;" version="1.1" viewBox="0 0 1695 1521" width="1695px" zoomAndPan="magnify"><defs/><g><rect fill="#FFFFFF" height="1417.7559" style="stroke:#181818;stroke-width:1.0;" width="10" x="66" y="48.6211"/><rect fill="#FFFFFF" height="369.4922" style="stroke:#181818;stroke-width:1.0;" width="10" x="311" y="71.9121"/><rect fill="#FFFFFF" height="262.6191" style="stroke:#181818;stroke-width:1.0;" width="10" x="476" y="147.4941"/><rect fill="#FFFFFF" height="182.7461" style="stroke:#181818;stroke-width:1.0;" width="10" x="691" y="196.0762"/><rect fill="#FFFFFF" height="195.0762" style="stroke:#181818;stroke-width:1.0;" width="10" x="691" y="479.6953"/><rect fill="#FFFFFF" height="120.1641" style="stroke:#181818;stroke-width:1.0;" width="10" x="691" y="792.9355"/><rect fill="#FFFFFF" height="93.873" style="stroke:#181818;stroke-width:1.0;" width="10" x="914" y="479.6953"/><rect fill="#FFFFFF" height="487.3652" style="stroke:#181818;stroke-width:1.0;" width="10" x="914" y="792.9355"/><rect fill="#FFFFFF" height="93.873" style="stroke:#181818;stroke-width:1.0;" width="10" x="1057" y="227.3672"/><rect fill="#FFFFFF" height="31.291" style="stroke:#181818;stroke-width:1.0;" width="10" x="1190" y="1045.2637"/><rect fill="#FFFFFF" height="61.291" style="stroke:#181818;stroke-width:1.0;" width="10" x="1190" y="1187.7188"/><rect fill="#FFFFFF" height="31.291" style="stroke:#181818;stroke-width:1.0;" width="10" x="1190" y="1311.5918"/><rect fill="#FFFFFF" height="31.291" style="stroke:#181818;stroke-width:1.0;" width="10" x="1315.5" y="258.6582"/><rect fill="#FFFFFF" height="31.291" style="stroke:#181818;stroke-width:1.0;" width="10" x="1315.5" y="510.9863"/><rect fill="#FFFFFF" height="31.291" style="stroke:#181818;stroke-width:1.0;" width="10" x="1315.5" y="824.2266"/><rect fill="#FFFFFF" height="31.291" style="stroke:#181818;stroke-width:1.0;" width="10" x="1315.5" y="1125.1367"/><rect fill="#FFFFFF" height="30" style="stroke:#181818;stroke-width:1.0;" width="10" x="1436" y="1219.0098"/><rect fill="none" height="113.1641" style="stroke:#000000;stroke-width:1.5;" width="752.5" x="10" y="336.2402"/><rect fill="none" height="113.1641" style="stroke:#000000;stroke-width:1.5;" width="752.5" x="10" y="632.1895"/><rect fill="none" height="144.4551" style="stroke:#000000;stroke-width:1.5;" width="986" x="10" y="870.5176"/><line style="stroke:#181818;stroke-width:0.5;stroke-dasharray:5.0,5.0;" x1="71" x2="71" y1="38.6211" y2="1484.377"/><line style="stroke:#181818;stroke-width:0.5;stroke-dasharray:5.0,5.0;" x1="315.5" x2="315.5" y1="38.6211" y2="1484.377"/><line style="stroke:#181818;stroke-width:0.5;stroke-dasharray:5.0,5.0;" x1="481" x2="481" y1="38.6211" y2="1484.377"/><line style="stroke:#181818;stroke-width:0.5;stroke-dasharray:5.0,5.0;" x1="695.5" x2="695.5" y1="38.6211" y2="1484.377"/><line style="stroke:#181818;stroke-width:0.5;stroke-dasharray:5.0,5.0;" x1="919" x2="919" y1="38.6211" y2="1484.377"/><line style="stroke:#181818;stroke-width:0.5;stroke-dasharray:5.0,5.0;" x1="1062" x2="1062" y1="38.6211" y2="1484.377"/><line style="stroke:#181818;stroke-width:0.5;stroke-dasharray:5.0,5.0;" x1="1195" x2="1195" y1="38.6211" y2="1484.377"/><line style="stroke:#181818;stroke-width:0.5;stroke-dasharray:5.0,5.0;" x1="1320" x2="1320" y1="38.6211" y2="1484.377"/><line style="stroke:#181818;stroke-width:0.5;stroke-dasharray:5.0,5.0;" x1="1441" x2="1441" y1="613.3789" y2="1484.377"/><line style="stroke:#181818;stroke-width:0.5;stroke-dasharray:5.0,5.0;" x1="1547" x2="1547" y1="38.6211" y2="1484.377"/><line style="stroke:#181818;stroke-width:0.5;stroke-dasharray:5.0,5.0;" x1="1645" x2="1645" y1="1351.4023" y2="1484.377"/><rect fill="#E2E2F0" height="32.6211" rx="2.5" ry="2.5" style="stroke:#181818;stroke-width:0.5;" width="102" x="20" y="5"/><text fill="#000000" font-family="sans-serif" font-size="14" lengthAdjust="spacing" textLength="88" x="27" y="27.1074">User Interface</text><rect fill="#E2E2F0" height="32.6211" rx="2.5" ry="2.5" style="stroke:#181818;stroke-width:0.5;" width="102" x="20" y="1483.377"/><text fill="#000000" font-family="sans-serif" font-size="14" lengthAdjust="spacing" textLength="88" x="27" y="1505.4844">User Interface</text><rect fill="#E2E2F0" height="32.6211" rx="2.5" ry="2.5" style="stroke:#181818;stroke-width:0.5;" width="57" x="287.5" y="5"/><text fill="#000000" font-family="sans-serif" font-size="14" lengthAdjust="spacing" textLength="43" x="294.5" y="27.1074">Router</text><rect fill="#E2E2F0" height="32.6211" rx="2.5" ry="2.5" style="stroke:#181818;stroke-width:0.5;" width="57" x="287.5" y="1483.377"/><text fill="#000000" font-family="sans-serif" font-size="14" lengthAdjust="spacing" textLength="43" x="294.5" y="1505.4844">Router</text><rect fill="#E2E2F0" height="32.6211" rx="2.5" ry="2.5" style="stroke:#181818;stroke-width:0.5;" width="128" x="417" y="5"/><text fill="#000000" font-family="sans-serif" font-size="14" lengthAdjust="spacing" textLength="114" x="424" y="27.1074">ElevatorController</text><rect fill="#E2E2F0" height="32.6211" rx="2.5" ry="2.5" style="stroke:#181818;stroke-width:0.5;" width="128" x="417" y="1483.377"/><text fill="#000000" font-family="sans-serif" font-size="14" lengthAdjust="spacing" textLength="114" x="424" y="1505.4844">ElevatorController</text><rect fill="#E2E2F0" height="32.6211" rx="2.5" ry="2.5" style="stroke:#181818;stroke-width:0.5;" width="113" x="639.5" y="5"/><text fill="#000000" font-family="sans-serif" font-size="14" lengthAdjust="spacing" textLength="99" x="646.5" y="27.1074">ElevatorService</text><rect fill="#E2E2F0" height="32.6211" rx="2.5" ry="2.5" style="stroke:#181818;stroke-width:0.5;" width="113" x="639.5" y="1483.377"/><text fill="#000000" font-family="sans-serif" font-size="14" lengthAdjust="spacing" textLength="99" x="646.5" y="1505.4844">ElevatorService</text><rect fill="#E2E2F0" height="32.6211" rx="2.5" ry="2.5" style="stroke:#181818;stroke-width:0.5;" width="134" x="852" y="5"/><text fill="#000000" font-family="sans-serif" font-size="14" lengthAdjust="spacing" textLength="120" x="859" y="27.1074">ElevatorRepository</text><rect fill="#E2E2F0" height="32.6211" rx="2.5" ry="2.5" style="stroke:#181818;stroke-width:0.5;" width="134" x="852" y="1483.377"/><text fill="#000000" font-family="sans-serif" font-size="14" lengthAdjust="spacing" textLength="120" x="859" y="1505.4844">ElevatorRepository</text><rect fill="#E2E2F0" height="32.6211" rx="2.5" ry="2.5" style="stroke:#181818;stroke-width:0.5;" width="132" x="996" y="5"/><text fill="#000000" font-family="sans-serif" font-size="14" lengthAdjust="spacing" textLength="118" x="1003" y="27.1074">BuildingRepository</text><rect fill="#E2E2F0" height="32.6211" rx="2.5" ry="2.5" style="stroke:#181818;stroke-width:0.5;" width="132" x="996" y="1483.377"/><text fill="#000000" font-family="sans-serif" font-size="14" lengthAdjust="spacing" textLength="118" x="1003" y="1505.4844">BuildingRepository</text><rect fill="#E2E2F0" height="32.6211" rx="2.5" ry="2.5" style="stroke:#181818;stroke-width:0.5;" width="114" x="1138" y="5"/><text fill="#000000" font-family="sans-serif" font-size="14" lengthAdjust="spacing" textLength="100" x="1145" y="27.1074">ElevatorMapper</text><rect fill="#E2E2F0" height="32.6211" rx="2.5" ry="2.5" style="stroke:#181818;stroke-width:0.5;" width="114" x="1138" y="1483.377"/><text fill="#000000" font-family="sans-serif" font-size="14" lengthAdjust="spacing" textLength="100" x="1145" y="1505.4844">ElevatorMapper</text><rect fill="#E2E2F0" height="32.6211" rx="2.5" ry="2.5" style="stroke:#181818;stroke-width:0.5;" width="117" x="1262" y="5"/><text fill="#000000" font-family="sans-serif" font-size="14" lengthAdjust="spacing" textLength="103" x="1269" y="27.1074">ElevatorSchema</text><rect fill="#E2E2F0" height="32.6211" rx="2.5" ry="2.5" style="stroke:#181818;stroke-width:0.5;" width="117" x="1262" y="1483.377"/><text fill="#000000" font-family="sans-serif" font-size="14" lengthAdjust="spacing" textLength="103" x="1269" y="1505.4844">ElevatorSchema</text><rect fill="#E2E2F0" height="32.6211" rx="2.5" ry="2.5" style="stroke:#181818;stroke-width:0.5;" width="104" x="1389" y="1483.377"/><text fill="#000000" font-family="sans-serif" font-size="14" lengthAdjust="spacing" textLength="90" x="1396" y="1505.4844">ElevatorModel</text><rect fill="#E2E2F0" height="32.6211" rx="2.5" ry="2.5" style="stroke:#181818;stroke-width:0.5;" width="88" x="1503" y="5"/><text fill="#000000" font-family="sans-serif" font-size="14" lengthAdjust="spacing" textLength="74" x="1510" y="27.1074">Persistence</text><rect fill="#E2E2F0" height="32.6211" rx="2.5" ry="2.5" style="stroke:#181818;stroke-width:0.5;" width="88" x="1503" y="1483.377"/><text fill="#000000" font-family="sans-serif" font-size="14" lengthAdjust="spacing" textLength="74" x="1510" y="1505.4844">Persistence</text><rect fill="#E2E2F0" height="32.6211" rx="2.5" ry="2.5" style="stroke:#181818;stroke-width:0.5;" width="88" x="1601" y="1483.377"/><text fill="#000000" font-family="sans-serif" font-size="14" lengthAdjust="spacing" textLength="74" x="1608" y="1505.4844">ElevatorDto</text><rect fill="#FFFFFF" height="1417.7559" style="stroke:#181818;stroke-width:1.0;" width="10" x="66" y="48.6211"/><rect fill="#FFFFFF" height="369.4922" style="stroke:#181818;stroke-width:1.0;" width="10" x="311" y="71.9121"/><rect fill="#FFFFFF" height="262.6191" style="stroke:#181818;stroke-width:1.0;" width="10" x="476" y="147.4941"/><rect fill="#FFFFFF" height="182.7461" style="stroke:#181818;stroke-width:1.0;" width="10" x="691" y="196.0762"/><rect fill="#FFFFFF" height="195.0762" style="stroke:#181818;stroke-width:1.0;" width="10" x="691" y="479.6953"/><rect fill="#FFFFFF" height="120.1641" style="stroke:#181818;stroke-width:1.0;" width="10" x="691" y="792.9355"/><rect fill="#FFFFFF" height="93.873" style="stroke:#181818;stroke-width:1.0;" width="10" x="914" y="479.6953"/><rect fill="#FFFFFF" height="487.3652" style="stroke:#181818;stroke-width:1.0;" width="10" x="914" y="792.9355"/><rect fill="#FFFFFF" height="93.873" style="stroke:#181818;stroke-width:1.0;" width="10" x="1057" y="227.3672"/><rect fill="#FFFFFF" height="31.291" style="stroke:#181818;stroke-width:1.0;" width="10" x="1190" y="1045.2637"/><rect fill="#FFFFFF" height="61.291" style="stroke:#181818;stroke-width:1.0;" width="10" x="1190" y="1187.7188"/><rect fill="#FFFFFF" height="31.291" style="stroke:#181818;stroke-width:1.0;" width="10" x="1190" y="1311.5918"/><rect fill="#FFFFFF" height="31.291" style="stroke:#181818;stroke-width:1.0;" width="10" x="1315.5" y="258.6582"/><rect fill="#FFFFFF" height="31.291" style="stroke:#181818;stroke-width:1.0;" width="10" x="1315.5" y="510.9863"/><rect fill="#FFFFFF" height="31.291" style="stroke:#181818;stroke-width:1.0;" width="10" x="1315.5" y="824.2266"/><rect fill="#FFFFFF" height="31.291" style="stroke:#181818;stroke-width:1.0;" width="10" x="1315.5" y="1125.1367"/><rect fill="#FFFFFF" height="30" style="stroke:#181818;stroke-width:1.0;" width="10" x="1436" y="1219.0098"/><polygon fill="#181818" points="299,67.9121,309,71.9121,299,75.9121,303,71.9121" style="stroke:#181818;stroke-width:1.0;"/><line style="stroke:#181818;stroke-width:1.0;" x1="76" x2="305" y1="71.9121" y2="71.9121"/><text fill="#000000" font-family="sans-serif" font-size="13" lengthAdjust="spacing" textLength="189" x="83" y="66.6494">POST /building/:id/elevator (json)</text><line style="stroke:#181818;stroke-width:1.0;" x1="321" x2="363" y1="103.2031" y2="103.2031"/><line style="stroke:#181818;stroke-width:1.0;" x1="363" x2="363" y1="103.2031" y2="116.2031"/><line style="stroke:#181818;stroke-width:1.0;" x1="322" x2="363" y1="116.2031" y2="116.2031"/><polygon fill="#181818" points="332,112.2031,322,116.2031,332,120.2031,328,116.2031" style="stroke:#181818;stroke-width:1.0;"/><text fill="#000000" font-family="sans-serif" font-size="13" lengthAdjust="spacing" textLength="75" x="328" y="97.9404">validate(json)</text><polygon fill="#181818" points="464,143.4941,474,147.4941,464,151.4941,468,147.4941" style="stroke:#181818;stroke-width:1.0;"/><line style="stroke:#181818;stroke-width:1.0;" x1="321" x2="470" y1="147.4941" y2="147.4941"/><text fill="#000000" font-family="sans-serif" font-size="13" lengthAdjust="spacing" textLength="136" x="328" y="142.2314">ctrl.createElevator(json)</text><polygon fill="#181818" points="679,192.0762,689,196.0762,679,200.0762,683,196.0762" style="stroke:#181818;stroke-width:1.0;"/><line style="stroke:#181818;stroke-width:1.0;" x1="486" x2="685" y1="196.0762" y2="196.0762"/><text fill="#000000" font-family="sans-serif" font-size="13" lengthAdjust="spacing" textLength="186" x="493" y="173.5225">reponseOrError = createElevator</text><text fill="#000000" font-family="sans-serif" font-size="13" lengthAdjust="spacing" textLength="85" x="493" y="190.8135">(req, res, next)</text><polygon fill="#181818" points="1045,223.3672,1055,227.3672,1045,231.3672,1049,227.3672" style="stroke:#181818;stroke-width:1.0;"/><line style="stroke:#181818;stroke-width:1.0;" x1="701" x2="1051" y1="227.3672" y2="227.3672"/><text fill="#000000" font-family="sans-serif" font-size="13" lengthAdjust="spacing" textLength="119" x="708" y="222.1045">exists(dto.buildingId)</text><polygon fill="#181818" points="1303.5,254.6582,1313.5,258.6582,1303.5,262.6582,1307.5,258.6582" style="stroke:#181818;stroke-width:1.0;"/><line style="stroke:#181818;stroke-width:1.0;" x1="1067" x2="1309.5" y1="258.6582" y2="258.6582"/><text fill="#000000" font-family="sans-serif" font-size="13" lengthAdjust="spacing" textLength="157" x="1074" y="253.3955">exists = findOne(buildingId)</text><polygon fill="#181818" points="1535,285.9492,1545,289.9492,1535,293.9492,1539,289.9492" style="stroke:#181818;stroke-width:1.0;"/><line style="stroke:#181818;stroke-width:1.0;" x1="1320.5" x2="1541" y1="289.9492" y2="289.9492"/><text fill="#000000" font-family="sans-serif" font-size="13" lengthAdjust="spacing" textLength="62" x="1327.5" y="284.6865">findOne(Id)</text><polygon fill="#181818" points="712,317.2402,702,321.2402,712,325.2402,708,321.2402" style="stroke:#181818;stroke-width:1.0;"/><line style="stroke:#181818;stroke-width:1.0;" x1="706" x2="1061" y1="321.2402" y2="321.2402"/><text fill="#000000" font-family="sans-serif" font-size="13" lengthAdjust="spacing" textLength="45" x="718" y="315.9775">boolean</text><path d="M10,336.2402 L71,336.2402 L71,345.5313 L61,355.5313 L10,355.5313 L10,336.2402 " fill="#EEEEEE" style="stroke:#000000;stroke-width:1.5;"/><rect fill="none" height="113.1641" style="stroke:#000000;stroke-width:1.5;" width="752.5" x="10" y="336.2402"/><text fill="#000000" font-family="sans-serif" font-size="13" font-weight="bold" lengthAdjust="spacing" textLength="16" x="25" y="351.2686">alt</text><text fill="#000000" font-family="sans-serif" font-size="11" font-weight="bold" lengthAdjust="spacing" textLength="134" x="86" y="350.1104">[building does not exist]</text><polygon fill="#181818" points="497,374.8223,487,378.8223,497,382.8223,493,378.8223" style="stroke:#181818;stroke-width:1.0;"/><line style="stroke:#181818;stroke-width:1.0;" x1="491" x2="695" y1="378.8223" y2="378.8223"/><text fill="#000000" font-family="sans-serif" font-size="13" lengthAdjust="spacing" textLength="87" x="503" y="373.5596">res.status(422)</text><polygon fill="#181818" points="332,406.1133,322,410.1133,332,414.1133,328,410.1133" style="stroke:#181818;stroke-width:1.0;"/><line style="stroke:#181818;stroke-width:1.0;" x1="326" x2="480" y1="410.1133" y2="410.1133"/><text fill="#000000" font-family="sans-serif" font-size="13" lengthAdjust="spacing" textLength="87" x="338" y="404.8506">res.status(422)</text><polygon fill="#181818" points="87,437.4043,77,441.4043,87,445.4043,83,441.4043" style="stroke:#181818;stroke-width:1.0;"/><line style="stroke:#181818;stroke-width:1.0;" x1="81" x2="315" y1="441.4043" y2="441.4043"/><text fill="#000000" font-family="sans-serif" font-size="13" lengthAdjust="spacing" textLength="211" x="93" y="436.1416">status 422 "Building does not exist."</text><polygon fill="#181818" points="902,475.6953,912,479.6953,902,483.6953,906,479.6953" style="stroke:#181818;stroke-width:1.0;"/><line style="stroke:#181818;stroke-width:1.0;" x1="701" x2="908" y1="479.6953" y2="479.6953"/><text fill="#000000" font-family="sans-serif" font-size="13" lengthAdjust="spacing" textLength="188" x="708" y="474.4326">countByBuildingId(dto.buildingId)</text><polygon fill="#181818" points="1303.5,506.9863,1313.5,510.9863,1303.5,514.9863,1307.5,510.9863" style="stroke:#181818;stroke-width:1.0;"/><line style="stroke:#181818;stroke-width:1.0;" x1="924" x2="1309.5" y1="510.9863" y2="510.9863"/><text fill="#000000" font-family="sans-serif" font-size="13" lengthAdjust="spacing" textLength="142" x="931" y="505.7236">count = count(buildingId)</text><polygon fill="#181818" points="1535,538.2773,1545,542.2773,1535,546.2773,1539,542.2773" style="stroke:#181818;stroke-width:1.0;"/><line style="stroke:#181818;stroke-width:1.0;" x1="1320.5" x2="1541" y1="542.2773" y2="542.2773"/><text fill="#000000" font-family="sans-serif" font-size="13" lengthAdjust="spacing" textLength="50" x="1327.5" y="537.0146">count(Id)</text><polygon fill="#181818" points="712,569.5684,702,573.5684,712,577.5684,708,573.5684" style="stroke:#181818;stroke-width:1.0;"/><line style="stroke:#181818;stroke-width:1.0;" x1="706" x2="918" y1="573.5684" y2="573.5684"/><text fill="#000000" font-family="sans-serif" font-size="13" lengthAdjust="spacing" textLength="32" x="718" y="568.3057">count</text><polygon fill="#181818" points="1377,600.8594,1387,604.8594,1377,608.8594,1381,604.8594" style="stroke:#181818;stroke-width:1.0;"/><line style="stroke:#181818;stroke-width:1.0;" x1="701" x2="1383" y1="604.8594" y2="604.8594"/><text fill="#000000" font-family="sans-serif" font-size="13" lengthAdjust="spacing" textLength="258" x="708" y="599.5967">ElevatorOrError = Elevator.Create(dto, count)</text><rect fill="#E2E2F0" height="32.6211" rx="2.5" ry="2.5" style="stroke:#181818;stroke-width:0.5;" width="104" x="1389" y="581.5684"/><text fill="#000000" font-family="sans-serif" font-size="14" lengthAdjust="spacing" textLength="90" x="1396" y="603.6758">ElevatorModel</text><path d="M10,632.1895 L71,632.1895 L71,641.4805 L61,651.4805 L10,651.4805 L10,632.1895 " fill="#EEEEEE" style="stroke:#000000;stroke-width:1.5;"/><rect fill="none" height="113.1641" style="stroke:#000000;stroke-width:1.5;" width="752.5" x="10" y="632.1895"/><text fill="#000000" font-family="sans-serif" font-size="13" font-weight="bold" lengthAdjust="spacing" textLength="16" x="25" y="647.2178">alt</text><text fill="#000000" font-family="sans-serif" font-size="11" font-weight="bold" lengthAdjust="spacing" textLength="143" x="86" y="646.0596">[ElevatorOrError.isFailure]</text><polygon fill="#181818" points="492,670.7715,482,674.7715,492,678.7715,488,674.7715" style="stroke:#181818;stroke-width:1.0;"/><line style="stroke:#181818;stroke-width:1.0;" x1="486" x2="695" y1="674.7715" y2="674.7715"/><text fill="#000000" font-family="sans-serif" font-size="13" lengthAdjust="spacing" textLength="87" x="498" y="669.5088">res.status(422)</text><polygon fill="#181818" points="327,702.0625,317,706.0625,327,710.0625,323,706.0625" style="stroke:#181818;stroke-width:1.0;"/><line style="stroke:#181818;stroke-width:1.0;" x1="321" x2="480" y1="706.0625" y2="706.0625"/><text fill="#000000" font-family="sans-serif" font-size="13" lengthAdjust="spacing" textLength="87" x="333" y="700.7998">res.status(422)</text><polygon fill="#181818" points="87,733.3535,77,737.3535,87,741.3535,83,737.3535" style="stroke:#181818;stroke-width:1.0;"/><line style="stroke:#181818;stroke-width:1.0;" x1="81" x2="315" y1="737.3535" y2="737.3535"/><text fill="#000000" font-family="sans-serif" font-size="13" lengthAdjust="spacing" textLength="197" x="93" y="732.0908">status 422 (Unprocessable Entity)</text><polygon fill="#181818" points="902,788.9355,912,792.9355,902,796.9355,906,792.9355" style="stroke:#181818;stroke-width:1.0;"/><line style="stroke:#181818;stroke-width:1.0;" x1="701" x2="908" y1="792.9355" y2="792.9355"/><text fill="#000000" font-family="sans-serif" font-size="13" lengthAdjust="spacing" textLength="44" x="708" y="770.3818">entity =</text><text fill="#000000" font-family="sans-serif" font-size="13" lengthAdjust="spacing" textLength="195" x="712" y="787.6729">create(ElevatorOrError.getValue())</text><polygon fill="#181818" points="1303.5,820.2266,1313.5,824.2266,1303.5,828.2266,1307.5,824.2266" style="stroke:#181818;stroke-width:1.0;"/><line style="stroke:#181818;stroke-width:1.0;" x1="924" x2="1309.5" y1="824.2266" y2="824.2266"/><text fill="#000000" font-family="sans-serif" font-size="13" lengthAdjust="spacing" textLength="163" x="931" y="818.9639">exists = findOne(Elevator.Id)</text><polygon fill="#181818" points="1535,851.5176,1545,855.5176,1535,859.5176,1539,855.5176" style="stroke:#181818;stroke-width:1.0;"/><line style="stroke:#181818;stroke-width:1.0;" x1="1320.5" x2="1541" y1="855.5176" y2="855.5176"/><text fill="#000000" font-family="sans-serif" font-size="13" lengthAdjust="spacing" textLength="62" x="1327.5" y="850.2549">findOne(Id)</text><path d="M10,870.5176 L71,870.5176 L71,879.8086 L61,889.8086 L10,889.8086 L10,870.5176 " fill="#EEEEEE" style="stroke:#000000;stroke-width:1.5;"/><rect fill="none" height="144.4551" style="stroke:#000000;stroke-width:1.5;" width="986" x="10" y="870.5176"/><text fill="#000000" font-family="sans-serif" font-size="13" font-weight="bold" lengthAdjust="spacing" textLength="16" x="25" y="885.5459">alt</text><text fill="#000000" font-family="sans-serif" font-size="11" font-weight="bold" lengthAdjust="spacing" textLength="42" x="86" y="884.3877">[exists]</text><polygon fill="#181818" points="707,909.0996,697,913.0996,707,917.0996,703,913.0996" style="stroke:#181818;stroke-width:1.0;"/><line style="stroke:#181818;stroke-width:1.0;" x1="701" x2="913" y1="913.0996" y2="913.0996"/><text fill="#000000" font-family="sans-serif" font-size="13" lengthAdjust="spacing" textLength="87" x="713" y="907.8369">res.status(409)</text><polygon fill="#181818" points="492,940.3906,482,944.3906,492,948.3906,488,944.3906" style="stroke:#181818;stroke-width:1.0;"/><line style="stroke:#181818;stroke-width:1.0;" x1="486" x2="695" y1="944.3906" y2="944.3906"/><text fill="#000000" font-family="sans-serif" font-size="13" lengthAdjust="spacing" textLength="87" x="498" y="939.1279">res.status(409)</text><polygon fill="#181818" points="327,971.6816,317,975.6816,327,979.6816,323,975.6816" style="stroke:#181818;stroke-width:1.0;"/><line style="stroke:#181818;stroke-width:1.0;" x1="321" x2="480" y1="975.6816" y2="975.6816"/><text fill="#000000" font-family="sans-serif" font-size="13" lengthAdjust="spacing" textLength="87" x="333" y="970.4189">res.status(409)</text><polygon fill="#181818" points="87,1002.9727,77,1006.9727,87,1010.9727,83,1006.9727" style="stroke:#181818;stroke-width:1.0;"/><line style="stroke:#181818;stroke-width:1.0;" x1="81" x2="315" y1="1006.9727" y2="1006.9727"/><text fill="#000000" font-family="sans-serif" font-size="13" lengthAdjust="spacing" textLength="116" x="93" y="1001.71">status 409 (Conflict)</text><polygon fill="#181818" points="1178,1041.2637,1188,1045.2637,1178,1049.2637,1182,1045.2637" style="stroke:#181818;stroke-width:1.0;"/><line style="stroke:#181818;stroke-width:1.0;" x1="924" x2="1184" y1="1045.2637" y2="1045.2637"/><text fill="#000000" font-family="sans-serif" font-size="13" lengthAdjust="spacing" textLength="204" x="931" y="1040.001">rawSchema = toPersistance(entity)</text><polygon fill="#181818" points="935,1072.5547,925,1076.5547,935,1080.5547,931,1076.5547" style="stroke:#181818;stroke-width:1.0;"/><line style="stroke:#181818;stroke-width:1.0;stroke-dasharray:2.0,2.0;" x1="929" x2="1194" y1="1076.5547" y2="1076.5547"/><text fill="#000000" font-family="sans-serif" font-size="13" lengthAdjust="spacing" textLength="68" x="941" y="1071.292">rawSchema</text><polygon fill="#181818" points="1303.5,1121.1367,1313.5,1125.1367,1303.5,1129.1367,1307.5,1125.1367" style="stroke:#181818;stroke-width:1.0;"/><line style="stroke:#181818;stroke-width:1.0;" x1="924" x2="1309.5" y1="1125.1367" y2="1125.1367"/><text fill="#000000" font-family="sans-serif" font-size="13" lengthAdjust="spacing" textLength="156" x="931" y="1102.583">schema = ElevatorSchema</text><text fill="#000000" font-family="sans-serif" font-size="13" lengthAdjust="spacing" textLength="116" x="931" y="1119.874">.create(rawSchema)</text><polygon fill="#181818" points="1535,1152.4277,1545,1156.4277,1535,1160.4277,1539,1156.4277" style="stroke:#181818;stroke-width:1.0;"/><line style="stroke:#181818;stroke-width:1.0;" x1="1320.5" x2="1541" y1="1156.4277" y2="1156.4277"/><text fill="#000000" font-family="sans-serif" font-size="13" lengthAdjust="spacing" textLength="80" x="1327.5" y="1151.165">save(schema)</text><polygon fill="#181818" points="1178,1183.7188,1188,1187.7188,1178,1191.7188,1182,1187.7188" style="stroke:#181818;stroke-width:1.0;"/><line style="stroke:#181818;stroke-width:1.0;" x1="924" x2="1184" y1="1187.7188" y2="1187.7188"/><text fill="#000000" font-family="sans-serif" font-size="13" lengthAdjust="spacing" textLength="148" x="931" y="1182.4561">entity = toModel(schema)</text><polygon fill="#181818" points="1424,1215.0098,1434,1219.0098,1424,1223.0098,1428,1219.0098" style="stroke:#181818;stroke-width:1.0;"/><line style="stroke:#181818;stroke-width:1.0;" x1="1200" x2="1430" y1="1219.0098" y2="1219.0098"/><text fill="#000000" font-family="sans-serif" font-size="13" lengthAdjust="spacing" textLength="77" x="1207" y="1213.7471">entity: &#171;new&#187;</text><polygon fill="#181818" points="707,1276.3008,697,1280.3008,707,1284.3008,703,1280.3008" style="stroke:#181818;stroke-width:1.0;"/><line style="stroke:#181818;stroke-width:1.0;stroke-dasharray:2.0,2.0;" x1="701" x2="918" y1="1280.3008" y2="1280.3008"/><text fill="#000000" font-family="sans-serif" font-size="13" lengthAdjust="spacing" textLength="32" x="713" y="1275.0381">entity</text><polygon fill="#181818" points="1178,1307.5918,1188,1311.5918,1178,1315.5918,1182,1311.5918" style="stroke:#181818;stroke-width:1.0;"/><line style="stroke:#181818;stroke-width:1.0;" x1="696" x2="1184" y1="1311.5918" y2="1311.5918"/><text fill="#000000" font-family="sans-serif" font-size="13" lengthAdjust="spacing" textLength="210" x="703" y="1306.3291">responseDto = roleMap.toDto(entity)</text><polygon fill="#181818" points="1589,1338.8828,1599,1342.8828,1589,1346.8828,1593,1342.8828" style="stroke:#181818;stroke-width:1.0;"/><line style="stroke:#181818;stroke-width:1.0;" x1="1195" x2="1595" y1="1342.8828" y2="1342.8828"/><text fill="#000000" font-family="sans-serif" font-size="13" lengthAdjust="spacing" textLength="120" x="1202" y="1337.6201">responseDTO &#171;new&#187;</text><rect fill="#E2E2F0" height="32.6211" rx="2.5" ry="2.5" style="stroke:#181818;stroke-width:0.5;" width="88" x="1601" y="1319.5918"/><text fill="#000000" font-family="sans-serif" font-size="14" lengthAdjust="spacing" textLength="74" x="1608" y="1341.6992">ElevatorDto</text><polygon fill="#181818" points="492,1382.5039,482,1386.5039,492,1390.5039,488,1386.5039" style="stroke:#181818;stroke-width:1.0;"/><line style="stroke:#181818;stroke-width:1.0;stroke-dasharray:2.0,2.0;" x1="486" x2="695" y1="1386.5039" y2="1386.5039"/><text fill="#000000" font-family="sans-serif" font-size="13" lengthAdjust="spacing" textLength="79" x="498" y="1381.2412">responseDTO</text><polygon fill="#181818" points="327,1413.7949,317,1417.7949,327,1421.7949,323,1417.7949" style="stroke:#181818;stroke-width:1.0;"/><line style="stroke:#181818;stroke-width:1.0;stroke-dasharray:2.0,2.0;" x1="321" x2="480" y1="1417.7949" y2="1417.7949"/><text fill="#000000" font-family="sans-serif" font-size="13" lengthAdjust="spacing" textLength="79" x="333" y="1412.5322">responseDTO</text><polygon fill="#181818" points="82,1462.377,72,1466.377,82,1470.377,78,1466.377" style="stroke:#181818;stroke-width:1.0;"/><line style="stroke:#181818;stroke-width:1.0;stroke-dasharray:2.0,2.0;" x1="76" x2="315" y1="1466.377" y2="1466.377"/><text fill="#000000" font-family="sans-serif" font-size="13" lengthAdjust="spacing" textLength="80" x="88" y="1443.8232">HTTP 200 OK</text><text fill="#000000" font-family="sans-serif" font-size="13" lengthAdjust="spacing" textLength="111" x="88" y="1461.1143">json(responseDTO)</text><!--SRC=[pLPDJzmm4BtdLumuPIKQLgWN8fR3KggkgceHxFQq5vCCr5LgRsrdWNzV9nx7JaWAQdleAKuoxyt7UtQoPyhmWk-PC72qrQXW9GogUrRW4J0DsrMoZqDkP6rVjw_Sil_wgi83Cr9TIc6Kh2eA3RVZuRUe3fmoqZePZxp1lTJSBfvT3TrjFtnPywhauc4Glcpknuc_iFsUgdNBYKgBR_Y3kKBRvGIRBB5oPCsg7tIDIdDjK537qNsIiC9mIu7DvBShU7T1SyxXUdsxWPCxwkmav-K9KZf8lsifPW5CshXBJ79W5Izj1052G90eXyAeAYiKsZZVq311f6WIrWqHwPU3ihCM6jVgIYbRuWBwZ3kHAlnvRCFqCGXyCX6xzm1T6zfMEiW1d-oeT5eQcVbHhCe8wYHsqKqrhKWTpbPnpqMv5fYEeabJGbbyf4qE7RR1b3X4XQH-17TILiX47ElgOvK1Nm2K4ZK8QLoDSTEnA7PEcJRCr3fzVthQpq_ZwWlX9VyDC58nEC6wBdVnOEF3NXhKcHt5J6Gu56MIn1s43MWrA6GjpF9vsKr-MaRVKaWGTdh46IlSiZSsQwv_9Az3ZeixI4eTKjRU94AXYNCydG7HLDe7EVYj4BQ8Vv9TjiXcFiSknQprp02HSVsHyQfM-B-v9jsAlP85QitkAeGhORXvdaquPjGlTiks85Zi11qTwR3z1pHVMLLZElixwxmu73eT_jtfqCZdyenxgJ_o-TceLczGUGBvkie3uAigpyyWjK7t5I_CbBBzJjs7rMPbZpJ31HX9GsHsY2cIJpek-XOhDBKI0JWbfFQq_U_rJj3dBEqOtYXhmyaEc6e2lNOm-1QzTsr_xMRl28QTkKjqA3Xa3kVd0XylBY90Uuf41Rnyu2Xx9SK6SzHJXrLyFdcXKBVVy0z6sbQi6z2-oOoqzvDIqPdd1R2XKO_HquXzi-ww7Uccg-kbwJrypF0zn_SjFmORiNlhznm-RJRNS3gVm_hpJZI_GMb4CMRywCbszGi0]--></g></svg>