<svg xmlns="http://www.w3.org/2000/svg" xmlns:xlink="http://www.w3.org/1999/xlink" contentStyleType="text/css" height="1068px" preserveAspectRatio="none" style="width:2199px;height:1068px;background:#FFFFFF;" version="1.1" viewBox="0 0 2199 1068" width="2199px" zoomAndPan="magnify"><defs/><g><rect fill="#FFFFFF" height="968.7109" style="stroke:#181818;stroke-width:1.0;" width="10" x="72.5" y="46.2969"/><rect fill="#FFFFFF" height="268.3594" style="stroke:#181818;stroke-width:1.0;" width="10" x="323.5" y="67.4297"/><rect fill="#FFFFFF" height="167.9609" style="stroke:#181818;stroke-width:1.0;" width="10" x="502.5" y="138.6953"/><rect fill="#FFFFFF" height="94.5625" style="stroke:#181818;stroke-width:1.0;" width="10" x="758.5" y="182.9609"/><rect fill="#FFFFFF" height="111.5313" style="stroke:#181818;stroke-width:1.0;" width="10" x="758.5" y="387.0547"/><rect fill="#FFFFFF" height="454.9922" style="stroke:#181818;stroke-width:1.0;" width="10" x="1020.5" y="387.0547"/><rect fill="#FFFFFF" height="29.1328" style="stroke:#181818;stroke-width:1.0;" width="10" x="1277.5" y="622.1172"/><rect fill="#FFFFFF" height="59.1328" style="stroke:#181818;stroke-width:1.0;" width="10" x="1277.5" y="753.7813"/><rect fill="#FFFFFF" height="29.1328" style="stroke:#181818;stroke-width:1.0;" width="10" x="1277.5" y="871.1797"/><rect fill="#FFFFFF" height="29.1328" style="stroke:#181818;stroke-width:1.0;" width="10" x="1438.5" y="416.1875"/><rect fill="#FFFFFF" height="29.1328" style="stroke:#181818;stroke-width:1.0;" width="10" x="1438.5" y="695.5156"/><rect fill="#FFFFFF" height="30" style="stroke:#181818;stroke-width:1.0;" width="10" x="1593.5" y="782.9141"/><rect fill="none" height="104.5313" style="stroke:#000000;stroke-width:1.5;" width="837.5" x="10" y="239.2578"/><rect fill="none" height="133.6641" style="stroke:#000000;stroke-width:1.5;" width="1112.5" x="10" y="460.3203"/><line style="stroke:#181818;stroke-width:0.5;stroke-dasharray:5.0,5.0;" x1="77" x2="77" y1="36.2969" y2="1033.0078"/><line style="stroke:#181818;stroke-width:0.5;stroke-dasharray:5.0,5.0;" x1="328" x2="328" y1="36.2969" y2="1033.0078"/><line style="stroke:#181818;stroke-width:0.5;stroke-dasharray:5.0,5.0;" x1="507.5" x2="507.5" y1="36.2969" y2="1033.0078"/><line style="stroke:#181818;stroke-width:0.5;stroke-dasharray:5.0,5.0;" x1="763.5" x2="763.5" y1="36.2969" y2="1033.0078"/><line style="stroke:#181818;stroke-width:0.5;stroke-dasharray:5.0,5.0;" x1="1025.5" x2="1025.5" y1="36.2969" y2="1033.0078"/><line style="stroke:#181818;stroke-width:0.5;stroke-dasharray:5.0,5.0;" x1="1282.5" x2="1282.5" y1="36.2969" y2="1033.0078"/><line style="stroke:#181818;stroke-width:0.5;stroke-dasharray:5.0,5.0;" x1="1443.5" x2="1443.5" y1="36.2969" y2="1033.0078"/><line style="stroke:#181818;stroke-width:0.5;stroke-dasharray:5.0,5.0;" x1="1598.5" x2="1598.5" y1="221.6094" y2="1033.0078"/><line style="stroke:#181818;stroke-width:0.5;stroke-dasharray:5.0,5.0;" x1="1794.5" x2="1794.5" y1="36.2969" y2="1033.0078"/><line style="stroke:#181818;stroke-width:0.5;stroke-dasharray:5.0,5.0;" x1="1970.5" x2="1970.5" y1="36.2969" y2="1033.0078"/><line style="stroke:#181818;stroke-width:0.5;stroke-dasharray:5.0,5.0;" x1="2111.5" x2="2111.5" y1="909.8281" y2="1033.0078"/><rect fill="#E2E2F0" height="30.2969" rx="2.5" ry="2.5" style="stroke:#181818;stroke-width:0.5;" width="115" x="20" y="5"/><text fill="#000000" font-family="sans-serif" font-size="14" lengthAdjust="spacing" textLength="101" x="27" y="24.9951">User Interface</text><rect fill="#E2E2F0" height="30.2969" rx="2.5" ry="2.5" style="stroke:#181818;stroke-width:0.5;" width="115" x="20" y="1032.0078"/><text fill="#000000" font-family="sans-serif" font-size="14" lengthAdjust="spacing" textLength="101" x="27" y="1052.0029">User Interface</text><rect fill="#E2E2F0" height="30.2969" rx="2.5" ry="2.5" style="stroke:#181818;stroke-width:0.5;" width="63" x="297" y="5"/><text fill="#000000" font-family="sans-serif" font-size="14" lengthAdjust="spacing" textLength="49" x="304" y="24.9951">Router</text><rect fill="#E2E2F0" height="30.2969" rx="2.5" ry="2.5" style="stroke:#181818;stroke-width:0.5;" width="63" x="297" y="1032.0078"/><text fill="#000000" font-family="sans-serif" font-size="14" lengthAdjust="spacing" textLength="49" x="304" y="1052.0029">Router</text><rect fill="#E2E2F0" height="30.2969" rx="2.5" ry="2.5" style="stroke:#181818;stroke-width:0.5;" width="168" x="423.5" y="5"/><text fill="#000000" font-family="sans-serif" font-size="14" lengthAdjust="spacing" textLength="154" x="430.5" y="24.9951">RobotTypeController</text><rect fill="#E2E2F0" height="30.2969" rx="2.5" ry="2.5" style="stroke:#181818;stroke-width:0.5;" width="168" x="423.5" y="1032.0078"/><text fill="#000000" font-family="sans-serif" font-size="14" lengthAdjust="spacing" textLength="154" x="430.5" y="1052.0029">RobotTypeController</text><rect fill="#E2E2F0" height="30.2969" rx="2.5" ry="2.5" style="stroke:#181818;stroke-width:0.5;" width="148" x="689.5" y="5"/><text fill="#000000" font-family="sans-serif" font-size="14" lengthAdjust="spacing" textLength="134" x="696.5" y="24.9951">RobotTypeService</text><rect fill="#E2E2F0" height="30.2969" rx="2.5" ry="2.5" style="stroke:#181818;stroke-width:0.5;" width="148" x="689.5" y="1032.0078"/><text fill="#000000" font-family="sans-serif" font-size="14" lengthAdjust="spacing" textLength="134" x="696.5" y="1052.0029">RobotTypeService</text><rect fill="#E2E2F0" height="30.2969" rx="2.5" ry="2.5" style="stroke:#181818;stroke-width:0.5;" width="174" x="938.5" y="5"/><text fill="#000000" font-family="sans-serif" font-size="14" lengthAdjust="spacing" textLength="160" x="945.5" y="24.9951">RobotTypeRepository</text><rect fill="#E2E2F0" height="30.2969" rx="2.5" ry="2.5" style="stroke:#181818;stroke-width:0.5;" width="174" x="938.5" y="1032.0078"/><text fill="#000000" font-family="sans-serif" font-size="14" lengthAdjust="spacing" textLength="160" x="945.5" y="1052.0029">RobotTypeRepository</text><rect fill="#E2E2F0" height="30.2969" rx="2.5" ry="2.5" style="stroke:#181818;stroke-width:0.5;" width="150" x="1207.5" y="5"/><text fill="#000000" font-family="sans-serif" font-size="14" lengthAdjust="spacing" textLength="136" x="1214.5" y="24.9951">RobotTypeMapper</text><rect fill="#E2E2F0" height="30.2969" rx="2.5" ry="2.5" style="stroke:#181818;stroke-width:0.5;" width="150" x="1207.5" y="1032.0078"/><text fill="#000000" font-family="sans-serif" font-size="14" lengthAdjust="spacing" textLength="136" x="1214.5" y="1052.0029">RobotTypeMapper</text><rect fill="#E2E2F0" height="30.2969" rx="2.5" ry="2.5" style="stroke:#181818;stroke-width:0.5;" width="152" x="1367.5" y="5"/><text fill="#000000" font-family="sans-serif" font-size="14" lengthAdjust="spacing" textLength="138" x="1374.5" y="24.9951">RobotTypeSchema</text><rect fill="#E2E2F0" height="30.2969" rx="2.5" ry="2.5" style="stroke:#181818;stroke-width:0.5;" width="152" x="1367.5" y="1032.0078"/><text fill="#000000" font-family="sans-serif" font-size="14" lengthAdjust="spacing" textLength="138" x="1374.5" y="1052.0029">RobotTypeSchema</text><rect fill="#E2E2F0" height="30.2969" rx="2.5" ry="2.5" style="stroke:#181818;stroke-width:0.5;" width="138" x="1529.5" y="1032.0078"/><text fill="#000000" font-family="sans-serif" font-size="14" lengthAdjust="spacing" textLength="124" x="1536.5" y="1052.0029">RobotTypeModel</text><rect fill="#E2E2F0" height="30.2969" rx="2.5" ry="2.5" style="stroke:#181818;stroke-width:0.5;" width="234" x="1677.5" y="5"/><text fill="#000000" font-family="sans-serif" font-size="14" lengthAdjust="spacing" textLength="220" x="1684.5" y="24.9951">RobotTypeCreateRequestDTO</text><rect fill="#E2E2F0" height="30.2969" rx="2.5" ry="2.5" style="stroke:#181818;stroke-width:0.5;" width="234" x="1677.5" y="1032.0078"/><text fill="#000000" font-family="sans-serif" font-size="14" lengthAdjust="spacing" textLength="220" x="1684.5" y="1052.0029">RobotTypeCreateRequestDTO</text><rect fill="#E2E2F0" height="30.2969" rx="2.5" ry="2.5" style="stroke:#181818;stroke-width:0.5;" width="98" x="1921.5" y="5"/><text fill="#000000" font-family="sans-serif" font-size="14" lengthAdjust="spacing" textLength="84" x="1928.5" y="24.9951">Persistence</text><rect fill="#E2E2F0" height="30.2969" rx="2.5" ry="2.5" style="stroke:#181818;stroke-width:0.5;" width="98" x="1921.5" y="1032.0078"/><text fill="#000000" font-family="sans-serif" font-size="14" lengthAdjust="spacing" textLength="84" x="1928.5" y="1052.0029">Persistence</text><rect fill="#E2E2F0" height="30.2969" rx="2.5" ry="2.5" style="stroke:#181818;stroke-width:0.5;" width="164" x="2029.5" y="1032.0078"/><text fill="#000000" font-family="sans-serif" font-size="14" lengthAdjust="spacing" textLength="150" x="2036.5" y="1052.0029">CreateResponseDTO</text><rect fill="#FFFFFF" height="968.7109" style="stroke:#181818;stroke-width:1.0;" width="10" x="72.5" y="46.2969"/><rect fill="#FFFFFF" height="268.3594" style="stroke:#181818;stroke-width:1.0;" width="10" x="323.5" y="67.4297"/><rect fill="#FFFFFF" height="167.9609" style="stroke:#181818;stroke-width:1.0;" width="10" x="502.5" y="138.6953"/><rect fill="#FFFFFF" height="94.5625" style="stroke:#181818;stroke-width:1.0;" width="10" x="758.5" y="182.9609"/><rect fill="#FFFFFF" height="111.5313" style="stroke:#181818;stroke-width:1.0;" width="10" x="758.5" y="387.0547"/><rect fill="#FFFFFF" height="454.9922" style="stroke:#181818;stroke-width:1.0;" width="10" x="1020.5" y="387.0547"/><rect fill="#FFFFFF" height="29.1328" style="stroke:#181818;stroke-width:1.0;" width="10" x="1277.5" y="622.1172"/><rect fill="#FFFFFF" height="59.1328" style="stroke:#181818;stroke-width:1.0;" width="10" x="1277.5" y="753.7813"/><rect fill="#FFFFFF" height="29.1328" style="stroke:#181818;stroke-width:1.0;" width="10" x="1277.5" y="871.1797"/><rect fill="#FFFFFF" height="29.1328" style="stroke:#181818;stroke-width:1.0;" width="10" x="1438.5" y="416.1875"/><rect fill="#FFFFFF" height="29.1328" style="stroke:#181818;stroke-width:1.0;" width="10" x="1438.5" y="695.5156"/><rect fill="#FFFFFF" height="30" style="stroke:#181818;stroke-width:1.0;" width="10" x="1593.5" y="782.9141"/><polygon fill="#181818" points="311.5,63.4297,321.5,67.4297,311.5,71.4297,315.5,67.4297" style="stroke:#181818;stroke-width:1.0;"/><line style="stroke:#181818;stroke-width:1.0;" x1="82.5" x2="317.5" y1="67.4297" y2="67.4297"/><text fill="#000000" font-family="sans-serif" font-size="13" lengthAdjust="spacing" textLength="148" x="89.5" y="62.3638">POST /robotType (json)</text><line style="stroke:#181818;stroke-width:1.0;" x1="333.5" x2="375.5" y1="96.5625" y2="96.5625"/><line style="stroke:#181818;stroke-width:1.0;" x1="375.5" x2="375.5" y1="96.5625" y2="109.5625"/><line style="stroke:#181818;stroke-width:1.0;" x1="334.5" x2="375.5" y1="109.5625" y2="109.5625"/><polygon fill="#181818" points="344.5,105.5625,334.5,109.5625,344.5,113.5625,340.5,109.5625" style="stroke:#181818;stroke-width:1.0;"/><text fill="#000000" font-family="sans-serif" font-size="13" lengthAdjust="spacing" textLength="87" x="340.5" y="91.4966">validate(json)</text><polygon fill="#181818" points="490.5,134.6953,500.5,138.6953,490.5,142.6953,494.5,138.6953" style="stroke:#181818;stroke-width:1.0;"/><line style="stroke:#181818;stroke-width:1.0;" x1="333.5" x2="496.5" y1="138.6953" y2="138.6953"/><text fill="#000000" font-family="sans-serif" font-size="13" lengthAdjust="spacing" textLength="150" x="340.5" y="133.6294">ctrl.createBuilding(json)</text><polygon fill="#181818" points="746.5,178.9609,756.5,182.9609,746.5,186.9609,750.5,182.9609" style="stroke:#181818;stroke-width:1.0;"/><line style="stroke:#181818;stroke-width:1.0;" x1="512.5" x2="752.5" y1="182.9609" y2="182.9609"/><text fill="#000000" font-family="sans-serif" font-size="13" lengthAdjust="spacing" textLength="227" x="519.5" y="162.7622">reponseOrError = createRobotType</text><text fill="#000000" font-family="sans-serif" font-size="13" lengthAdjust="spacing" textLength="186" x="519.5" y="177.895">(req.body as IRobotTypeDto)</text><polygon fill="#181818" points="1517.5,208.0938,1527.5,212.0938,1517.5,216.0938,1521.5,212.0938" style="stroke:#181818;stroke-width:1.0;"/><line style="stroke:#181818;stroke-width:1.0;" x1="768.5" x2="1523.5" y1="212.0938" y2="212.0938"/><text fill="#000000" font-family="sans-serif" font-size="13" lengthAdjust="spacing" textLength="278" x="775.5" y="207.0278">robotTypeOrError = RobotType.Create(dto)</text><rect fill="#E2E2F0" height="30.2969" rx="2.5" ry="2.5" style="stroke:#181818;stroke-width:0.5;" width="138" x="1529.5" y="190.9609"/><text fill="#000000" font-family="sans-serif" font-size="14" lengthAdjust="spacing" textLength="124" x="1536.5" y="210.9561">RobotTypeModel</text><path d="M10,239.2578 L76,239.2578 L76,246.3906 L66,256.3906 L10,256.3906 L10,239.2578 " fill="#EEEEEE" style="stroke:#000000;stroke-width:1.5;"/><rect fill="none" height="104.5313" style="stroke:#000000;stroke-width:1.5;" width="837.5" x="10" y="239.2578"/><text fill="#000000" font-family="sans-serif" font-size="13" font-weight="bold" lengthAdjust="spacing" textLength="21" x="25" y="252.3247">alt</text><text fill="#000000" font-family="sans-serif" font-size="11" font-weight="bold" lengthAdjust="spacing" textLength="191" x="91" y="251.4683">[robotTypeOrError.isFailure]</text><polygon fill="#181818" points="523.5,273.5234,513.5,277.5234,523.5,281.5234,519.5,277.5234" style="stroke:#181818;stroke-width:1.0;"/><line style="stroke:#181818;stroke-width:1.0;" x1="517.5" x2="762.5" y1="277.5234" y2="277.5234"/><text fill="#000000" font-family="sans-serif" font-size="13" lengthAdjust="spacing" textLength="98" x="529.5" y="272.4575">res.status(422)</text><polygon fill="#181818" points="344.5,302.6563,334.5,306.6563,344.5,310.6563,340.5,306.6563" style="stroke:#181818;stroke-width:1.0;"/><line style="stroke:#181818;stroke-width:1.0;" x1="338.5" x2="506.5" y1="306.6563" y2="306.6563"/><text fill="#000000" font-family="sans-serif" font-size="13" lengthAdjust="spacing" textLength="98" x="350.5" y="301.5903">res.status(422)</text><polygon fill="#181818" points="93.5,331.7891,83.5,335.7891,93.5,339.7891,89.5,335.7891" style="stroke:#181818;stroke-width:1.0;"/><line style="stroke:#181818;stroke-width:1.0;" x1="87.5" x2="327.5" y1="335.7891" y2="335.7891"/><text fill="#000000" font-family="sans-serif" font-size="13" lengthAdjust="spacing" textLength="217" x="99.5" y="330.7231">status 422 (Unprocessable Entity)</text><polygon fill="#181818" points="1008.5,383.0547,1018.5,387.0547,1008.5,391.0547,1012.5,387.0547" style="stroke:#181818;stroke-width:1.0;"/><line style="stroke:#181818;stroke-width:1.0;" x1="768.5" x2="1014.5" y1="387.0547" y2="387.0547"/><text fill="#000000" font-family="sans-serif" font-size="13" lengthAdjust="spacing" textLength="51" x="775.5" y="366.856">entity =</text><text fill="#000000" font-family="sans-serif" font-size="13" lengthAdjust="spacing" textLength="234" x="779.5" y="381.9888">create(robotTypeOrError.getValue())</text><polygon fill="#181818" points="1426.5,412.1875,1436.5,416.1875,1426.5,420.1875,1430.5,416.1875" style="stroke:#181818;stroke-width:1.0;"/><line style="stroke:#181818;stroke-width:1.0;" x1="1030.5" x2="1432.5" y1="416.1875" y2="416.1875"/><text fill="#000000" font-family="sans-serif" font-size="13" lengthAdjust="spacing" textLength="197" x="1037.5" y="411.1216">exists = findOne(robotType.Id)</text><polygon fill="#181818" points="1958.5,441.3203,1968.5,445.3203,1958.5,449.3203,1962.5,445.3203" style="stroke:#181818;stroke-width:1.0;"/><line style="stroke:#181818;stroke-width:1.0;" x1="1443.5" x2="1964.5" y1="445.3203" y2="445.3203"/><text fill="#000000" font-family="sans-serif" font-size="13" lengthAdjust="spacing" textLength="71" x="1450.5" y="440.2544">findOne(Id)</text><path d="M10,460.3203 L76,460.3203 L76,467.4531 L66,477.4531 L10,477.4531 L10,460.3203 " fill="#EEEEEE" style="stroke:#000000;stroke-width:1.5;"/><rect fill="none" height="133.6641" style="stroke:#000000;stroke-width:1.5;" width="1112.5" x="10" y="460.3203"/><text fill="#000000" font-family="sans-serif" font-size="13" font-weight="bold" lengthAdjust="spacing" textLength="21" x="25" y="473.3872">alt</text><text fill="#000000" font-family="sans-serif" font-size="11" font-weight="bold" lengthAdjust="spacing" textLength="50" x="91" y="472.5308">[exists]</text><polygon fill="#181818" points="774.5,494.5859,764.5,498.5859,774.5,502.5859,770.5,498.5859" style="stroke:#181818;stroke-width:1.0;"/><line style="stroke:#181818;stroke-width:1.0;" x1="768.5" x2="1019.5" y1="498.5859" y2="498.5859"/><text fill="#000000" font-family="sans-serif" font-size="13" lengthAdjust="spacing" textLength="98" x="780.5" y="493.52">res.status(409)</text><polygon fill="#181818" points="518.5,523.7188,508.5,527.7188,518.5,531.7188,514.5,527.7188" style="stroke:#181818;stroke-width:1.0;"/><line style="stroke:#181818;stroke-width:1.0;" x1="512.5" x2="762.5" y1="527.7188" y2="527.7188"/><text fill="#000000" font-family="sans-serif" font-size="13" lengthAdjust="spacing" textLength="98" x="524.5" y="522.6528">res.status(409)</text><polygon fill="#181818" points="339.5,552.8516,329.5,556.8516,339.5,560.8516,335.5,556.8516" style="stroke:#181818;stroke-width:1.0;"/><line style="stroke:#181818;stroke-width:1.0;" x1="333.5" x2="506.5" y1="556.8516" y2="556.8516"/><text fill="#000000" font-family="sans-serif" font-size="13" lengthAdjust="spacing" textLength="98" x="345.5" y="551.7856">res.status(409)</text><polygon fill="#181818" points="93.5,581.9844,83.5,585.9844,93.5,589.9844,89.5,585.9844" style="stroke:#181818;stroke-width:1.0;"/><line style="stroke:#181818;stroke-width:1.0;" x1="87.5" x2="327.5" y1="585.9844" y2="585.9844"/><text fill="#000000" font-family="sans-serif" font-size="13" lengthAdjust="spacing" textLength="130" x="99.5" y="580.9185">status 409 (Conflict)</text><polygon fill="#181818" points="1265.5,618.1172,1275.5,622.1172,1265.5,626.1172,1269.5,622.1172" style="stroke:#181818;stroke-width:1.0;"/><line style="stroke:#181818;stroke-width:1.0;" x1="1030.5" x2="1271.5" y1="622.1172" y2="622.1172"/><text fill="#000000" font-family="sans-serif" font-size="13" lengthAdjust="spacing" textLength="228" x="1037.5" y="617.0513">rawSchema = toPersistance(entity)</text><polygon fill="#181818" points="1041.5,647.25,1031.5,651.25,1041.5,655.25,1037.5,651.25" style="stroke:#181818;stroke-width:1.0;"/><line style="stroke:#181818;stroke-width:1.0;stroke-dasharray:2.0,2.0;" x1="1035.5" x2="1281.5" y1="651.25" y2="651.25"/><text fill="#000000" font-family="sans-serif" font-size="13" lengthAdjust="spacing" textLength="76" x="1047.5" y="646.1841">rawSchema</text><polygon fill="#181818" points="1426.5,691.5156,1436.5,695.5156,1426.5,699.5156,1430.5,695.5156" style="stroke:#181818;stroke-width:1.0;"/><line style="stroke:#181818;stroke-width:1.0;" x1="1030.5" x2="1432.5" y1="695.5156" y2="695.5156"/><text fill="#000000" font-family="sans-serif" font-size="13" lengthAdjust="spacing" textLength="191" x="1037.5" y="675.3169">schema = RobotTypeSchema</text><text fill="#000000" font-family="sans-serif" font-size="13" lengthAdjust="spacing" textLength="131" x="1037.5" y="690.4497">.create(rawSchema)</text><polygon fill="#181818" points="1958.5,720.6484,1968.5,724.6484,1958.5,728.6484,1962.5,724.6484" style="stroke:#181818;stroke-width:1.0;"/><line style="stroke:#181818;stroke-width:1.0;" x1="1443.5" x2="1964.5" y1="724.6484" y2="724.6484"/><text fill="#000000" font-family="sans-serif" font-size="13" lengthAdjust="spacing" textLength="92" x="1450.5" y="719.5825">save(schema)</text><polygon fill="#181818" points="1265.5,749.7813,1275.5,753.7813,1265.5,757.7813,1269.5,753.7813" style="stroke:#181818;stroke-width:1.0;"/><line style="stroke:#181818;stroke-width:1.0;" x1="1030.5" x2="1271.5" y1="753.7813" y2="753.7813"/><text fill="#000000" font-family="sans-serif" font-size="13" lengthAdjust="spacing" textLength="166" x="1037.5" y="748.7153">entity = toModel(schema)</text><polygon fill="#181818" points="1581.5,778.9141,1591.5,782.9141,1581.5,786.9141,1585.5,782.9141" style="stroke:#181818;stroke-width:1.0;"/><line style="stroke:#181818;stroke-width:1.0;" x1="1287.5" x2="1587.5" y1="782.9141" y2="782.9141"/><text fill="#000000" font-family="sans-serif" font-size="13" lengthAdjust="spacing" textLength="89" x="1294.5" y="777.8481">entity: «new»</text><polygon fill="#181818" points="774.5,838.0469,764.5,842.0469,774.5,846.0469,770.5,842.0469" style="stroke:#181818;stroke-width:1.0;"/><line style="stroke:#181818;stroke-width:1.0;stroke-dasharray:2.0,2.0;" x1="768.5" x2="1024.5" y1="842.0469" y2="842.0469"/><text fill="#000000" font-family="sans-serif" font-size="13" lengthAdjust="spacing" textLength="37" x="780.5" y="836.981">entity</text><polygon fill="#181818" points="1265.5,867.1797,1275.5,871.1797,1265.5,875.1797,1269.5,871.1797" style="stroke:#181818;stroke-width:1.0;"/><line style="stroke:#181818;stroke-width:1.0;" x1="763.5" x2="1271.5" y1="871.1797" y2="871.1797"/><text fill="#000000" font-family="sans-serif" font-size="13" lengthAdjust="spacing" textLength="237" x="770.5" y="866.1138">responseDto = roleMap.toDto(entity)</text><polygon fill="#181818" points="2017.5,896.3125,2027.5,900.3125,2017.5,904.3125,2021.5,900.3125" style="stroke:#181818;stroke-width:1.0;"/><line style="stroke:#181818;stroke-width:1.0;" x1="1282.5" x2="2023.5" y1="900.3125" y2="900.3125"/><text fill="#000000" font-family="sans-serif" font-size="13" lengthAdjust="spacing" textLength="134" x="1289.5" y="895.2466">responseDTO «new»</text><rect fill="#E2E2F0" height="30.2969" rx="2.5" ry="2.5" style="stroke:#181818;stroke-width:0.5;" width="164" x="2029.5" y="879.1797"/><text fill="#000000" font-family="sans-serif" font-size="14" lengthAdjust="spacing" textLength="150" x="2036.5" y="899.1748">CreateResponseDTO</text><polygon fill="#181818" points="518.5,937.6094,508.5,941.6094,518.5,945.6094,514.5,941.6094" style="stroke:#181818;stroke-width:1.0;"/><line style="stroke:#181818;stroke-width:1.0;stroke-dasharray:2.0,2.0;" x1="512.5" x2="762.5" y1="941.6094" y2="941.6094"/><text fill="#000000" font-family="sans-serif" font-size="13" lengthAdjust="spacing" textLength="87" x="524.5" y="936.5435">responseDTO</text><polygon fill="#181818" points="339.5,966.7422,329.5,970.7422,339.5,974.7422,335.5,970.7422" style="stroke:#181818;stroke-width:1.0;"/><line style="stroke:#181818;stroke-width:1.0;stroke-dasharray:2.0,2.0;" x1="333.5" x2="506.5" y1="970.7422" y2="970.7422"/><text fill="#000000" font-family="sans-serif" font-size="13" lengthAdjust="spacing" textLength="87" x="345.5" y="965.6763">responseDTO</text><polygon fill="#181818" points="88.5,1011.0078,78.5,1015.0078,88.5,1019.0078,84.5,1015.0078" style="stroke:#181818;stroke-width:1.0;"/><line style="stroke:#181818;stroke-width:1.0;stroke-dasharray:2.0,2.0;" x1="82.5" x2="327.5" y1="1015.0078" y2="1015.0078"/><text fill="#000000" font-family="sans-serif" font-size="13" lengthAdjust="spacing" textLength="83" x="94.5" y="994.8091">HTTP 200 OK</text><text fill="#000000" font-family="sans-serif" font-size="13" lengthAdjust="spacing" textLength="123" x="94.5" y="1009.9419">json(responseDTO)</text><!--SRC=[ZLKzRzim4DtzAmwPvA6gONI947jeaw92KSX8x4vUQEcSib19XQIS-j-N8YcH-ceoYIBllVjunsD5XA8vhGXJS7EGA21b2iMPv7W3HC8XNLIXoIElzR4viilXyOch_RN2BvmfmSlIsVhV6Vid51VgVBhrOiRq4IikgUBYQiFeVcViVv2gSc7OvLm8-I_yGsm4PZd7nmiiBLspcYk0GA9qh2yrIdM_psmP1fjzx0w5f58XStK8_XSBaYjwqU16aKCA7xQk_WdiigSzV1IjOuX-IywM7k1qifyGU24bBRI50tW3hrO2kH9bd9kuFzUqB2Xx7Ze8n5tuTKFab4n0Q96On4my2C45RC0oTjKwiaZWItpYnRN9FEqExXKFFBMTOT6k_cwpyMSsjBSMxVrrXB7L82eCSQb6nZ6LNmajQu4XSrWIWJAMYgXQHf_Mw-MYm560_JAq1VyFCAYXrq7hd5XxqFOG7LWbU8vIabE9yC0KLTSUYvCQMH76xcz80cX0i3ao9q4qolyPrKzIrXWj9ohlNVbhvvT6StDtGBlwgvjNwjgVAIio5dYAqoAajfVDuJH3qFS9TEW64rRQeXe5dQDX7BxtVDLNjvDolKFe6UJRGW-0RmgzkeL86vrBcgi9SS6esq_LZZNjbhowAcv0SLT6eiiOeUkLZinDGe6g5im3vxIKBUrWMXvPtBPHI_5EPHjISi58Ej1OskaSsmRM2PhRtX4CKxEVO2fOP09tTmnVjzi0OCP84C1umrBsGWfRp5BtnFBNepUWMgLGce6envjEHVT3yqh5Ykl_MQtSq6lV44UW7n6VwUWiyBJFkimdCkjY75-1piz4-_Vwlty1fc0JpM-wFu5l-_qErgiLPD-Fh7bVee1YQiO5EuVq7m00]--></g></svg>