<?xml version="1.0" encoding="us-ascii" standalone="no"?><svg xmlns="http://www.w3.org/2000/svg" xmlns:xlink="http://www.w3.org/1999/xlink" contentStyleType="text/css" height="1005px" preserveAspectRatio="none" style="width:1730px;height:1005px;background:#FFFFFF;" version="1.1" viewBox="0 0 1730 1005" width="1730px" zoomAndPan="magnify"><defs/><g><rect fill="#FFFFFF" height="900.8574" style="stroke:#181818;stroke-width:1.0;" width="10" x="66" y="48.6211"/><rect fill="#FFFFFF" height="405.0742" style="stroke:#181818;stroke-width:1.0;" width="10" x="262" y="71.9121"/><rect fill="#FFFFFF" height="342.4922" style="stroke:#181818;stroke-width:1.0;" width="10" x="442" y="103.2031"/><rect fill="#FFFFFF" height="262.6191" style="stroke:#181818;stroke-width:1.0;" width="10" x="640" y="151.7852"/><rect fill="#FFFFFF" height="388.9102" style="stroke:#181818;stroke-width:1.0;" width="10" x="640" y="515.2773"/><rect fill="#FFFFFF" height="156.4551" style="stroke:#181818;stroke-width:1.0;" width="10" x="831" y="200.3672"/><rect fill="#FFFFFF" height="343.6191" style="stroke:#181818;stroke-width:1.0;" width="10" x="831" y="546.5684"/><rect fill="#FFFFFF" height="61.291" style="stroke:#181818;stroke-width:1.0;" width="10" x="1008" y="797.6055"/><rect fill="#FFFFFF" height="93.873" style="stroke:#181818;stroke-width:1.0;" width="10" x="1119.5" y="231.6582"/><rect fill="#FFFFFF" height="31.291" style="stroke:#181818;stroke-width:1.0;" width="10" x="1119.5" y="595.1504"/><rect fill="#FFFFFF" height="30" style="stroke:#181818;stroke-width:1.0;" width="10" x="1119.5" y="736.3145"/><rect fill="#FFFFFF" height="30" style="stroke:#181818;stroke-width:1.0;" width="10" x="1226" y="828.8965"/><rect fill="#FFFFFF" height="30" style="stroke:#181818;stroke-width:1.0;" width="10" x="1357" y="657.7324"/><rect fill="#FFFFFF" height="31.291" style="stroke:#181818;stroke-width:1.0;" width="10" x="1675" y="262.9492"/><rect fill="none" height="113.1641" style="stroke:#000000;stroke-width:1.5;" width="694.5" x="10" y="371.8223"/><line style="stroke:#181818;stroke-width:0.5;stroke-dasharray:5.0,5.0;" x1="71" x2="71" y1="38.6211" y2="967.4785"/><line style="stroke:#181818;stroke-width:0.5;stroke-dasharray:5.0,5.0;" x1="266.5" x2="266.5" y1="38.6211" y2="967.4785"/><line style="stroke:#181818;stroke-width:0.5;stroke-dasharray:5.0,5.0;" x1="447" x2="447" y1="38.6211" y2="967.4785"/><line style="stroke:#181818;stroke-width:0.5;stroke-dasharray:5.0,5.0;" x1="644.5" x2="644.5" y1="38.6211" y2="967.4785"/><line style="stroke:#181818;stroke-width:0.5;stroke-dasharray:5.0,5.0;" x1="836" x2="836" y1="38.6211" y2="967.4785"/><line style="stroke:#181818;stroke-width:0.5;stroke-dasharray:5.0,5.0;" x1="1013" x2="1013" y1="38.6211" y2="967.4785"/><line style="stroke:#181818;stroke-width:0.5;stroke-dasharray:5.0,5.0;" x1="1124" x2="1124" y1="38.6211" y2="967.4785"/><line style="stroke:#181818;stroke-width:0.5;stroke-dasharray:5.0,5.0;" x1="1231" x2="1231" y1="38.6211" y2="967.4785"/><line style="stroke:#181818;stroke-width:0.5;stroke-dasharray:5.0,5.0;" x1="1362" x2="1362" y1="38.6211" y2="967.4785"/><line style="stroke:#181818;stroke-width:0.5;stroke-dasharray:5.0,5.0;" x1="1537" x2="1537" y1="38.6211" y2="967.4785"/><line style="stroke:#181818;stroke-width:0.5;stroke-dasharray:5.0,5.0;" x1="1680" x2="1680" y1="38.6211" y2="967.4785"/><rect fill="#E2E2F0" height="32.6211" rx="2.5" ry="2.5" style="stroke:#181818;stroke-width:0.5;" width="102" x="20" y="5"/><text fill="#000000" font-family="sans-serif" font-size="14" lengthAdjust="spacing" textLength="88" x="27" y="27.1074">User Interface</text><rect fill="#E2E2F0" height="32.6211" rx="2.5" ry="2.5" style="stroke:#181818;stroke-width:0.5;" width="102" x="20" y="966.4785"/><text fill="#000000" font-family="sans-serif" font-size="14" lengthAdjust="spacing" textLength="88" x="27" y="988.5859">User Interface</text><rect fill="#E2E2F0" height="32.6211" rx="2.5" ry="2.5" style="stroke:#181818;stroke-width:0.5;" width="57" x="238.5" y="5"/><text fill="#000000" font-family="sans-serif" font-size="14" lengthAdjust="spacing" textLength="43" x="245.5" y="27.1074">Router</text><rect fill="#E2E2F0" height="32.6211" rx="2.5" ry="2.5" style="stroke:#181818;stroke-width:0.5;" width="57" x="238.5" y="966.4785"/><text fill="#000000" font-family="sans-serif" font-size="14" lengthAdjust="spacing" textLength="43" x="245.5" y="988.5859">Router</text><rect fill="#E2E2F0" height="32.6211" rx="2.5" ry="2.5" style="stroke:#181818;stroke-width:0.5;" width="114" x="390" y="5"/><text fill="#000000" font-family="sans-serif" font-size="14" lengthAdjust="spacing" textLength="100" x="397" y="27.1074">RobotController</text><rect fill="#E2E2F0" height="32.6211" rx="2.5" ry="2.5" style="stroke:#181818;stroke-width:0.5;" width="114" x="390" y="966.4785"/><text fill="#000000" font-family="sans-serif" font-size="14" lengthAdjust="spacing" textLength="100" x="397" y="988.5859">RobotController</text><rect fill="#E2E2F0" height="32.6211" rx="2.5" ry="2.5" style="stroke:#181818;stroke-width:0.5;" width="99" x="595.5" y="5"/><text fill="#000000" font-family="sans-serif" font-size="14" lengthAdjust="spacing" textLength="85" x="602.5" y="27.1074">RobotService</text><rect fill="#E2E2F0" height="32.6211" rx="2.5" ry="2.5" style="stroke:#181818;stroke-width:0.5;" width="99" x="595.5" y="966.4785"/><text fill="#000000" font-family="sans-serif" font-size="14" lengthAdjust="spacing" textLength="85" x="602.5" y="988.5859">RobotService</text><rect fill="#E2E2F0" height="32.6211" rx="2.5" ry="2.5" style="stroke:#181818;stroke-width:0.5;" width="120" x="776" y="5"/><text fill="#000000" font-family="sans-serif" font-size="14" lengthAdjust="spacing" textLength="106" x="783" y="27.1074">RobotRepository</text><rect fill="#E2E2F0" height="32.6211" rx="2.5" ry="2.5" style="stroke:#181818;stroke-width:0.5;" width="120" x="776" y="966.4785"/><text fill="#000000" font-family="sans-serif" font-size="14" lengthAdjust="spacing" textLength="106" x="783" y="988.5859">RobotRepository</text><rect fill="#E2E2F0" height="32.6211" rx="2.5" ry="2.5" style="stroke:#181818;stroke-width:0.5;" width="100" x="963" y="5"/><text fill="#000000" font-family="sans-serif" font-size="14" lengthAdjust="spacing" textLength="86" x="970" y="27.1074">RobotMapper</text><rect fill="#E2E2F0" height="32.6211" rx="2.5" ry="2.5" style="stroke:#181818;stroke-width:0.5;" width="100" x="963" y="966.4785"/><text fill="#000000" font-family="sans-serif" font-size="14" lengthAdjust="spacing" textLength="86" x="970" y="988.5859">RobotMapper</text><rect fill="#E2E2F0" height="32.6211" rx="2.5" ry="2.5" style="stroke:#181818;stroke-width:0.5;" width="103" x="1073" y="5"/><text fill="#000000" font-family="sans-serif" font-size="14" lengthAdjust="spacing" textLength="89" x="1080" y="27.1074">RobotSchema</text><rect fill="#E2E2F0" height="32.6211" rx="2.5" ry="2.5" style="stroke:#181818;stroke-width:0.5;" width="103" x="1073" y="966.4785"/><text fill="#000000" font-family="sans-serif" font-size="14" lengthAdjust="spacing" textLength="89" x="1080" y="988.5859">RobotSchema</text><rect fill="#E2E2F0" height="32.6211" rx="2.5" ry="2.5" style="stroke:#181818;stroke-width:0.5;" width="90" x="1186" y="5"/><text fill="#000000" font-family="sans-serif" font-size="14" lengthAdjust="spacing" textLength="76" x="1193" y="27.1074">RobotModel</text><rect fill="#E2E2F0" height="32.6211" rx="2.5" ry="2.5" style="stroke:#181818;stroke-width:0.5;" width="90" x="1186" y="966.4785"/><text fill="#000000" font-family="sans-serif" font-size="14" lengthAdjust="spacing" textLength="76" x="1193" y="988.5859">RobotModel</text><rect fill="#E2E2F0" height="32.6211" rx="2.5" ry="2.5" style="stroke:#181818;stroke-width:0.5;" width="152" x="1286" y="5"/><text fill="#000000" font-family="sans-serif" font-size="14" lengthAdjust="spacing" textLength="138" x="1293" y="27.1074">PersistenceDocument</text><rect fill="#E2E2F0" height="32.6211" rx="2.5" ry="2.5" style="stroke:#181818;stroke-width:0.5;" width="152" x="1286" y="966.4785"/><text fill="#000000" font-family="sans-serif" font-size="14" lengthAdjust="spacing" textLength="138" x="1293" y="988.5859">PersistenceDocument</text><rect fill="#E2E2F0" height="32.6211" rx="2.5" ry="2.5" style="stroke:#181818;stroke-width:0.5;" width="178" x="1448" y="5"/><text fill="#000000" font-family="sans-serif" font-size="14" lengthAdjust="spacing" textLength="164" x="1455" y="27.1074">RobotCreateRequestDTO</text><rect fill="#E2E2F0" height="32.6211" rx="2.5" ry="2.5" style="stroke:#181818;stroke-width:0.5;" width="178" x="1448" y="966.4785"/><text fill="#000000" font-family="sans-serif" font-size="14" lengthAdjust="spacing" textLength="164" x="1455" y="988.5859">RobotCreateRequestDTO</text><rect fill="#E2E2F0" height="32.6211" rx="2.5" ry="2.5" style="stroke:#181818;stroke-width:0.5;" width="88" x="1636" y="5"/><text fill="#000000" font-family="sans-serif" font-size="14" lengthAdjust="spacing" textLength="74" x="1643" y="27.1074">Persistence</text><rect fill="#E2E2F0" height="32.6211" rx="2.5" ry="2.5" style="stroke:#181818;stroke-width:0.5;" width="88" x="1636" y="966.4785"/><text fill="#000000" font-family="sans-serif" font-size="14" lengthAdjust="spacing" textLength="74" x="1643" y="988.5859">Persistence</text><rect fill="#FFFFFF" height="900.8574" style="stroke:#181818;stroke-width:1.0;" width="10" x="66" y="48.6211"/><rect fill="#FFFFFF" height="405.0742" style="stroke:#181818;stroke-width:1.0;" width="10" x="262" y="71.9121"/><rect fill="#FFFFFF" height="342.4922" style="stroke:#181818;stroke-width:1.0;" width="10" x="442" y="103.2031"/><rect fill="#FFFFFF" height="262.6191" style="stroke:#181818;stroke-width:1.0;" width="10" x="640" y="151.7852"/><rect fill="#FFFFFF" height="388.9102" style="stroke:#181818;stroke-width:1.0;" width="10" x="640" y="515.2773"/><rect fill="#FFFFFF" height="156.4551" style="stroke:#181818;stroke-width:1.0;" width="10" x="831" y="200.3672"/><rect fill="#FFFFFF" height="343.6191" style="stroke:#181818;stroke-width:1.0;" width="10" x="831" y="546.5684"/><rect fill="#FFFFFF" height="61.291" style="stroke:#181818;stroke-width:1.0;" width="10" x="1008" y="797.6055"/><rect fill="#FFFFFF" height="93.873" style="stroke:#181818;stroke-width:1.0;" width="10" x="1119.5" y="231.6582"/><rect fill="#FFFFFF" height="31.291" style="stroke:#181818;stroke-width:1.0;" width="10" x="1119.5" y="595.1504"/><rect fill="#FFFFFF" height="30" style="stroke:#181818;stroke-width:1.0;" width="10" x="1119.5" y="736.3145"/><rect fill="#FFFFFF" height="30" style="stroke:#181818;stroke-width:1.0;" width="10" x="1226" y="828.8965"/><rect fill="#FFFFFF" height="30" style="stroke:#181818;stroke-width:1.0;" width="10" x="1357" y="657.7324"/><rect fill="#FFFFFF" height="31.291" style="stroke:#181818;stroke-width:1.0;" width="10" x="1675" y="262.9492"/><polygon fill="#181818" points="250,67.9121,260,71.9121,250,75.9121,254,71.9121" style="stroke:#181818;stroke-width:1.0;"/><line style="stroke:#181818;stroke-width:1.0;" x1="76" x2="256" y1="71.9121" y2="71.9121"/><text fill="#000000" font-family="sans-serif" font-size="13" lengthAdjust="spacing" textLength="167" x="83" y="66.6494">PATCH /api/inhibt/:nickname</text><polygon fill="#181818" points="430,99.2031,440,103.2031,430,107.2031,434,103.2031" style="stroke:#181818;stroke-width:1.0;"/><line style="stroke:#181818;stroke-width:1.0;" x1="272" x2="436" y1="103.2031" y2="103.2031"/><text fill="#000000" font-family="sans-serif" font-size="13" lengthAdjust="spacing" textLength="151" x="279" y="97.9404">ctrl.inhibtRobot(nickname)</text><polygon fill="#181818" points="628,147.7852,638,151.7852,628,155.7852,632,151.7852" style="stroke:#181818;stroke-width:1.0;"/><line style="stroke:#181818;stroke-width:1.0;" x1="452" x2="634" y1="151.7852" y2="151.7852"/><text fill="#000000" font-family="sans-serif" font-size="13" lengthAdjust="spacing" textLength="169" x="459" y="129.2314">reponseOrError = inhibtRobot</text><text fill="#000000" font-family="sans-serif" font-size="13" lengthAdjust="spacing" textLength="64" x="459" y="146.5225">(nickname)</text><polygon fill="#181818" points="819,196.3672,829,200.3672,819,204.3672,823,200.3672" style="stroke:#181818;stroke-width:1.0;"/><line style="stroke:#181818;stroke-width:1.0;" x1="650" x2="825" y1="200.3672" y2="200.3672"/><text fill="#000000" font-family="sans-serif" font-size="13" lengthAdjust="spacing" textLength="44" x="657" y="177.8135">entity =</text><text fill="#000000" font-family="sans-serif" font-size="13" lengthAdjust="spacing" textLength="158" x="661" y="195.1045">findByNickname(nickname)</text><polygon fill="#181818" points="1107.5,227.6582,1117.5,231.6582,1107.5,235.6582,1111.5,231.6582" style="stroke:#181818;stroke-width:1.0;"/><line style="stroke:#181818;stroke-width:1.0;" x1="841" x2="1113.5" y1="231.6582" y2="231.6582"/><text fill="#000000" font-family="sans-serif" font-size="13" lengthAdjust="spacing" textLength="206" x="848" y="226.3955">entity = findByNickname(nickname)</text><polygon fill="#181818" points="1663,258.9492,1673,262.9492,1663,266.9492,1667,262.9492" style="stroke:#181818;stroke-width:1.0;"/><line style="stroke:#181818;stroke-width:1.0;" x1="1129.5" x2="1669" y1="262.9492" y2="262.9492"/><text fill="#000000" font-family="sans-serif" font-size="13" lengthAdjust="spacing" textLength="158" x="1136.5" y="257.6865">findByNickname(nickname)</text><polygon fill="#181818" points="1140.5,290.2402,1130.5,294.2402,1140.5,298.2402,1136.5,294.2402" style="stroke:#181818;stroke-width:1.0;"/><line style="stroke:#181818;stroke-width:1.0;" x1="1134.5" x2="1679" y1="294.2402" y2="294.2402"/><text fill="#000000" font-family="sans-serif" font-size="13" lengthAdjust="spacing" textLength="32" x="1146.5" y="288.9775">entity</text><polygon fill="#181818" points="852,321.5313,842,325.5313,852,329.5313,848,325.5313" style="stroke:#181818;stroke-width:1.0;"/><line style="stroke:#181818;stroke-width:1.0;" x1="846" x2="1123.5" y1="325.5313" y2="325.5313"/><text fill="#000000" font-family="sans-serif" font-size="13" lengthAdjust="spacing" textLength="32" x="858" y="320.2686">entity</text><polygon fill="#181818" points="661,352.8223,651,356.8223,661,360.8223,657,356.8223" style="stroke:#181818;stroke-width:1.0;"/><line style="stroke:#181818;stroke-width:1.0;" x1="655" x2="835" y1="356.8223" y2="356.8223"/><text fill="#000000" font-family="sans-serif" font-size="13" lengthAdjust="spacing" textLength="32" x="667" y="351.5596">entity</text><path d="M10,371.8223 L71,371.8223 L71,381.1133 L61,391.1133 L10,391.1133 L10,371.8223 " fill="#EEEEEE" style="stroke:#000000;stroke-width:1.5;"/><rect fill="none" height="113.1641" style="stroke:#000000;stroke-width:1.5;" width="694.5" x="10" y="371.8223"/><text fill="#000000" font-family="sans-serif" font-size="13" font-weight="bold" lengthAdjust="spacing" textLength="16" x="25" y="386.8506">alt</text><text fill="#000000" font-family="sans-serif" font-size="11" font-weight="bold" lengthAdjust="spacing" textLength="110" x="86" y="385.6924">[robot doesnt exist]</text><polygon fill="#181818" points="463,410.4043,453,414.4043,463,418.4043,459,414.4043" style="stroke:#181818;stroke-width:1.0;"/><line style="stroke:#181818;stroke-width:1.0;" x1="457" x2="644" y1="414.4043" y2="414.4043"/><text fill="#000000" font-family="sans-serif" font-size="13" lengthAdjust="spacing" textLength="87" x="469" y="409.1416">res.status(404)</text><polygon fill="#181818" points="283,441.6953,273,445.6953,283,449.6953,279,445.6953" style="stroke:#181818;stroke-width:1.0;"/><line style="stroke:#181818;stroke-width:1.0;" x1="277" x2="446" y1="445.6953" y2="445.6953"/><text fill="#000000" font-family="sans-serif" font-size="13" lengthAdjust="spacing" textLength="87" x="289" y="440.4326">res.status(404)</text><polygon fill="#181818" points="87,472.9863,77,476.9863,87,480.9863,83,476.9863" style="stroke:#181818;stroke-width:1.0;"/><line style="stroke:#181818;stroke-width:1.0;" x1="81" x2="266" y1="476.9863" y2="476.9863"/><text fill="#000000" font-family="sans-serif" font-size="13" lengthAdjust="spacing" textLength="128" x="93" y="471.7236">status 404 (Not found)</text><polygon fill="#181818" points="1219,511.2773,1229,515.2773,1219,519.2773,1223,515.2773" style="stroke:#181818;stroke-width:1.0;"/><line style="stroke:#181818;stroke-width:1.0;" x1="650" x2="1225" y1="515.2773" y2="515.2773"/><text fill="#000000" font-family="sans-serif" font-size="13" lengthAdjust="spacing" textLength="100" x="657" y="510.0146">entity.state=false</text><polygon fill="#181818" points="819,542.5684,829,546.5684,819,550.5684,823,546.5684" style="stroke:#181818;stroke-width:1.0;"/><line style="stroke:#181818;stroke-width:1.0;" x1="650" x2="825" y1="546.5684" y2="546.5684"/><text fill="#000000" font-family="sans-serif" font-size="13" lengthAdjust="spacing" textLength="66" x="657" y="541.3057">save(entity)</text><polygon fill="#181818" points="1107.5,591.1504,1117.5,595.1504,1107.5,599.1504,1111.5,595.1504" style="stroke:#181818;stroke-width:1.0;"/><line style="stroke:#181818;stroke-width:1.0;" x1="841" x2="1113.5" y1="595.1504" y2="595.1504"/><text fill="#000000" font-family="sans-serif" font-size="13" lengthAdjust="spacing" textLength="144" x="848" y="572.5967">schema = RobotSchema</text><text fill="#000000" font-family="sans-serif" font-size="13" lengthAdjust="spacing" textLength="88" x="848" y="589.8877">.findOne(entity)</text><polygon fill="#181818" points="852,622.4414,842,626.4414,852,630.4414,848,626.4414" style="stroke:#181818;stroke-width:1.0;"/><line style="stroke:#181818;stroke-width:1.0;" x1="846" x2="1123.5" y1="626.4414" y2="626.4414"/><text fill="#000000" font-family="sans-serif" font-size="13" lengthAdjust="spacing" textLength="91" x="858" y="621.1787">entityDocuemnt</text><polygon fill="#181818" points="1345,653.7324,1355,657.7324,1345,661.7324,1349,657.7324" style="stroke:#181818;stroke-width:1.0;"/><line style="stroke:#181818;stroke-width:1.0;" x1="841" x2="1351" y1="657.7324" y2="657.7324"/><text fill="#000000" font-family="sans-serif" font-size="13" lengthAdjust="spacing" textLength="110" x="848" y="652.4697">state = entity.state</text><polygon fill="#181818" points="1107.5,732.3145,1117.5,736.3145,1107.5,740.3145,1111.5,736.3145" style="stroke:#181818;stroke-width:1.0;"/><line style="stroke:#181818;stroke-width:1.0;" x1="841" x2="1113.5" y1="736.3145" y2="736.3145"/><text fill="#000000" font-family="sans-serif" font-size="13" lengthAdjust="spacing" textLength="144" x="848" y="713.7607">schema = RobotSchema</text><text fill="#000000" font-family="sans-serif" font-size="13" lengthAdjust="spacing" textLength="88" x="848" y="731.0518">.findOne(entity)</text><polygon fill="#181818" points="996,793.6055,1006,797.6055,996,801.6055,1000,797.6055" style="stroke:#181818;stroke-width:1.0;"/><line style="stroke:#181818;stroke-width:1.0;" x1="841" x2="1002" y1="797.6055" y2="797.6055"/><text fill="#000000" font-family="sans-serif" font-size="13" lengthAdjust="spacing" textLength="148" x="848" y="792.3428">entity = toModel(schema)</text><polygon fill="#181818" points="1214,824.8965,1224,828.8965,1214,832.8965,1218,828.8965" style="stroke:#181818;stroke-width:1.0;"/><line style="stroke:#181818;stroke-width:1.0;" x1="1018" x2="1220" y1="828.8965" y2="828.8965"/><text fill="#000000" font-family="sans-serif" font-size="13" lengthAdjust="spacing" textLength="77" x="1025" y="823.6338">entity: &#171;new&#187;</text><polygon fill="#181818" points="661,886.1875,651,890.1875,661,894.1875,657,890.1875" style="stroke:#181818;stroke-width:1.0;"/><line style="stroke:#181818;stroke-width:1.0;stroke-dasharray:2.0,2.0;" x1="655" x2="835" y1="890.1875" y2="890.1875"/><text fill="#000000" font-family="sans-serif" font-size="13" lengthAdjust="spacing" textLength="32" x="667" y="884.9248">entity</text><polygon fill="#181818" points="458,900.1875,448,904.1875,458,908.1875,454,904.1875" style="stroke:#181818;stroke-width:1.0;"/><line style="stroke:#181818;stroke-width:1.0;stroke-dasharray:2.0,2.0;" x1="452" x2="644" y1="904.1875" y2="904.1875"/><polygon fill="#181818" points="278,914.1875,268,918.1875,278,922.1875,274,918.1875" style="stroke:#181818;stroke-width:1.0;"/><line style="stroke:#181818;stroke-width:1.0;stroke-dasharray:2.0,2.0;" x1="272" x2="446" y1="918.1875" y2="918.1875"/><polygon fill="#181818" points="82,945.4785,72,949.4785,82,953.4785,78,949.4785" style="stroke:#181818;stroke-width:1.0;"/><line style="stroke:#181818;stroke-width:1.0;stroke-dasharray:2.0,2.0;" x1="76" x2="266" y1="949.4785" y2="949.4785"/><text fill="#000000" font-family="sans-serif" font-size="13" lengthAdjust="spacing" textLength="124" x="88" y="944.2158">HTTP 204 No content</text><!--SRC=[hLN1Rjim3BtxAuYUt4EJOUZ9I09qxO3ci2J8abikgisWmXp9avHi-Vl9aXpJZfQaG4-cBVAHr7kaAwOCptd5X86xjKO5Ks5GRLcETy0qhAT9HLsMSc-FtP4t-yTlqZnBOPGio-3NlaPyVw8wy90hs4d4ROcLrDn8TVIfJwyHtn-iga9gRyRIvk-uOpwhCsCuii3ImzHMrsE1IdDjKEJu8lFz3eLnhf7liHjIo0mkyVSUjNbPpVqzzJx-Ds4_KPAmtF233QxfMa_XOHB8oM3nj7f-XI6h-92BT_vcXfdW-I_1TjX61IRzeuvkASiWDweS-5XNUzh4txS0XEAajMkam6a6ob8cDCxLTwMaWZ4Go8s8WJPo24_NrOdt3EpDSdE4yKR0belYst4M869OH32jwUfpx4CBTmDOK4m8jI24Ymnk0A3S1PJHGnV5bvCKU2aeUYCq9bJQQpdSPoo0t1Ch3QYQ7IWaQYj1_6lJKpQeIXJgWJRCx7Nw-ENnlbD4uB4hZ4QW5mA9gbffMdbdtX-iFwGpM-1MxaNH2GsAHb4aj68to4tVBYsEjwpKUBFgD3jWwkC_92_jZJ6GzRCHWrehSn51FDCOmMqQg1SCxko2kSPuP2dL9TNjsuheRKGrUbfaSJMUZZ-tzMjD-TrE1jT8Hs_gyn70y1VmZpCPP30Q2VmpcP00j-z90USVF6Id9BhjBavMgwtE4CLcfZCqfwcvCYHkIZ9uNQqMyDNEo4n2Rhrw39v3hQV_0000]--></g></svg>