<?xml version="1.0" encoding="us-ascii" standalone="no"?><svg xmlns="http://www.w3.org/2000/svg" xmlns:xlink="http://www.w3.org/1999/xlink" contentStyleType="text/css" height="418px" preserveAspectRatio="none" style="width:713px;height:418px;background:#FFFFFF;" version="1.1" viewBox="0 0 713 418" width="713px" zoomAndPan="magnify"><defs/><g><rect fill="#FFFFFF" height="224.0371" style="stroke:#181818;stroke-width:1.0;" width="10" x="59" y="93.6211"/><rect fill="#FFFFFF" height="200.7461" style="stroke:#181818;stroke-width:1.0;" width="10" x="263" y="116.9121"/><rect fill="#FFFFFF" height="75.582" style="stroke:#181818;stroke-width:1.0;" width="10" x="476" y="210.7852"/><line style="stroke:#181818;stroke-width:0.5;stroke-dasharray:5.0,5.0;" x1="64" x2="64" y1="83.6211" y2="335.6582"/><line style="stroke:#181818;stroke-width:0.5;stroke-dasharray:5.0,5.0;" x1="268" x2="268" y1="83.6211" y2="335.6582"/><line style="stroke:#181818;stroke-width:0.5;stroke-dasharray:5.0,5.0;" x1="480.5" x2="480.5" y1="83.6211" y2="335.6582"/><text fill="#000000" font-family="sans-serif" font-size="14" lengthAdjust="spacing" textLength="112" x="5" y="80.1074">UI Gestor de frota</text><ellipse cx="64" cy="13.5" fill="#E2E2F0" rx="8" ry="8" style="stroke:#181818;stroke-width:0.5;"/><path d="M64,21.5 L64,48.5 M51,29.5 L77,29.5 M64,48.5 L51,63.5 M64,48.5 L77,63.5 " fill="none" style="stroke:#181818;stroke-width:0.5;"/><text fill="#000000" font-family="sans-serif" font-size="14" lengthAdjust="spacing" textLength="112" x="5" y="349.7656">UI Gestor de frota</text><ellipse cx="64" cy="361.7793" fill="#E2E2F0" rx="8" ry="8" style="stroke:#181818;stroke-width:0.5;"/><path d="M64,369.7793 L64,396.7793 M51,377.7793 L77,377.7793 M64,396.7793 L51,411.7793 M64,396.7793 L77,411.7793 " fill="none" style="stroke:#181818;stroke-width:0.5;"/><rect fill="#E2E2F0" height="51.2422" rx="2.5" ry="2.5" style="stroke:#181818;stroke-width:0.5;" width="100" x="218" y="31.3789"/><text fill="#000000" font-family="sans-serif" font-size="14" font-style="italic" lengthAdjust="spacing" textLength="86" x="225" y="53.4863">&#171;component&#187;</text><text fill="#000000" font-family="sans-serif" font-size="14" lengthAdjust="spacing" textLength="27" x="254.5" y="72.1074">SPA</text><rect fill="#E2E2F0" height="51.2422" rx="2.5" ry="2.5" style="stroke:#181818;stroke-width:0.5;" width="100" x="218" y="334.6582"/><text fill="#000000" font-family="sans-serif" font-size="14" font-style="italic" lengthAdjust="spacing" textLength="86" x="225" y="356.7656">&#171;component&#187;</text><text fill="#000000" font-family="sans-serif" font-size="14" lengthAdjust="spacing" textLength="27" x="254.5" y="375.3867">SPA</text><rect fill="#E2E2F0" height="51.2422" rx="2.5" ry="2.5" style="stroke:#181818;stroke-width:0.5;" width="133" x="414.5" y="31.3789"/><text fill="#000000" font-family="sans-serif" font-size="14" font-style="italic" lengthAdjust="spacing" textLength="86" x="438" y="53.4863">&#171;component&#187;</text><text fill="#000000" font-family="sans-serif" font-size="14" lengthAdjust="spacing" textLength="119" x="421.5" y="72.1074">Gest&#227;o de campus</text><rect fill="#E2E2F0" height="51.2422" rx="2.5" ry="2.5" style="stroke:#181818;stroke-width:0.5;" width="133" x="414.5" y="334.6582"/><text fill="#000000" font-family="sans-serif" font-size="14" font-style="italic" lengthAdjust="spacing" textLength="86" x="438" y="356.7656">&#171;component&#187;</text><text fill="#000000" font-family="sans-serif" font-size="14" lengthAdjust="spacing" textLength="119" x="421.5" y="375.3867">Gest&#227;o de campus</text><rect fill="#FFFFFF" height="224.0371" style="stroke:#181818;stroke-width:1.0;" width="10" x="59" y="93.6211"/><rect fill="#FFFFFF" height="200.7461" style="stroke:#181818;stroke-width:1.0;" width="10" x="263" y="116.9121"/><rect fill="#FFFFFF" height="75.582" style="stroke:#181818;stroke-width:1.0;" width="10" x="476" y="210.7852"/><polygon fill="#181818" points="251,112.9121,261,116.9121,251,120.9121,255,116.9121" style="stroke:#181818;stroke-width:1.0;"/><line style="stroke:#181818;stroke-width:1.0;" x1="69" x2="257" y1="116.9121" y2="116.9121"/><text fill="#000000" font-family="sans-serif" font-size="13" lengthAdjust="spacing" textLength="175" x="76" y="111.6494">get passages of building floors</text><polygon fill="#181818" points="80,144.2031,70,148.2031,80,152.2031,76,148.2031" style="stroke:#181818;stroke-width:1.0;"/><line style="stroke:#181818;stroke-width:1.0;" x1="74" x2="262" y1="148.2031" y2="148.2031"/><text fill="#000000" font-family="sans-serif" font-size="13" lengthAdjust="spacing" textLength="138" x="86" y="142.9404">request data (buildingId)</text><polygon fill="#181818" points="251,175.4941,261,179.4941,251,183.4941,255,179.4941" style="stroke:#181818;stroke-width:1.0;"/><line style="stroke:#181818;stroke-width:1.0;" x1="69" x2="257" y1="179.4941" y2="179.4941"/><text fill="#000000" font-family="sans-serif" font-size="13" lengthAdjust="spacing" textLength="123" x="76" y="174.2314">adds data (buildingId)</text><polygon fill="#181818" points="464,206.7852,474,210.7852,464,214.7852,468,210.7852" style="stroke:#181818;stroke-width:1.0;"/><line style="stroke:#181818;stroke-width:1.0;" x1="273" x2="470" y1="210.7852" y2="210.7852"/><text fill="#000000" font-family="sans-serif" font-size="13" lengthAdjust="spacing" textLength="184" x="280" y="205.5225">GET /api/buildings/:id/passages</text><line style="stroke:#181818;stroke-width:1.0;" x1="486" x2="528" y1="242.0762" y2="242.0762"/><line style="stroke:#181818;stroke-width:1.0;" x1="528" x2="528" y1="242.0762" y2="255.0762"/><line style="stroke:#181818;stroke-width:1.0;" x1="487" x2="528" y1="255.0762" y2="255.0762"/><polygon fill="#181818" points="497,251.0762,487,255.0762,497,259.0762,493,255.0762" style="stroke:#181818;stroke-width:1.0;"/><text fill="#000000" font-family="sans-serif" font-size="13" lengthAdjust="spacing" textLength="213" x="493" y="236.8135">getPassagesByBuildingId(robotType)</text><polygon fill="#181818" points="284,282.3672,274,286.3672,284,290.3672,280,286.3672" style="stroke:#181818;stroke-width:1.0;"/><line style="stroke:#181818;stroke-width:1.0;" x1="278" x2="480" y1="286.3672" y2="286.3672"/><text fill="#000000" font-family="sans-serif" font-size="13" lengthAdjust="spacing" textLength="104" x="290" y="281.1045">OK(200) with data</text><polygon fill="#181818" points="75,313.6582,65,317.6582,75,321.6582,71,317.6582" style="stroke:#181818;stroke-width:1.0;"/><line style="stroke:#181818;stroke-width:1.0;" x1="69" x2="267" y1="317.6582" y2="317.6582"/><text fill="#000000" font-family="sans-serif" font-size="13" lengthAdjust="spacing" textLength="129" x="81" y="312.3955">Shows requested data</text><!--SRC=[RP11ReCm44Ntd6B42XOLKPSeGaggAegwQ2II0qpmG2mHnhM7HZbFZzAB5TDG2Ct6iZN__VyzgqBOGdZOmeQSlog2qh9W2EZWuCW61gteGXji1C9yj-edkK5OBWi-6sweaIoxbtcpxo_sRWMUJUjww8KRiLpNP6Si5g8_KUWtq1_mbFcC52eICEWSLkI0IpYskbQwgQ2icQqRqKuT-5OTw0rIiFJHTZL0eI140xTLSN2VW4gvHwARsQHq2flNFIHeT38eNP9gbGm5npOZ5GGJXxbVzxlTZLrVrt_faUKZo_vgA9xZlbKAxs_Hys8HmqNBgUyUA7gOFTb8X-KdlhXXCQJ-aNw7awUdVW00]--></g></svg>