<?xml version="1.0" encoding="us-ascii" standalone="no"?><svg xmlns="http://www.w3.org/2000/svg" xmlns:xlink="http://www.w3.org/1999/xlink" contentStyleType="text/css" height="551px" preserveAspectRatio="none" style="width:673px;height:551px;background:#FFFFFF;" version="1.1" viewBox="0 0 673 551" width="673px" zoomAndPan="magnify"><defs/><g><rect fill="#FFFFFF" height="356.9102" style="stroke:#181818;stroke-width:1.0;" width="10" x="59" y="93.6211"/><rect fill="#FFFFFF" height="333.6191" style="stroke:#181818;stroke-width:1.0;" width="10" x="245" y="116.9121"/><rect fill="#FFFFFF" height="208.4551" style="stroke:#181818;stroke-width:1.0;" width="10" x="496" y="210.7852"/><line style="stroke:#181818;stroke-width:0.5;stroke-dasharray:5.0,5.0;" x1="64" x2="64" y1="83.6211" y2="468.5313"/><line style="stroke:#181818;stroke-width:0.5;stroke-dasharray:5.0,5.0;" x1="250" x2="250" y1="83.6211" y2="468.5313"/><line style="stroke:#181818;stroke-width:0.5;stroke-dasharray:5.0,5.0;" x1="500.5" x2="500.5" y1="83.6211" y2="468.5313"/><text fill="#000000" font-family="sans-serif" font-size="14" lengthAdjust="spacing" textLength="112" x="5" y="80.1074">UI Gestor de frota</text><ellipse cx="64" cy="13.5" fill="#E2E2F0" rx="8" ry="8" style="stroke:#181818;stroke-width:0.5;"/><path d="M64,21.5 L64,48.5 M51,29.5 L77,29.5 M64,48.5 L51,63.5 M64,48.5 L77,63.5 " fill="none" style="stroke:#181818;stroke-width:0.5;"/><text fill="#000000" font-family="sans-serif" font-size="14" lengthAdjust="spacing" textLength="112" x="5" y="482.6387">UI Gestor de frota</text><ellipse cx="64" cy="494.6523" fill="#E2E2F0" rx="8" ry="8" style="stroke:#181818;stroke-width:0.5;"/><path d="M64,502.6523 L64,529.6523 M51,510.6523 L77,510.6523 M64,529.6523 L51,544.6523 M64,529.6523 L77,544.6523 " fill="none" style="stroke:#181818;stroke-width:0.5;"/><rect fill="#E2E2F0" height="51.2422" rx="2.5" ry="2.5" style="stroke:#181818;stroke-width:0.5;" width="100" x="200" y="31.3789"/><text fill="#000000" font-family="sans-serif" font-size="14" font-style="italic" lengthAdjust="spacing" textLength="86" x="207" y="53.4863">&#171;component&#187;</text><text fill="#000000" font-family="sans-serif" font-size="14" lengthAdjust="spacing" textLength="27" x="236.5" y="72.1074">SPA</text><rect fill="#E2E2F0" height="51.2422" rx="2.5" ry="2.5" style="stroke:#181818;stroke-width:0.5;" width="100" x="200" y="467.5313"/><text fill="#000000" font-family="sans-serif" font-size="14" font-style="italic" lengthAdjust="spacing" textLength="86" x="207" y="489.6387">&#171;component&#187;</text><text fill="#000000" font-family="sans-serif" font-size="14" lengthAdjust="spacing" textLength="27" x="236.5" y="508.2598">SPA</text><rect fill="#E2E2F0" height="51.2422" rx="2.5" ry="2.5" style="stroke:#181818;stroke-width:0.5;" width="133" x="434.5" y="31.3789"/><text fill="#000000" font-family="sans-serif" font-size="14" font-style="italic" lengthAdjust="spacing" textLength="86" x="458" y="53.4863">&#171;component&#187;</text><text fill="#000000" font-family="sans-serif" font-size="14" lengthAdjust="spacing" textLength="119" x="441.5" y="72.1074">Gest&#227;o de campus</text><rect fill="#E2E2F0" height="51.2422" rx="2.5" ry="2.5" style="stroke:#181818;stroke-width:0.5;" width="133" x="434.5" y="467.5313"/><text fill="#000000" font-family="sans-serif" font-size="14" font-style="italic" lengthAdjust="spacing" textLength="86" x="458" y="489.6387">&#171;component&#187;</text><text fill="#000000" font-family="sans-serif" font-size="14" lengthAdjust="spacing" textLength="119" x="441.5" y="508.2598">Gest&#227;o de campus</text><rect fill="#FFFFFF" height="356.9102" style="stroke:#181818;stroke-width:1.0;" width="10" x="59" y="93.6211"/><rect fill="#FFFFFF" height="333.6191" style="stroke:#181818;stroke-width:1.0;" width="10" x="245" y="116.9121"/><rect fill="#FFFFFF" height="208.4551" style="stroke:#181818;stroke-width:1.0;" width="10" x="496" y="210.7852"/><polygon fill="#181818" points="233,112.9121,243,116.9121,233,120.9121,237,116.9121" style="stroke:#181818;stroke-width:1.0;"/><line style="stroke:#181818;stroke-width:1.0;" x1="69" x2="239" y1="116.9121" y2="116.9121"/><text fill="#000000" font-family="sans-serif" font-size="13" lengthAdjust="spacing" textLength="157" x="76" y="111.6494">create elevator in a building</text><polygon fill="#181818" points="80,144.2031,70,148.2031,80,152.2031,76,148.2031" style="stroke:#181818;stroke-width:1.0;"/><line style="stroke:#181818;stroke-width:1.0;" x1="74" x2="244" y1="148.2031" y2="148.2031"/><text fill="#000000" font-family="sans-serif" font-size="13" lengthAdjust="spacing" textLength="72" x="86" y="142.9404">request data</text><polygon fill="#181818" points="233,175.4941,243,179.4941,233,183.4941,237,179.4941" style="stroke:#181818;stroke-width:1.0;"/><line style="stroke:#181818;stroke-width:1.0;" x1="69" x2="239" y1="179.4941" y2="179.4941"/><text fill="#000000" font-family="sans-serif" font-size="13" lengthAdjust="spacing" textLength="57" x="76" y="174.2314">adds data</text><polygon fill="#181818" points="484,206.7852,494,210.7852,484,214.7852,488,210.7852" style="stroke:#181818;stroke-width:1.0;"/><line style="stroke:#181818;stroke-width:1.0;" x1="255" x2="490" y1="210.7852" y2="210.7852"/><text fill="#000000" font-family="sans-serif" font-size="13" lengthAdjust="spacing" textLength="189" x="262" y="205.5225">POST /building/:id/elevator (json)</text><line style="stroke:#181818;stroke-width:1.0;" x1="506" x2="548" y1="242.0762" y2="242.0762"/><line style="stroke:#181818;stroke-width:1.0;" x1="548" x2="548" y1="242.0762" y2="255.0762"/><line style="stroke:#181818;stroke-width:1.0;" x1="507" x2="548" y1="255.0762" y2="255.0762"/><polygon fill="#181818" points="517,251.0762,507,255.0762,517,259.0762,513,255.0762" style="stroke:#181818;stroke-width:1.0;"/><text fill="#000000" font-family="sans-serif" font-size="13" lengthAdjust="spacing" textLength="95" x="513" y="236.8135">validate(elevator)</text><line style="stroke:#181818;stroke-width:1.0;" x1="506" x2="548" y1="286.3672" y2="286.3672"/><line style="stroke:#181818;stroke-width:1.0;" x1="548" x2="548" y1="286.3672" y2="299.3672"/><line style="stroke:#181818;stroke-width:1.0;" x1="507" x2="548" y1="299.3672" y2="299.3672"/><polygon fill="#181818" points="517,295.3672,507,299.3672,517,303.3672,513,299.3672" style="stroke:#181818;stroke-width:1.0;"/><text fill="#000000" font-family="sans-serif" font-size="13" lengthAdjust="spacing" textLength="153" x="513" y="281.1045">validate(elevator.buildingId)</text><line style="stroke:#181818;stroke-width:1.0;" x1="506" x2="548" y1="330.6582" y2="330.6582"/><line style="stroke:#181818;stroke-width:1.0;" x1="548" x2="548" y1="330.6582" y2="343.6582"/><line style="stroke:#181818;stroke-width:1.0;" x1="507" x2="548" y1="343.6582" y2="343.6582"/><polygon fill="#181818" points="517,339.6582,507,343.6582,517,347.6582,513,343.6582" style="stroke:#181818;stroke-width:1.0;"/><text fill="#000000" font-family="sans-serif" font-size="13" lengthAdjust="spacing" textLength="88" x="513" y="325.3955">create(elevator)</text><line style="stroke:#181818;stroke-width:1.0;" x1="506" x2="548" y1="374.9492" y2="374.9492"/><line style="stroke:#181818;stroke-width:1.0;" x1="548" x2="548" y1="374.9492" y2="387.9492"/><line style="stroke:#181818;stroke-width:1.0;" x1="507" x2="548" y1="387.9492" y2="387.9492"/><polygon fill="#181818" points="517,383.9492,507,387.9492,517,391.9492,513,387.9492" style="stroke:#181818;stroke-width:1.0;"/><text fill="#000000" font-family="sans-serif" font-size="13" lengthAdjust="spacing" textLength="78" x="513" y="369.6865">save(elevator)</text><polygon fill="#181818" points="266,415.2402,256,419.2402,266,423.2402,262,419.2402" style="stroke:#181818;stroke-width:1.0;"/><line style="stroke:#181818;stroke-width:1.0;" x1="260" x2="500" y1="419.2402" y2="419.2402"/><text fill="#000000" font-family="sans-serif" font-size="13" lengthAdjust="spacing" textLength="217" x="272" y="413.9775">OK(201) created with created elevator</text><polygon fill="#181818" points="75,446.5313,65,450.5313,75,454.5313,71,450.5313" style="stroke:#181818;stroke-width:1.0;"/><line style="stroke:#181818;stroke-width:1.0;" x1="69" x2="249" y1="450.5313" y2="450.5313"/><text fill="#000000" font-family="sans-serif" font-size="13" lengthAdjust="spacing" textLength="115" x="81" y="445.2686">Shows created data</text><!--SRC=[bP5DJiCm48NtFiKegsG10PPH5QbYWIeMhHHwWC4Ug55g1zj93yHHk1XscXytGeXkBF-yxxsdyPexRI3PR-29RDWAWZUZ7IQ05lQM36lGECbbWyf1KktM_KlL8AnMN1yRhKYvihoK1RFlBntSE1wRrlRGerREwBecis2HEzcXetDWME2c31a5S4FXWMho0jzFAa1uRMKjf7gVGQzbePF70bw0eS_Mbm213jcb9GfXX_i1YOeLiDjMBv2F4NaXHJwbfnzMgsoEdK768fEbPOUrz86KZaRPLUhRiSn6_0cUP_M_48jTh5n8mrmAs3wd3tVtsU0hu2JTOJgCB1FqwpYYt_1MrK6VxCJsmu-uy7lHCJ0_]--></g></svg>