<?xml version="1.0" encoding="us-ascii" standalone="no"?><svg xmlns="http://www.w3.org/2000/svg" xmlns:xlink="http://www.w3.org/1999/xlink" contentStyleType="text/css" height="507px" preserveAspectRatio="none" style="width:475px;height:507px;background:#FFFFFF;" version="1.1" viewBox="0 0 475 507" width="475px" zoomAndPan="magnify"><defs/><g><rect fill="#FFFFFF" height="312.6191" style="stroke:#181818;stroke-width:1.0;" width="10" x="59" y="93.6211"/><rect fill="#FFFFFF" height="289.3281" style="stroke:#181818;stroke-width:1.0;" width="10" x="214" y="116.9121"/><rect fill="#FFFFFF" height="164.1641" style="stroke:#181818;stroke-width:1.0;" width="10" x="343" y="210.7852"/><line style="stroke:#181818;stroke-width:0.5;stroke-dasharray:5.0,5.0;" x1="64" x2="64" y1="83.6211" y2="424.2402"/><line style="stroke:#181818;stroke-width:0.5;stroke-dasharray:5.0,5.0;" x1="219" x2="219" y1="83.6211" y2="424.2402"/><line style="stroke:#181818;stroke-width:0.5;stroke-dasharray:5.0,5.0;" x1="347.5" x2="347.5" y1="83.6211" y2="424.2402"/><text fill="#000000" font-family="sans-serif" font-size="14" lengthAdjust="spacing" textLength="112" x="5" y="80.1074">UI Gestor de frota</text><ellipse cx="64" cy="13.5" fill="#E2E2F0" rx="8" ry="8" style="stroke:#181818;stroke-width:0.5;"/><path d="M64,21.5 L64,48.5 M51,29.5 L77,29.5 M64,48.5 L51,63.5 M64,48.5 L77,63.5 " fill="none" style="stroke:#181818;stroke-width:0.5;"/><text fill="#000000" font-family="sans-serif" font-size="14" lengthAdjust="spacing" textLength="112" x="5" y="438.3477">UI Gestor de frota</text><ellipse cx="64" cy="450.3613" fill="#E2E2F0" rx="8" ry="8" style="stroke:#181818;stroke-width:0.5;"/><path d="M64,458.3613 L64,485.3613 M51,466.3613 L77,466.3613 M64,485.3613 L51,500.3613 M64,485.3613 L77,500.3613 " fill="none" style="stroke:#181818;stroke-width:0.5;"/><rect fill="#E2E2F0" height="51.2422" rx="2.5" ry="2.5" style="stroke:#181818;stroke-width:0.5;" width="100" x="169" y="31.3789"/><text fill="#000000" font-family="sans-serif" font-size="14" font-style="italic" lengthAdjust="spacing" textLength="86" x="176" y="53.4863">&#171;component&#187;</text><text fill="#000000" font-family="sans-serif" font-size="14" lengthAdjust="spacing" textLength="27" x="205.5" y="72.1074">SPA</text><rect fill="#E2E2F0" height="51.2422" rx="2.5" ry="2.5" style="stroke:#181818;stroke-width:0.5;" width="100" x="169" y="423.2402"/><text fill="#000000" font-family="sans-serif" font-size="14" font-style="italic" lengthAdjust="spacing" textLength="86" x="176" y="445.3477">&#171;component&#187;</text><text fill="#000000" font-family="sans-serif" font-size="14" lengthAdjust="spacing" textLength="27" x="205.5" y="463.9688">SPA</text><rect fill="#E2E2F0" height="51.2422" rx="2.5" ry="2.5" style="stroke:#181818;stroke-width:0.5;" width="113" x="291.5" y="31.3789"/><text fill="#000000" font-family="sans-serif" font-size="14" font-style="italic" lengthAdjust="spacing" textLength="86" x="305" y="53.4863">&#171;component&#187;</text><text fill="#000000" font-family="sans-serif" font-size="14" lengthAdjust="spacing" textLength="99" x="298.5" y="72.1074">Gest&#227;o de frota</text><rect fill="#E2E2F0" height="51.2422" rx="2.5" ry="2.5" style="stroke:#181818;stroke-width:0.5;" width="113" x="291.5" y="423.2402"/><text fill="#000000" font-family="sans-serif" font-size="14" font-style="italic" lengthAdjust="spacing" textLength="86" x="305" y="445.3477">&#171;component&#187;</text><text fill="#000000" font-family="sans-serif" font-size="14" lengthAdjust="spacing" textLength="99" x="298.5" y="463.9688">Gest&#227;o de frota</text><rect fill="#FFFFFF" height="312.6191" style="stroke:#181818;stroke-width:1.0;" width="10" x="59" y="93.6211"/><rect fill="#FFFFFF" height="289.3281" style="stroke:#181818;stroke-width:1.0;" width="10" x="214" y="116.9121"/><rect fill="#FFFFFF" height="164.1641" style="stroke:#181818;stroke-width:1.0;" width="10" x="343" y="210.7852"/><polygon fill="#181818" points="202,112.9121,212,116.9121,202,120.9121,206,116.9121" style="stroke:#181818;stroke-width:1.0;"/><line style="stroke:#181818;stroke-width:1.0;" x1="69" x2="208" y1="116.9121" y2="116.9121"/><text fill="#000000" font-family="sans-serif" font-size="13" lengthAdjust="spacing" textLength="98" x="76" y="111.6494">create robot type</text><polygon fill="#181818" points="80,144.2031,70,148.2031,80,152.2031,76,148.2031" style="stroke:#181818;stroke-width:1.0;"/><line style="stroke:#181818;stroke-width:1.0;" x1="74" x2="213" y1="148.2031" y2="148.2031"/><text fill="#000000" font-family="sans-serif" font-size="13" lengthAdjust="spacing" textLength="72" x="86" y="142.9404">request data</text><polygon fill="#181818" points="202,175.4941,212,179.4941,202,183.4941,206,179.4941" style="stroke:#181818;stroke-width:1.0;"/><line style="stroke:#181818;stroke-width:1.0;" x1="69" x2="208" y1="179.4941" y2="179.4941"/><text fill="#000000" font-family="sans-serif" font-size="13" lengthAdjust="spacing" textLength="57" x="76" y="174.2314">adds data</text><polygon fill="#181818" points="331,206.7852,341,210.7852,331,214.7852,335,210.7852" style="stroke:#181818;stroke-width:1.0;"/><line style="stroke:#181818;stroke-width:1.0;" x1="224" x2="337" y1="210.7852" y2="210.7852"/><text fill="#000000" font-family="sans-serif" font-size="13" lengthAdjust="spacing" textLength="100" x="231" y="205.5225">POST /robotType</text><line style="stroke:#181818;stroke-width:1.0;" x1="353" x2="395" y1="242.0762" y2="242.0762"/><line style="stroke:#181818;stroke-width:1.0;" x1="395" x2="395" y1="242.0762" y2="255.0762"/><line style="stroke:#181818;stroke-width:1.0;" x1="354" x2="395" y1="255.0762" y2="255.0762"/><polygon fill="#181818" points="364,251.0762,354,255.0762,364,259.0762,360,255.0762" style="stroke:#181818;stroke-width:1.0;"/><text fill="#000000" font-family="sans-serif" font-size="13" lengthAdjust="spacing" textLength="108" x="360" y="236.8135">validate(robotType)</text><line style="stroke:#181818;stroke-width:1.0;" x1="353" x2="395" y1="286.3672" y2="286.3672"/><line style="stroke:#181818;stroke-width:1.0;" x1="395" x2="395" y1="286.3672" y2="299.3672"/><line style="stroke:#181818;stroke-width:1.0;" x1="354" x2="395" y1="299.3672" y2="299.3672"/><polygon fill="#181818" points="364,295.3672,354,299.3672,364,303.3672,360,299.3672" style="stroke:#181818;stroke-width:1.0;"/><text fill="#000000" font-family="sans-serif" font-size="13" lengthAdjust="spacing" textLength="101" x="360" y="281.1045">create(robotType)</text><line style="stroke:#181818;stroke-width:1.0;" x1="353" x2="395" y1="330.6582" y2="330.6582"/><line style="stroke:#181818;stroke-width:1.0;" x1="395" x2="395" y1="330.6582" y2="343.6582"/><line style="stroke:#181818;stroke-width:1.0;" x1="354" x2="395" y1="343.6582" y2="343.6582"/><polygon fill="#181818" points="364,339.6582,354,343.6582,364,347.6582,360,343.6582" style="stroke:#181818;stroke-width:1.0;"/><text fill="#000000" font-family="sans-serif" font-size="13" lengthAdjust="spacing" textLength="91" x="360" y="325.3955">save(robotType)</text><polygon fill="#181818" points="235,370.9492,225,374.9492,235,378.9492,231,374.9492" style="stroke:#181818;stroke-width:1.0;"/><line style="stroke:#181818;stroke-width:1.0;" x1="229" x2="347" y1="374.9492" y2="374.9492"/><text fill="#000000" font-family="sans-serif" font-size="13" lengthAdjust="spacing" textLength="72" x="241" y="369.6865">created(201)</text><polygon fill="#181818" points="75,402.2402,65,406.2402,75,410.2402,71,406.2402" style="stroke:#181818;stroke-width:1.0;"/><line style="stroke:#181818;stroke-width:1.0;" x1="69" x2="218" y1="406.2402" y2="406.2402"/><text fill="#000000" font-family="sans-serif" font-size="13" lengthAdjust="spacing" textLength="121" x="81" y="400.9775">Successful message</text><!--SRC=[ZP1DQiCm48NtEiNWLR8e_LcQO0XTXAuQS7A0gJGf1iUZIcD3pzEZz6BL96aZcLAwqTzyxxqPhQrmW6h_11kAUdG4Xy225M24VQHWF0RfRETn4AZQxVfKQJt2QcNvw7cWGPgcnDJiyuDBjqSU973VKvX9qKeteT0vJnUuQJIY1Xj82u5VM43UFLtXL3VQHa9LKaEWjp7bWaD1KzgWS_7oVf5apTImVMvtS7iAsHKPLygOJ37NJzXtoPqMFnRBl_3pKF-48qu5EcDrd6z7jtYukryQHx_sd_rLKhIZjHJZOUpXc7PyfLodVvjTLVC5]--></g></svg>