<?xml version="1.0" encoding="us-ascii" standalone="no"?><svg xmlns="http://www.w3.org/2000/svg" xmlns:xlink="http://www.w3.org/1999/xlink" contentStyleType="text/css" height="463px" preserveAspectRatio="none" style="width:602px;height:463px;background:#FFFFFF;" version="1.1" viewBox="0 0 602 463" width="602px" zoomAndPan="magnify"><defs/><g><rect fill="#FFFFFF" height="268.3281" style="stroke:#181818;stroke-width:1.0;" width="10" x="59" y="93.6211"/><rect fill="#FFFFFF" height="245.0371" style="stroke:#181818;stroke-width:1.0;" width="10" x="266" y="116.9121"/><rect fill="#FFFFFF" height="119.873" style="stroke:#181818;stroke-width:1.0;" width="10" x="462" y="210.7852"/><line style="stroke:#181818;stroke-width:0.5;stroke-dasharray:5.0,5.0;" x1="64" x2="64" y1="83.6211" y2="379.9492"/><line style="stroke:#181818;stroke-width:0.5;stroke-dasharray:5.0,5.0;" x1="271" x2="271" y1="83.6211" y2="379.9492"/><line style="stroke:#181818;stroke-width:0.5;stroke-dasharray:5.0,5.0;" x1="466.5" x2="466.5" y1="83.6211" y2="379.9492"/><text fill="#000000" font-family="sans-serif" font-size="14" lengthAdjust="spacing" textLength="112" x="5" y="80.1074">UI Gestor de frota</text><ellipse cx="64" cy="13.5" fill="#E2E2F0" rx="8" ry="8" style="stroke:#181818;stroke-width:0.5;"/><path d="M64,21.5 L64,48.5 M51,29.5 L77,29.5 M64,48.5 L51,63.5 M64,48.5 L77,63.5 " fill="none" style="stroke:#181818;stroke-width:0.5;"/><text fill="#000000" font-family="sans-serif" font-size="14" lengthAdjust="spacing" textLength="112" x="5" y="394.0566">UI Gestor de frota</text><ellipse cx="64" cy="406.0703" fill="#E2E2F0" rx="8" ry="8" style="stroke:#181818;stroke-width:0.5;"/><path d="M64,414.0703 L64,441.0703 M51,422.0703 L77,422.0703 M64,441.0703 L51,456.0703 M64,441.0703 L77,456.0703 " fill="none" style="stroke:#181818;stroke-width:0.5;"/><rect fill="#E2E2F0" height="51.2422" rx="2.5" ry="2.5" style="stroke:#181818;stroke-width:0.5;" width="100" x="221" y="31.3789"/><text fill="#000000" font-family="sans-serif" font-size="14" font-style="italic" lengthAdjust="spacing" textLength="86" x="228" y="53.4863">&#171;component&#187;</text><text fill="#000000" font-family="sans-serif" font-size="14" lengthAdjust="spacing" textLength="27" x="257.5" y="72.1074">SPA</text><rect fill="#E2E2F0" height="51.2422" rx="2.5" ry="2.5" style="stroke:#181818;stroke-width:0.5;" width="100" x="221" y="378.9492"/><text fill="#000000" font-family="sans-serif" font-size="14" font-style="italic" lengthAdjust="spacing" textLength="86" x="228" y="401.0566">&#171;component&#187;</text><text fill="#000000" font-family="sans-serif" font-size="14" lengthAdjust="spacing" textLength="27" x="257.5" y="419.6777">SPA</text><rect fill="#E2E2F0" height="51.2422" rx="2.5" ry="2.5" style="stroke:#181818;stroke-width:0.5;" width="113" x="410.5" y="31.3789"/><text fill="#000000" font-family="sans-serif" font-size="14" font-style="italic" lengthAdjust="spacing" textLength="86" x="424" y="53.4863">&#171;component&#187;</text><text fill="#000000" font-family="sans-serif" font-size="14" lengthAdjust="spacing" textLength="99" x="417.5" y="72.1074">Gest&#227;o de frota</text><rect fill="#E2E2F0" height="51.2422" rx="2.5" ry="2.5" style="stroke:#181818;stroke-width:0.5;" width="113" x="410.5" y="378.9492"/><text fill="#000000" font-family="sans-serif" font-size="14" font-style="italic" lengthAdjust="spacing" textLength="86" x="424" y="401.0566">&#171;component&#187;</text><text fill="#000000" font-family="sans-serif" font-size="14" lengthAdjust="spacing" textLength="99" x="417.5" y="419.6777">Gest&#227;o de frota</text><rect fill="#FFFFFF" height="268.3281" style="stroke:#181818;stroke-width:1.0;" width="10" x="59" y="93.6211"/><rect fill="#FFFFFF" height="245.0371" style="stroke:#181818;stroke-width:1.0;" width="10" x="266" y="116.9121"/><rect fill="#FFFFFF" height="119.873" style="stroke:#181818;stroke-width:1.0;" width="10" x="462" y="210.7852"/><polygon fill="#181818" points="254,112.9121,264,116.9121,254,120.9121,258,116.9121" style="stroke:#181818;stroke-width:1.0;"/><line style="stroke:#181818;stroke-width:1.0;" x1="69" x2="260" y1="116.9121" y2="116.9121"/><text fill="#000000" font-family="sans-serif" font-size="13" lengthAdjust="spacing" textLength="64" x="76" y="111.6494">inhibt robot</text><polygon fill="#181818" points="80,144.2031,70,148.2031,80,152.2031,76,148.2031" style="stroke:#181818;stroke-width:1.0;"/><line style="stroke:#181818;stroke-width:1.0;" x1="74" x2="265" y1="148.2031" y2="148.2031"/><text fill="#000000" font-family="sans-serif" font-size="13" lengthAdjust="spacing" textLength="173" x="86" y="142.9404">request data (robot nickname)</text><polygon fill="#181818" points="254,175.4941,264,179.4941,254,183.4941,258,179.4941" style="stroke:#181818;stroke-width:1.0;"/><line style="stroke:#181818;stroke-width:1.0;" x1="69" x2="260" y1="179.4941" y2="179.4941"/><text fill="#000000" font-family="sans-serif" font-size="13" lengthAdjust="spacing" textLength="158" x="76" y="174.2314">adds data (robot nickname)</text><polygon fill="#181818" points="450,206.7852,460,210.7852,450,214.7852,454,210.7852" style="stroke:#181818;stroke-width:1.0;"/><line style="stroke:#181818;stroke-width:1.0;" x1="276" x2="456" y1="210.7852" y2="210.7852"/><text fill="#000000" font-family="sans-serif" font-size="13" lengthAdjust="spacing" textLength="167" x="283" y="205.5225">PATCH /api/inhibt/:nickname</text><line style="stroke:#181818;stroke-width:1.0;" x1="472" x2="514" y1="242.0762" y2="242.0762"/><line style="stroke:#181818;stroke-width:1.0;" x1="514" x2="514" y1="242.0762" y2="255.0762"/><line style="stroke:#181818;stroke-width:1.0;" x1="473" x2="514" y1="255.0762" y2="255.0762"/><polygon fill="#181818" points="483,251.0762,473,255.0762,483,259.0762,479,255.0762" style="stroke:#181818;stroke-width:1.0;"/><text fill="#000000" font-family="sans-serif" font-size="13" lengthAdjust="spacing" textLength="116" x="479" y="236.8135">edit(robotNickname)</text><line style="stroke:#181818;stroke-width:1.0;" x1="472" x2="514" y1="286.3672" y2="286.3672"/><line style="stroke:#181818;stroke-width:1.0;" x1="514" x2="514" y1="286.3672" y2="299.3672"/><line style="stroke:#181818;stroke-width:1.0;" x1="473" x2="514" y1="299.3672" y2="299.3672"/><polygon fill="#181818" points="483,295.3672,473,299.3672,483,303.3672,479,299.3672" style="stroke:#181818;stroke-width:1.0;"/><text fill="#000000" font-family="sans-serif" font-size="13" lengthAdjust="spacing" textLength="103" x="479" y="281.1045">save(editedRobot)</text><polygon fill="#181818" points="287,326.6582,277,330.6582,287,334.6582,283,330.6582" style="stroke:#181818;stroke-width:1.0;"/><line style="stroke:#181818;stroke-width:1.0;" x1="281" x2="466" y1="330.6582" y2="330.6582"/><text fill="#000000" font-family="sans-serif" font-size="13" lengthAdjust="spacing" textLength="88" x="293" y="325.3955">noContent(204)</text><polygon fill="#181818" points="75,357.9492,65,361.9492,75,365.9492,71,361.9492" style="stroke:#181818;stroke-width:1.0;"/><line style="stroke:#181818;stroke-width:1.0;" x1="69" x2="270" y1="361.9492" y2="361.9492"/><text fill="#000000" font-family="sans-serif" font-size="13" lengthAdjust="spacing" textLength="121" x="81" y="356.6865">Successful message</text><!--SRC=[VP1DJiCm48NtFiKegsI1WX2hg8eKTG5iK4Ne0QRsb5eaTh0dlH17uM9a6Y0_0ZR-VTzxJrDfzW6I_GFSKPIZ8JW6pvW0HjX72gh3m5RR3Xr3Kk-goq_T8MmsshUTT-IuB9SoCVjuzqkthNSSVDDGMA6esPwHQSoJ1QvAYIZ0kfCzC0H_y3pfXYyb3GQLg0i8zDOFaM2G4TAB6fpLhmvRojJI4es9Vmc_J6TD2zXLpzjxoB6p-TWcBxw9gT54A3MZrrvaB8-fZp-X_yWZdYaLXioJGDdQNFeMuBoy3hDCRwvlCsNerrgpWGrCtMjDCHxx1jfXnnUQSpBWsLMOJm00]--></g></svg>